<?xml version="1.0" encoding="utf-8"?>
<!-- Generator: Adobe Illustrator 18.1.1, SVG Export Plug-In . SVG Version: 6.00 Build 0)  -->
<svg version="1.1" id="Layer_1" xmlns="http://www.w3.org/2000/svg" xmlns:xlink="http://www.w3.org/1999/xlink" x="0px" y="0px"
	 viewBox="0 0 1417.3 1417.3" enable-background="new 0 0 1417.3 1417.3" xml:space="preserve">
<g>
	<path fill="#AAAAAA" d="M841.5,1060.2c0,111.3-0.3,222.3,0.3,333.6c0,12.2-3.3,15.5-15.5,15.2c-94.7-0.6-189.1-0.6-283.7,0
		c-13,0-17.2-3-17.2-16.6c0.6-220.6,0.3-441,0.3-661.6c0-22.1,2.5-19.4-20.2-19.7c-40.1,0-80.3-0.3-120.4,0.3
		c-9.7,0-12.5-3-12.5-12.7c0.3-70,0.3-140.3,0-210.4c0-9.7,2.8-12.7,12.5-12.5c42.1,0.6,83.9-0.3,126,0.6
		c11.3,0.3,14.9-2.8,14.9-14.7c-0.6-59,0-118.2-0.3-177.2c-0.3-49,7.2-96.3,31.8-139.5C584.1,98,624,65.6,673.2,44.6
		c41.5-17.7,85.3-26,130.1-28.5c88.9-5,178-0.8,266.9-2.5c10-0.3,12.5,3.3,12.5,12.7c-0.3,72.8-0.3,145.9,0,218.7
		c0,11.1-4.2,12.7-13.8,12.7c-51.2-0.3-102.4-0.3-153.6-0.3c-42.6,0-73.4,30.7-73.4,72.8c0,43.5,0.6,86.6-0.3,130.1
		c-0.3,12.5,3.9,15.5,15.8,15.5c70-0.6,140.3,0,210.4-0.6c11.6,0,15.5,3.3,14.1,14.9c-4.2,35.7-7.8,71.4-11.6,107.1
		c-3.6,34.3-9.7,68.4-15.2,102.4c-1.7,9.7-4.7,11.9-13.6,11.9c-60.1-0.3-119.9-0.3-179.9,0c-23.5,0-20.2-3-20.2,20.8
		C841.5,841.5,841.5,950.9,841.5,1060.2z"/>
</g>
</svg>
