<?xml version="1.0" encoding="utf-8"?>
<!-- Generator: Adobe Illustrator 18.1.1, SVG Export Plug-In . SVG Version: 6.00 Build 0)  -->
<svg version="1.1" id="magnifying_glass" xmlns="http://www.w3.org/2000/svg" xmlns:xlink="http://www.w3.org/1999/xlink" x="0px"
	 y="0px" viewBox="-660 661.3 96 96" enable-background="new -660 661.3 96 96" xml:space="preserve">
<path fill="#AAAAAA" d="M-568.3,745.2l-21.6-21.6c4.8-6.5,7.4-14.2,7.4-22.3c0-20.7-16.8-37.5-37.5-37.5s-37.5,16.8-37.5,37.5
	c0,20.7,16.8,37.5,37.5,37.5c8.1,0,15.8-2.5,22.3-7.4l21.6,21.6c1,1,2.4,1.6,3.9,1.6c1.5,0,2.9-0.6,3.9-1.6c1-1,1.6-2.4,1.6-3.9
	S-567.3,746.3-568.3,745.2z M-620,727.8c-14.6,0-26.5-11.9-26.5-26.5c0-14.6,11.9-26.5,26.5-26.5s26.5,11.9,26.5,26.5
	C-593.5,715.9-605.4,727.8-620,727.8z"/>
</svg>
