<svg xmlns="http://www.w3.org/2000/svg" viewBox="0 0 1325 175">
  <g>
    <path fill= "#268f99" d="M809.058533,4.5756459 L810.82428,4.5756459 L810.82428,31.6175046 L809.058533,31.6175046 L809.058533,4.5756459 Z M515.885925,4.5752769 L514.120117,4.5752769 L514.120117,31.6171337 L515.885925,31.6171337 L515.885925,4.5752769 Z"/>
    <path fill= "#68dad4" d="M675.476807,73.5674133 L675.476807,162.922638 L779.292236,162.922638 L840.590576,162.922638 L840.590576,53.2799568 C840.590576,36.3528938 826.868469,22.630804 809.941406,22.630804 C794.394775,22.630804 781.560669,34.208847 779.569275,49.2110977 L779.578735,49.0723076 L770.876892,49.0723076 C759.672485,49.0723076 750.589477,58.155262 750.589477,69.3597183 L750.589477,73.5674133 L728.40918,73.5674133 L728.40918,48.2536964 L701.887573,39.8983078 L701.887573,48.2039719 L675.523804,39.8983078 L675.523804,73.5674133 L675.476807,73.5674133 Z M930.365234,172.943985 L1003.7016,172.943985 L1003.7016,57.8970833 L930.365234,57.8970833 L930.365234,172.943985 Z M1088.2594,172.943985 L1131.28711,172.943985 L1131.28711,86.4450455 L1088.2594,86.4450455 L1088.2594,172.943985 Z M1159.06702,75.4269867 L1159.06702,172.943985 L1221.73462,172.943985 L1221.73462,75.4269867 L1207.78845,75.4269867 L1207.78845,58.0393791 L1196.17493,58.0393791 L1196.17493,46.5820847 L1184.62659,46.5820847 L1184.62659,58.0393792 L1173.01318,58.0393792 L1173.01318,75.4269868 L1159.06702,75.4269868 L1159.06702,75.4269867 Z M649.420593,73.5670471 L649.420593,39.8979416 L623.056824,48.2036057 L623.056824,39.8979416 L596.535217,48.2533264 L596.535217,73.5670471 L574.354919,73.5670471 L574.354919,69.3593521 C574.354919,58.154892 565.271973,49.0719375 554.067505,49.0719375 L545.365662,49.0719375 L545.375122,49.2107314 C543.383728,34.2084769 530.549621,22.6304358 515.002991,22.6304358 C498.075928,22.6304358 484.353821,36.3525237 484.353821,53.2795905 L484.353821,162.922275 L545.652161,162.922275 L649.46759,162.922275 L649.46759,73.5670471 L649.420593,73.5670471 Z M394.579163,57.8967133 L321.242798,57.8967133 L321.242798,172.943619 L394.579163,172.943619 L394.579163,57.8967133 Z M236.685043,86.4446716 L193.657303,86.4446716 L193.657303,172.943619 L236.685043,172.943619 L236.685043,86.4446716 Z M151.931244,75.4266205 L151.931244,58.0390129 L140.317795,58.0390129 L140.317795,46.5817184 L128.769501,46.5817184 L128.769501,58.0390129 L117.156021,58.0390129 L117.156021,75.4266205 L103.209831,75.4266205 L103.209831,172.943619 L165.877426,172.943619 L165.877426,75.4266205 L151.931244,75.4266205 Z"/>
    <path fill= "#268f99 " d="M1199.12085,81.6154327 L1199.12085,81.6154327 C1199.94629,81.6154327 1200.6156,80.9462051 1200.6156,80.1206817 L1200.6156,66.2745514 C1200.6156,65.4490204 1199.94629,64.7798004 1199.12085,64.7798004 L1199.12085,64.7798004 C1198.29529,64.7798004 1197.6261,65.4490204 1197.6261,66.2745514 L1197.6261,80.1206818 C1197.6261,80.9462051 1198.29529,81.6154327 1199.12085,81.6154327 Z M1190.75061,81.6154327 L1190.75061,81.6154327 C1191.57617,81.6154327 1192.24536,80.9462051 1192.24536,80.1206817 L1192.24536,66.2745514 C1192.24536,65.4490204 1191.57617,64.7798004 1190.75061,64.7798004 L1190.75061,64.7798004 C1189.92517,64.7798004 1189.25586,65.4490204 1189.25586,66.2745514 L1189.25586,80.1206818 C1189.25586,80.9462051 1189.92517,81.6154327 1190.75061,81.6154327 Z M989.781555,74.6923676 L995.603272,74.6923676 L995.603272,66.0385361 L989.781555,66.0385361 L989.781555,74.6923676 Z M978.7724,74.6923676 L984.594055,74.6923676 L984.594055,66.0385361 L978.7724,66.0385361 L978.7724,74.6923676 Z M967.763184,74.6923676 L973.584839,74.6923676 L973.584839,66.0385361 L967.763184,66.0385361 L967.763184,74.6923676 Z M956.753967,88.666687 L962.575623,88.666687 L962.575623,80.0128631 L956.753967,80.0128631 L956.753967,88.666687 Z M825.168823,67.8142471 L832.062927,67.8142471 L832.062927,60.9201393 L825.168823,60.9201393 L825.168823,67.8142471 Z M812.329956,67.8142471 L819.22406,67.8142471 L819.22406,60.9201393 L812.329956,60.9201393 L812.329956,67.8142471 Z M799.491028,67.8142471 L806.385132,67.8142471 L806.385132,60.9201393 L799.491028,60.9201393 L799.491028,67.8142471 Z M799.491028,81.5864716 L806.385132,81.5864716 L806.385132,74.6923676 L799.491028,74.6923676 L799.491028,81.5864716 Z M786.652161,81.5864716 L793.546265,81.5864716 L793.546265,74.6923676 L786.652161,74.6923676 L786.652161,81.5864716 Z M716.63031,85.219635 L716.630371,85.219635 C717.788269,85.219635 718.72699,84.2809448 718.72699,83.1230087 L718.72699,63.0167694 C718.72699,61.8588333 717.788269,60.9201393 716.630371,60.9201393 L716.63031,60.9201393 C715.472412,60.9201393 714.533691,61.8588333 714.533691,63.0167694 L714.533691,83.1230087 C714.533691,84.2809448 715.472412,85.219635 716.63031,85.219635 Z M708.136231,85.219635 L708.136231,85.219635 C709.294128,85.219635 710.232849,84.2809448 710.232849,83.1230087 L710.232849,63.0167694 C710.232849,61.8588333 709.294129,60.9201393 708.136231,60.9201393 L708.136231,60.9201393 C706.978272,60.9201393 706.039551,61.8588333 706.039551,63.0167694 L706.039551,83.1230087 C706.039551,84.2809448 706.978272,85.219635 708.136231,85.219635 Z M1261.63208,89.3011246 L1261.63208,172.943954 L1225.72986,172.943954 L1207.78845,172.943954 L1190.40088,172.943954 L1184.62671,172.943954 L1107.89722,172.943954 L1048.0946,172.943954 L1032.94165,172.943954 L946.824219,172.943954 L942.842957,172.943954 L882.813965,172.943954 L818.643189,172.943954 L817.005982,172.943954 L651.80835,172.943954 L651.80835,172.943588 L507.938416,172.943588 L506.301209,172.943588 L442.130432,172.943588 L382.101379,172.943588 L378.120117,172.943588 L292.002808,172.943588 L276.849853,172.943588 L217.047318,172.943588 L140.317825,172.943588 L134.543655,172.943588 L117.156021,172.943588 L99.2145538,172.943588 L63.3123932,172.943588 L63.3123932,89.3007584 L117.156021,89.3007584 L117.156021,94.8527604 L131.948502,94.8527604 L134.543655,94.8527604 L139.854996,94.8527604 L139.854996,110.90342 L175.703323,91.1431047 L216.683121,113.731972 L217.047318,113.731972 L217.047318,69.3625259 L273.342773,69.3625259 L273.342773,52.0215836 L282.113037,52.0215836 L282.113037,69.362526 L292.002808,69.362526 L292.002808,95.6864396 L303.880127,95.6864396 L303.880127,80.0124893 L378.120117,105.139503 L378.120117,96.5593643 L387.51001,96.5593643 C387.51001,84.069313 397.635254,73.9441299 410.125305,73.9441299 C422.615417,73.9441299 432.7406,84.069313 432.7406,96.5593643 L442.130432,96.5593643 L442.130432,78.1651382 L506.140686,78.1651382 L506.140686,113.874855 L506.301208,113.831093 L506.665039,113.731972 L589.532288,91.1431045 L638.901977,104.600807 L638.901977,86.4446793 L660.033142,86.4446793 L660.033142,110.361 L662.472839,111.026039 L664.911255,110.361366 L664.911255,86.4450455 L686.042419,86.4450455 L686.042419,104.601234 L735.412109,91.1434708 L818.279358,113.732338 L818.643188,113.83152 L818.803711,113.875221 L818.803711,78.1655045 L882.813965,78.1655045 L882.813965,96.5597916 L892.203796,96.5597916 C892.203796,84.0696793 902.328979,73.9444962 914.819092,73.9444962 C927.309143,73.9444962 937.434387,84.0696793 937.434387,96.5597916 L946.824219,96.5597916 L946.824219,105.13987 L1021.06427,80.0128555 L1021.06427,95.6868057 L1032.94165,95.6868057 L1032.94165,69.3628922 L1042.83142,69.3628922 L1042.83142,52.0219498 L1051.60168,52.0219498 L1051.60168,69.3628922 L1107.89722,69.3628922 L1107.89722,113.732338 L1108.26135,113.732338 L1149.24121,91.1434708 L1185.08936,110.903725 L1185.08936,94.8531265 L1190.40088,94.8531265 L1192.99597,94.8531265 L1207.78845,94.8531265 L1207.78845,89.3011245 L1261.63208,89.3011245 L1261.63208,89.3011246 Z M125.823616,81.6150589 L125.823608,81.6150589 C124.998085,81.6150589 124.328857,80.9458389 124.328857,80.1203079 L124.328857,66.2741776 C124.328857,65.4486542 124.998085,64.7794266 125.823608,64.7794266 L125.823616,64.7794266 C126.649139,64.7794266 127.318359,65.4486542 127.318359,66.2741776 L127.318359,80.120308 C127.318359,80.9458389 126.649139,81.6150589 125.823616,81.6150589 Z M134.193741,81.6150589 L134.193741,81.6150589 C133.36821,81.6150589 132.69899,80.9458389 132.69899,80.1203079 L132.69899,66.2741776 C132.69899,65.4486542 133.36821,64.7794266 134.193741,64.7794266 L134.193741,64.7794266 C135.019272,64.7794266 135.688492,65.4486542 135.688492,66.2741776 L135.688492,80.120308 C135.688492,80.9458389 135.019272,81.6150589 134.193741,81.6150589 Z M335.162842,74.6919937 L329.341156,74.6919937 L329.341156,66.0381698 L335.162842,66.0381698 L335.162842,74.6919937 Z M346.172028,74.6919937 L340.350372,74.6919937 L340.350372,66.0381698 L346.172028,66.0381698 L346.172028,74.6919937 Z M357.181244,74.6919937 L351.359558,74.6919937 L351.359558,66.0381698 L357.181244,66.0381698 L357.181244,74.6919937 Z M368.19043,88.6663208 L362.368774,88.6663208 L362.368774,80.0124893 L368.19043,80.0124893 L368.19043,88.6663208 Z M499.775574,67.8138733 L492.88147,67.8138733 L492.88147,60.9197693 L499.775574,60.9197693 L499.775574,67.8138733 Z M512.614441,67.8138733 L505.720367,67.8138733 L505.720367,60.9197693 L512.614441,60.9197693 L512.614441,67.8138733 Z M525.453369,67.8138733 L518.559265,67.8138733 L518.559265,60.9197693 L525.453369,60.9197693 L525.453369,67.8138733 Z M525.453369,81.5861053 L518.559265,81.5861053 L518.559265,74.6919937 L525.453369,74.6919937 L525.453369,81.5861053 Z M538.292236,81.5861053 L531.398132,81.5861053 L531.398132,74.6919937 L538.292236,74.6919937 L538.292236,81.5861053 Z M608.314087,85.2192688 L608.314087,85.2192688 C607.156128,85.2192688 606.217468,84.2805786 606.217468,83.1226425 L606.217468,63.0163956 C606.217468,61.8584633 607.156128,60.9197693 608.314087,60.9197693 L608.314087,60.9197693 C609.471985,60.9197693 610.410706,61.8584633 610.410706,63.0163956 L610.410706,83.1226425 C610.410706,84.2805786 609.471985,85.2192688 608.314087,85.2192688 Z M616.808228,85.2192688 L616.808228,85.2192688 C615.650269,85.2192688 614.711548,84.2805786 614.711548,83.1226425 L614.711548,63.0163956 C614.711548,61.8584633 615.650269,60.9197693 616.808228,60.9197693 L616.808228,60.9197693 C617.966125,60.9197693 618.904846,61.8584633 618.904846,63.0163956 L618.904846,83.1226425 C618.904846,84.2805786 617.966125,85.2192688 616.808228,85.2192688 Z"/>
    <path fill= "#68dad4" d="M1272.56543,47.7009048 L1266.66211,47.7009048 C1264.5332,47.7009048 1262.80176,45.9689712 1262.80176,43.840065 C1262.80176,42.2629166 1261.51855,40.9797134 1259.94141,40.9797134 L1257.6709,40.9797134 C1255.54199,40.9797134 1253.81055,39.2477798 1253.81055,37.1193618 L1253.81055,36.4958266 C1253.81055,34.9186782 1252.52734,33.635475 1250.9502,33.635475 L1246.55762,33.635475 L1246.55762,32.635475 L1250.9502,32.635475 C1253.0791,32.635475 1254.81055,34.3674086 1254.81055,36.4958266 L1254.81055,37.1193618 C1254.81055,38.6965102 1256.09375,39.9797134 1257.6709,39.9797134 L1259.94141,39.9797134 C1262.07031,39.9797134 1263.80176,41.711647 1263.80176,43.840065 C1263.80176,45.4177017 1265.08496,46.7009048 1266.66211,46.7009048 L1272.56543,46.7009048 L1272.56543,47.7009048 Z M1243.8291,109.399178 L1252.79761,109.399178 L1252.79761,98.5030137 L1243.8291,98.5030137 L1243.8291,109.399178 Z M1230.83777,109.399178 L1239.80627,109.399178 L1239.80627,98.5030137 L1230.83777,98.5030137 L1230.83777,109.399178 Z M1068.96277,91.6561966 C1072.17798,91.6561966 1074.78442,89.0497437 1074.78442,85.8345261 C1074.78442,82.6193085 1072.17798,80.0128632 1068.96277,80.0128632 C1065.74756,80.0128632 1063.14111,82.6193085 1063.14111,85.8345261 C1063.14111,89.0497437 1065.74756,91.6561966 1068.96277,91.6561966 Z M1087.61133,109.022301 C1090.82654,109.022301 1093.43298,106.415855 1093.43298,103.200638 C1093.43298,99.9854202 1090.82654,97.3789673 1087.61133,97.3789673 C1084.39612,97.3789673 1081.78967,99.9854202 1081.78967,103.200638 C1081.78967,106.415855 1084.39612,109.022301 1087.61133,109.022301 Z M1068.96277,109.022301 C1072.17798,109.022301 1074.78442,106.415855 1074.78442,103.200638 C1074.78442,99.9854202 1072.17798,97.3789673 1068.96277,97.3789673 C1065.74756,97.3789673 1063.14111,99.9854202 1063.14111,103.200638 C1063.14111,106.415855 1065.74756,109.022301 1068.96277,109.022301 Z M1157.26721,132.747589 L1163.57996,132.747589 L1163.57996,114.049538 C1163.57996,112.306335 1162.16675,110.893196 1160.42358,110.893196 L1160.42358,110.893196 C1158.68042,110.893196 1157.26721,112.306335 1157.26721,114.049538 L1157.26721,132.747589 L1157.26721,132.747589 Z M1146.16565,132.747589 L1152.47827,132.747589 L1152.47827,114.049538 C1152.47827,112.306335 1151.06519,110.893196 1149.3219,110.893196 L1149.3219,110.893196 C1147.57874,110.893196 1146.16565,112.306335 1146.16565,114.049538 L1146.16565,132.747589 Z M926.835877,131.226608 L929.626831,131.226608 L929.626831,105.078011 L926.835877,105.078011 L926.835877,131.226608 Z M920.02655,131.226608 L922.817505,131.226608 L922.817505,105.078011 L920.02655,105.078011 L920.02655,131.226608 Z M913.217285,131.226608 L916.00824,131.226608 L916.00824,105.078011 L913.217285,105.078011 L913.217285,131.226608 Z M846.112183,105.078011 L854.072571,105.078011 L854.072571,92.7767258 L846.112183,92.7767258 L846.112183,105.078011 Z M860.464844,123.076828 L868.425232,123.076828 L868.425232,110.775536 L860.464844,110.775536 L860.464844,123.076828 Z M846.112183,123.076828 L854.072571,123.076828 L854.072571,110.775536 L846.112183,110.775536 L846.112183,123.076828 Z M58.2826691,47.7004166 L52.3788605,47.7004166 L52.3788605,46.7004166 L58.2826691,46.7004166 C59.8598175,46.7004166 61.1430207,45.4172135 61.1430207,43.840065 C61.1430207,41.711647 62.8749543,39.9797134 65.0033723,39.9797134 L67.27388,39.9797134 C68.8510284,39.9797134 70.1342316,38.6965103 70.1342316,37.1188736 L70.1342316,36.4958267 C70.1342316,34.3669205 71.8661652,32.6349869 73.9945832,32.6349869 L78.386673,32.6349869 L78.386673,33.6349869 L73.9945832,33.6349869 C72.4174348,33.6349869 71.1342316,34.91819 71.1342316,36.4958267 L71.1342316,37.1188736 C71.1342316,39.2477798 69.402298,40.9797134 67.27388,40.9797134 L65.0033722,40.9797134 C63.4262238,40.9797134 62.1430206,42.2629165 62.1430206,43.840065 C62.1430206,45.968483 60.411087,47.7004166 58.2826691,47.7004166 Z M81.1153107,98.5026398 L72.1467972,98.5026398 L72.1467972,109.398804 L81.1153107,109.398804 L81.1153107,98.5026398 Z M94.1066284,98.5026398 L85.1381149,98.5026398 L85.1381149,109.398804 L94.1066284,109.398804 L94.1066284,98.5026398 Z M261.803314,85.8341599 C261.803314,82.6189423 259.196869,80.0124894 255.981659,80.0124894 C252.766434,80.0124894 250.159988,82.6189423 250.159988,85.8341599 C250.159988,89.0493775 252.766434,91.6558228 255.981659,91.6558228 C259.196869,91.6558228 261.803314,89.0493774 261.803314,85.8341599 Z M243.154755,103.200264 C243.154755,99.9850464 240.548309,97.3786011 237.333084,97.3786011 C234.117874,97.3786011 231.511414,99.9850464 231.511414,103.200264 C231.511414,106.415482 234.117874,109.021935 237.333084,109.021935 C240.548309,109.021935 243.154755,106.415482 243.154755,103.200264 Z M261.803314,103.200264 C261.803314,99.9850464 259.196869,97.3786011 255.981659,97.3786011 C252.766434,97.3786011 250.159988,99.9850464 250.159988,103.200264 C250.159988,106.415482 252.766434,109.021935 255.981659,109.021935 C259.196869,109.021935 261.803314,106.415482 261.803314,103.200264 Z M167.67717,114.049171 C167.67717,112.305969 166.264023,110.89283 164.520828,110.89283 L164.520828,110.89283 C162.777618,110.89283 161.364487,112.305969 161.364487,114.049171 L161.364487,132.747223 L167.67717,132.747223 L167.67717,114.049171 L167.67717,114.049171 Z M178.778809,114.049171 C178.778809,112.305969 177.365662,110.89283 175.622467,110.89283 L175.622452,110.89283 C173.879257,110.89283 172.46611,112.305969 172.46611,114.049171 L172.46611,132.747223 L178.778808,132.747223 L178.778808,114.049171 L178.778809,114.049171 Z M398.108551,105.077644 L395.317596,105.077644 L395.317596,131.226242 L398.108551,131.226242 L398.108551,105.077644 Z M404.917847,105.077644 L402.126892,105.077644 L402.126892,131.226242 L404.917847,131.226242 L404.917847,105.077644 Z M411.727142,105.077644 L408.936188,105.077644 L408.936188,131.226242 L411.727142,131.226242 L411.727142,105.077644 Z M478.832245,92.7763519 L470.871857,92.7763519 L470.871857,105.077644 L478.832245,105.077644 L478.832245,92.7763519 Z M464.479584,110.775169 L456.519195,110.775169 L456.519195,123.076454 L464.479584,123.076454 L464.479584,110.775169 Z M478.832245,110.775169 L470.871857,110.775169 L470.871857,123.076454 L478.832245,123.076454 L478.832245,110.775169 Z M737.22937,162.787643 L791.223206,162.787643 L791.223206,159.09079 L737.22937,159.09079 L737.22937,162.787643 Z M587.715027,159.090408 L533.721192,159.090408 L533.721192,162.787262 L587.715027,162.787262 L587.715027,159.090408 Z"/>
    <path fill= "#" d="M31.3532181,172.943619 L27.414526,172.943619 L27.414526,108.903633 L31.3532181,108.903633 L31.3532181,172.943619 Z M56.1106987,130.488754 L52.1720085,130.488754 L52.1720085,172.943619 L56.1106987,172.943619 L56.1106987,130.488754 Z M517.222961,130.488754 L513.284241,130.488754 L513.284241,172.943619 L517.222961,172.943619 L517.222961,130.488754 Z M1293.59119,108.903999 L1297.52991,108.903999 L1297.52991,172.943985 L1293.59119,172.943985 L1293.59119,108.903999 Z M1268.83374,172.943985 L1272.77246,172.943985 L1272.77246,130.48912 L1268.83374,130.48912 L1268.83374,172.943985 Z M807.721497,172.943985 L811.660156,172.943985 L811.660156,130.48912 L807.721497,130.48912 L807.721497,172.943985 Z"/>
    <path fill= "#93ca6f" d="M200.197906,162.293701 L199.651031,162.293701 L199.651031,170.493683 L200.197906,170.493683 L200.197906,162.293701 Z M29.383873,115.093002 C13.224659,115.093002 0.1250286,101.99337 0.1250286,85.8341598 C0.1250286,69.6749496 13.224659,56.5753174 29.383873,56.5753174 C45.543087,56.5753174 58.6427155,69.6749497 58.6427155,85.8341599 C58.6427155,101.99337 45.5430832,115.093002 29.383873,115.093002 Z M72.1467972,133.09845 C72.1467972,123.154312 64.0854874,115.093002 54.1413536,115.093002 C44.1972198,115.093002 36.1359138,123.154312 36.1359138,133.09845 C36.1359138,143.042572 44.1972236,151.103882 54.1413536,151.103882 C64.0854836,151.103882 72.1467972,143.042572 72.1467972,133.09845 Z M536.339111,113.540665 C536.339111,101.895462 526.898804,92.4551544 515.253601,92.4551544 C503.608398,92.4551544 494.168091,101.895462 494.168091,113.540665 C494.168091,125.185867 503.608398,134.626175 515.253601,134.626175 C526.898804,134.626175 536.339111,125.185867 536.339111,113.540665 Z M175.680908,168.61171 C174.51062,167.441406 172.915787,166.960861 171.392395,167.159164 C171.194092,168.682556 171.674652,170.277389 172.84494,171.447678 C174.015228,172.617966 175.610046,173.098526 177.133438,172.900208 C177.331757,171.376816 176.851196,169.781998 175.680908,168.61171 Z M175.807846,172.900207 C177.331238,173.098526 178.926071,172.617966 180.096359,171.447678 C181.266647,170.277389 181.747208,168.682556 181.548889,167.159164 C180.025497,166.960861 178.430679,167.441406 177.260391,168.61171 C176.090103,169.781998 175.609543,171.376816 175.807846,172.900207 Z M176.735382,162.293701 L176.188522,162.293701 L176.188522,170.493683 L176.735382,170.493683 L176.735382,162.293701 Z M187.41217,168.61171 C186.241882,167.441406 184.647049,166.960861 183.123657,167.159164 C182.925354,168.682556 183.405914,170.277389 184.576202,171.447678 C185.74649,172.617966 187.341309,173.098526 188.8647,172.900208 C189.063019,171.376816 188.582458,169.781998 187.41217,168.61171 Z M187.539108,172.900207 C189.0625,173.098526 190.657333,172.617966 191.827621,171.447678 C192.99791,170.277389 193.47847,168.682556 193.280151,167.159164 C191.75676,166.960861 190.161942,167.441406 188.991653,168.61171 C187.821365,169.781998 187.340805,171.376816 187.539108,172.900207 Z M188.466644,162.293701 L187.919769,162.293701 L187.919769,170.493683 L188.466644,170.493683 L188.466644,162.293701 Z M199.143433,168.61171 C197.973144,167.441406 196.378311,166.960861 194.854919,167.159164 C194.656616,168.682556 195.137161,170.277389 196.307465,171.447678 C197.477753,172.617966 199.072571,173.098526 200.595962,172.900208 C200.794281,171.376816 200.313721,169.781998 199.143433,168.61171 Z M199.27037,172.900207 C200.793762,173.098526 202.388596,172.617966 203.558884,171.447678 C204.729172,170.277389 205.209732,168.682556 205.011414,167.159164 C203.488022,166.960861 201.893204,167.441406 200.722916,168.61171 C199.552612,169.781998 199.072067,171.376816 199.27037,172.900207 Z M1266.30176,85.8345261 C1266.30176,69.6753159 1279.40137,56.5756836 1295.56055,56.5756836 C1311.71973,56.5756836 1324.81934,69.6753159 1324.81934,85.8345261 C1324.81934,101.993736 1311.71973,115.093369 1295.56055,115.093369 C1279.40137,115.093369 1266.30176,101.993744 1266.30176,85.8345261 Z M1270.8031,151.104248 C1280.74719,151.104248 1288.80847,143.042938 1288.80847,133.098816 C1288.80847,123.154678 1280.74719,115.093368 1270.8031,115.093368 C1260.85889,115.093368 1252.79761,123.154678 1252.79761,133.098816 C1252.79761,143.042938 1260.85889,151.104248 1270.8031,151.104248 Z M832.781921,171.151032 L832.781921,172.943985 L852.772217,172.943985 L862.340027,172.943985 L884.545532,172.943985 L898.695862,172.943985 L920.02655,172.943985 C920.02655,163.146149 912.083862,155.203461 902.286072,155.203461 C900.378357,155.203461 898.542603,155.508087 896.820496,156.065369 C893.297547,147.908539 885.184021,142.198242 875.73407,142.198242 L875.734009,142.198242 C865.609802,142.198242 857.0224,148.753372 853.968079,157.848633 C852.027588,156.912079 849.859924,156.372009 847.560974,156.372009 C839.398743,156.372009 832.781921,162.9888 832.781921,171.151032 Z M809.690796,134.626541 C821.335998,134.626541 830.776306,125.186241 830.776306,113.541031 C830.776306,101.895821 821.335999,92.4555282 809.690796,92.4555282 C798.045593,92.4555282 788.605286,101.895828 788.605286,113.541031 C788.605286,125.186233 798.045593,134.626541 809.690796,134.626541 Z M1147.81091,172.900574 C1149.33435,173.098892 1150.9292,172.618332 1152.09949,171.448044 C1153.26978,170.277756 1153.75037,168.682922 1153.552,167.159531 C1152.02856,166.961227 1150.43384,167.441788 1149.26355,168.612076 C1148.09326,169.782364 1147.61267,171.377182 1147.81091,172.900574 Z M1147.68408,168.612076 C1146.51379,167.441788 1144.91895,166.961227 1143.39551,167.159531 C1143.19727,168.682922 1143.67773,170.277756 1144.84802,171.448044 C1146.01831,172.618332 1147.61316,173.098892 1149.1366,172.900574 C1149.33484,171.377182 1148.85437,169.782364 1147.68408,168.612076 Z M1148.20898,170.494049 L1148.75586,170.494049 L1148.75586,162.294083 L1148.20898,162.294083 L1148.20898,170.494049 Z M1136.07971,172.900574 C1137.60315,173.098892 1139.19788,172.618332 1140.36816,171.448044 C1141.53845,170.277756 1142.01904,168.682922 1141.8208,167.159531 C1140.29736,166.961227 1138.70251,167.441788 1137.53223,168.612076 C1136.36194,169.782364 1135.88135,171.377182 1136.07971,172.900574 Z M1135.95276,168.612076 C1134.78247,167.441788 1133.18762,166.961227 1131.66431,167.159531 C1131.46594,168.682922 1131.94653,170.277756 1133.11682,171.448044 C1134.28711,172.618332 1135.88196,173.098892 1137.40527,172.900574 C1137.60364,171.377182 1137.12305,169.782364 1135.95276,168.612076 Z M1136.47778,170.494049 L1137.02466,170.494049 L1137.02466,162.294083 L1136.47778,162.294083 L1136.47778,170.494049 Z M1128.63696,171.448044 C1127.80493,172.280136 1126.75757,172.756699 1125.67444,172.895309 C1125.67419,172.897079 1125.67432,172.898788 1125.67407,172.900558 C1125.65112,172.903549 1125.62793,172.903 1125.60486,172.905685 C1125.49597,172.918137 1125.38696,172.924545 1125.27759,172.929977 C1125.18872,172.934616 1125.10022,172.939682 1125.01123,172.939804 C1124.92236,172.939682 1124.83374,172.934616 1124.745,172.929977 C1124.6355,172.924545 1124.52661,172.918137 1124.41772,172.905685 C1124.39478,172.903 1124.37146,172.903549 1124.34851,172.900558 C1124.34827,172.898788 1124.34839,172.897079 1124.34814,172.895309 C1123.26514,172.756699 1122.21765,172.280136 1121.3855,171.448044 C1120.21533,170.277756 1119.73474,168.682907 1119.93311,167.159531 C1121.45642,166.961227 1123.05127,167.441757 1124.22156,168.612045 C1124.41846,168.809006 1124.58862,169.02153 1124.74658,169.240158 L1124.74658,162.294052 L1125.29346,162.294052 L1125.29346,169.215195 C1125.44678,169.005539 1125.61157,168.801559 1125.80103,168.612045 C1126.97131,167.441757 1128.56616,166.961227 1130.0896,167.159531 C1130.28784,168.682907 1129.80737,170.277756 1128.63696,171.448044 Z M477.383423,156.371643 C475.084473,156.371643 472.916809,156.911697 470.976318,157.848267 C467.922028,148.753006 459.334595,142.197876 449.210419,142.197876 L449.210358,142.197876 C439.760376,142.197876 431.646851,147.908173 428.123932,156.064987 C426.401825,155.507721 424.56604,155.203095 422.658356,155.203095 C412.860535,155.203095 404.917847,163.145767 404.917847,172.943619 L426.248566,172.943619 L440.398895,172.943619 L462.604401,172.943619 L472.17218,172.943619 L492.162506,172.943619 L492.162506,171.150665 C492.162506,162.988434 485.545685,156.371643 477.383423,156.371643 Z M713.995422,156.371994 L713.995361,156.371994 C713.418213,156.371994 712.851502,156.413315 712.291626,156.477707 C708.867066,148.101852 700.641785,142.198227 691.033569,142.198227 L691.033508,142.198227 C680.943848,142.198227 672.383667,148.710373 669.302246,157.75737 C667.410034,156.877121 665.30835,156.371628 663.083862,156.371628 C663.044983,156.371628 663.007813,156.378037 662.969055,156.378342 C662.932373,156.378036 662.897278,156.371994 662.860535,156.371994 L662.860474,156.371994 C660.636109,156.371994 658.534485,156.877487 656.642334,157.757675 C653.561157,148.710373 645.000794,142.197861 634.910889,142.197861 L634.910828,142.197861 C625.302613,142.197861 617.077332,148.101486 613.65271,156.477341 C613.092896,156.412949 612.526123,156.371628 611.949036,156.371628 L611.948975,156.371628 C603.786744,156.371628 597.169983,162.988449 597.169983,171.150681 L597.169983,172.943588 L611.949036,172.943588 L626.728089,172.943588 L648.081482,172.943588 L648.081482,172.943954 L668.071717,172.943954 L677.639588,172.943954 L699.216309,172.943954 L713.995362,172.943954 L728.774414,172.943954 L728.774414,171.151047 C728.774414,162.988815 722.157654,156.371994 713.995422,156.371994 Z"/>
    <path fill= "#faad1d" d="M790.782593,9.4220676 L809.058533,4.5756459 L809.058533,14.2684903 L790.782593,9.4220676 Z M1246.55786,33.6927795 L1257.19653,18.0965747 L1246.55786,2.500368 L1235.91919,18.0965747 L1246.55786,33.6927795 Z M1148.48242,165.43396 C1150.53491,165.43396 1152.19885,163.770096 1152.19885,161.717606 C1152.19885,159.665115 1150.53491,158.001251 1148.48242,158.001251 C1146.42993,158.001251 1144.76611,159.665115 1144.76611,161.717606 C1144.76611,163.770096 1146.42993,165.43396 1148.48242,165.43396 Z M515.885925,14.2681217 L515.885925,4.5752769 L534.161804,9.4216996 L515.885925,14.2681217 Z M89.0251617,18.0962048 L78.3864975,2.5 L67.7478333,18.0962048 L78.3864975,33.6924096 L89.0251617,18.0962048 Z M180.178299,161.717239 C180.178299,159.664749 178.514435,158.000885 176.461945,158.000885 C174.40947,158.000885 172.745606,159.664749 172.745606,161.717239 C172.745606,163.769714 174.40947,165.433594 176.461945,165.433594 C178.514435,165.433594 180.178299,163.769714 180.178299,161.717239 Z"/>

    <path fill= "#1ccfc9" d="M737.22937,141.382675 L785.41394,141.382675 L785.41394,159.09079 L737.22937,159.09079 L737.22937,141.382675 Z M787.723633,172.944031 L791.223206,172.944031 L791.223206,159.444977 L787.723633,159.444977 L787.723633,172.944031 Z M737.22937,172.944031 L740.728943,172.944031 L740.728943,159.444977 L737.22937,159.444977 L737.22937,172.944031 Z M1028.43994,119.391701 L966.956177,119.391701 C959.236267,119.391701 952.978027,125.64994 952.978027,133.369858 L952.978027,151.589767 C952.978027,154.690781 954.000244,157.546188 955.708984,159.86467 L947.134766,159.86467 C945.559876,159.86467 944.283142,161.141342 944.283142,162.716232 L944.283142,162.716293 C944.283142,164.291183 945.559876,165.567856 947.134766,165.567856 L966.956177,165.567856 L972.940247,165.567856 L1028.43994,165.567856 C1041.19116,165.567856 1051.52808,155.231003 1051.52808,142.479843 L1051.52808,142.479782 C1051.52808,129.728622 1041.19116,119.391701 1028.43994,119.391701 Z M1125.0199,165.43396 C1127.07239,165.43396 1128.73633,163.770096 1128.73633,161.717606 C1128.73633,159.665115 1127.07239,158.001251 1125.0199,158.001251 C1122.96741,158.001251 1121.30359,159.665115 1121.30359,161.717606 C1121.30359,163.770096 1122.96741,165.43396 1125.0199,165.43396 Z M587.715027,159.090408 L539.530457,159.090408 L539.530457,141.382294 L587.715027,141.382294 L587.715027,159.090408 Z M537.220764,159.444611 L533.721191,159.444611 L533.721191,172.943665 L537.220764,172.943665 L537.220764,159.444611 Z M587.715027,159.444611 L584.215454,159.444611 L584.215454,172.943665 L587.715027,172.943665 L587.715027,159.444611 Z M377.809631,159.864304 L369.235413,159.864304 C370.944153,157.545822 371.96637,154.690414 371.96637,151.589401 L371.96637,133.369492 C371.96637,125.649574 365.70813,119.391335 357.98822,119.391335 L296.504517,119.391335 C283.753296,119.391335 273.416443,129.728256 273.416443,142.479416 L273.416443,142.479477 C273.416443,155.230637 283.753296,165.56749 296.504517,165.56749 L352.00415,165.56749 L357.98822,165.56749 L377.809631,165.56749 C379.384521,165.56749 380.661194,164.290817 380.661194,162.715927 L380.661194,162.715866 C380.661194,161.140976 379.384522,159.864304 377.809631,159.864304 Z M203.640823,161.717239 C203.640823,159.664749 201.976959,158.000885 199.924469,158.000885 C197.871994,158.000885 196.208115,159.664749 196.208115,161.717239 C196.208115,163.769714 197.871994,165.433594 199.924469,165.433594 C201.976959,165.433594 203.640823,163.769714 203.640823,161.717239 Z"/>
    <path fill= "#1d4752" d="M323.141663,165.567505 C323.141663,169.64122 326.444061,172.943619 330.517792,172.943619 C334.591522,172.943619 337.893921,169.64122 337.893921,165.567505 C337.893921,161.493774 334.591522,158.191376 330.517792,158.191376 C326.444061,158.191376 323.141663,161.493774 323.141663,165.567505 Z M994.426636,158.191742 C990.352905,158.191742 987.050476,161.494156 987.050476,165.567871 C987.050476,169.641586 990.352905,172.943985 994.426636,172.943985 C998.500366,172.943985 1001.80273,169.641586 1001.80273,165.567871 C1001.80273,161.494156 998.500366,158.191742 994.426636,158.191742 Z"/>
    <path fill= "#bbede9" d="M875.010315,6.1008539 L926.196411,6.1008539 C930.408996,6.1008539 933.823975,9.5158386 933.823975,13.7284365 L933.823975,13.7284518 C933.823975,17.9410496 937.238953,21.3560353 941.451538,21.3560353 L958.667114,21.3560353 C963.58374,21.3560353 967.569458,25.3417531 967.569458,30.2583848 L967.569458,30.2584039 C967.569458,35.1750375 963.58374,39.1607553 958.667114,39.1607553 L913.156372,39.1607553 C909.861145,39.1607553 907.189819,36.4894372 907.189819,33.1941988 L907.189819,33.1941874 C907.189819,29.898947 904.518494,27.2276289 901.223267,27.2276289 L875.010315,27.2276289 C869.176331,27.2276289 864.446961,22.4982435 864.446961,16.6642515 L864.446961,16.6642305 C864.44696,10.8302383 869.176331,6.1008539 875.010315,6.1008539 Z M1058.86401,38.613781 L1051.56287,38.613781 C1048.70666,38.613781 1046.39124,40.4027367 1046.39124,42.6095238 L1046.39124,42.6095314 C1046.39124,44.8163185 1048.70666,46.6052704 1051.56287,46.6052704 L1080.91956,46.6052704 C1083.77576,46.6052704 1086.09119,44.8163185 1086.09119,42.6095314 L1086.09119,42.6095238 C1086.09119,40.4027367 1088.40649,38.613781 1091.26282,38.613781 L1098.56397,38.613781 C1101.42017,38.613781 1103.7356,36.8248291 1103.7356,34.618042 L1103.7356,34.6180344 C1103.7356,32.4112473 1106.05103,30.6222954 1108.90723,30.6222954 L1116.20837,30.6222954 C1119.06458,30.6222954 1121.38001,28.8333397 1121.38001,26.6265526 L1121.38001,26.626545 C1121.38001,24.4197579 1119.06458,22.6308041 1116.20837,22.6308041 L1086.85168,22.6308041 C1083.99548,22.6308041 1081.68005,24.4197579 1081.68005,26.626545 L1081.68005,26.6265526 C1081.68005,28.8333397 1079.36462,30.6222954 1076.50842,30.6222954 L1069.20728,30.6222954 C1066.35107,30.6222954 1064.03564,32.4112473 1064.03564,34.6180344 L1064.03564,34.618042 C1064.03564,36.8248291 1061.72021,38.613781 1058.86401,38.613781 Z M1182.38049,81.6154327 L1182.38049,81.6154327 C1183.20605,81.6154327 1183.87524,80.9462051 1183.87524,80.1206817 L1183.87524,66.2745514 C1183.87524,65.4490204 1183.20605,64.7798004 1182.38049,64.7798004 L1182.38049,64.7798004 C1181.55505,64.7798004 1180.88574,65.4490204 1180.88574,66.2745514 L1180.88574,80.1206818 C1180.88574,80.9462051 1181.55505,81.6154327 1182.38049,81.6154327 Z M1087.61133,91.6561966 C1090.82654,91.6561966 1093.43298,89.0497437 1093.43298,85.8345261 C1093.43298,82.6193085 1090.82654,80.0128632 1087.61133,80.0128632 C1084.39612,80.0128632 1081.78967,82.6193085 1081.78967,85.8345261 C1081.78967,89.0497437 1084.39612,91.6561966 1087.61133,91.6561966 Z M1050.31421,91.6561966 C1053.52942,91.6561966 1056.13586,89.0497437 1056.13586,85.8345261 C1056.13586,82.6193085 1053.52942,80.0128632 1050.31421,80.0128632 C1047.099,80.0128632 1044.49255,82.6193085 1044.49255,85.8345261 C1044.49255,89.0497437 1047.099,91.6561966 1050.31421,91.6561966 Z M994.28949,141.702209 L1022.02319,141.702209 C1024.35461,141.702209 1026.24451,139.812241 1026.24451,137.48085 L1026.24451,130.522003 C1026.24451,128.190613 1024.35461,126.300659 1022.02319,126.300659 L994.28949,126.300659 C991.958069,126.300659 990.068115,128.190613 990.068115,130.522003 L990.068115,137.48085 C990.068115,139.812241 991.958069,141.702209 994.28949,141.702209 Z M966.830017,141.702209 L982.035828,141.702209 C984.367188,141.702209 986.257141,139.812241 986.257141,137.48085 L986.257141,130.522003 C986.257141,128.190613 984.367187,126.300659 982.035828,126.300659 L966.830017,126.300659 C964.498657,126.300659 962.608704,128.190613 962.608704,130.522003 L962.608704,137.48085 C962.608704,139.812241 964.498657,141.702209 966.830017,141.702209 Z M956.753967,74.6923676 L962.575623,74.6923676 L962.575623,66.0385361 L956.753967,66.0385361 L956.753967,74.6923676 Z M967.763184,88.666687 L973.584839,88.666687 L973.584839,80.0128631 L967.763184,80.0128631 L967.763184,88.666687 Z M1135.06396,132.747589 L1141.37671,132.747589 L1141.37671,114.049538 C1141.37671,112.306335 1139.9635,110.893196 1138.22034,110.893196 L1138.22034,110.893196 C1136.47705,110.893196 1135.06396,112.306335 1135.06396,114.049538 L1135.06396,132.747589 L1135.06396,132.747589 Z M906.407959,131.226608 L909.198914,131.226608 L909.198914,105.078011 L906.407959,105.078011 L906.407959,131.226608 Z M899.598694,131.226608 L902.389648,131.226608 L902.389648,105.078011 L899.598694,105.078011 L899.598694,131.226608 Z M786.652161,67.8142471 L793.546265,67.8142471 L793.546265,60.9201393 L786.652161,60.9201393 L786.652161,67.8142471 Z M773.813232,67.8142471 L780.707336,67.8142471 L780.707336,60.9201393 L773.813232,60.9201393 L773.813232,67.8142471 Z M773.813232,81.5864716 L780.707336,81.5864716 L780.707336,74.6923676 L773.813232,74.6923676 L773.813232,81.5864716 Z M809.941406,49.3482018 C814.009033,49.3482018 817.306457,46.0507432 817.306457,41.98312 C817.306457,37.9154968 814.009033,34.6180382 809.941406,34.6180382 C805.873779,34.6180382 802.576294,37.9154968 802.576294,41.98312 C802.576294,46.0507432 805.873779,49.3482018 809.941406,49.3482018 Z M696.216309,129.694519 L741.23761,129.694519 L741.23761,119.396385 L696.216309,119.396385 L696.216309,129.694519 Z M674.639587,129.565124 L692.34314,129.565124 L692.34314,119.391731 L674.639587,119.391731 L674.639587,129.565124 Z M860.464844,105.078011 L868.425232,105.078011 L868.425232,92.7767258 L860.464844,92.7767258 L860.464844,105.078011 Z M994.426636,167.73085 C995.621216,167.73085 996.5896,166.762451 996.5896,165.567871 C996.5896,164.373291 995.621216,163.404892 994.426636,163.404892 C993.232056,163.404892 992.263672,164.373291 992.263672,165.567871 C992.263672,166.762451 993.232056,167.73085 994.426636,167.73085 Z M460.497467,16.6638622 L460.497467,16.6638832 C460.497467,22.4978752 455.768097,27.2272606 449.934082,27.2272606 L423.72113,27.2272606 C420.425903,27.2272606 417.754578,29.8985787 417.754578,33.1938171 L417.754578,33.1938285 C417.754578,36.489067 415.083282,39.160385 411.788025,39.160385 L366.277283,39.160385 C361.360657,39.160385 357.374939,35.1746672 357.374939,30.2580336 L357.374939,30.2580183 C357.374939,25.3413847 361.360657,21.355665 366.277283,21.355665 L383.492859,21.355665 C387.705444,21.355665 391.120453,17.9406813 391.120453,13.7280834 L391.120453,13.7280681 C391.120453,9.5154703 394.535431,6.1004846 398.748016,6.1004846 L449.934082,6.1004846 C455.768097,6.1004848 460.497467,10.8298702 460.497467,16.6638622 Z M260.908722,34.617672 L260.908722,34.6176644 C260.908722,32.4108773 258.593323,30.6219254 255.737122,30.6219254 L248.435944,30.6219254 C245.579727,30.6219254 243.264313,28.8329716 243.264313,26.6261845 L243.264313,26.6261769 C243.264313,24.4193898 240.948898,22.630436 238.092697,22.630436 L208.736069,22.630436 C205.879867,22.630436 203.564453,24.4193898 203.564453,26.6261769 L203.564453,26.6261845 C203.564453,28.8329716 205.879867,30.6219254 208.736069,30.6219254 L216.037231,30.6219254 C218.893448,30.6219254 221.208862,32.4108773 221.208862,34.6176644 L221.208862,34.617672 C221.208862,36.8244591 223.524277,38.6134148 226.380493,38.6134148 L233.681656,38.6134148 C236.537857,38.6134148 238.853271,40.4023667 238.853271,42.6091538 L238.853271,42.6091614 C238.853271,44.8159485 241.168686,46.6049042 244.024902,46.6049042 L273.381531,46.6049042 C276.237732,46.6049042 278.553162,44.8159485 278.553162,42.6091614 L278.553162,42.6091538 C278.553162,40.4023667 276.237732,38.6134148 273.381531,38.6134148 L266.080353,38.6134148 C263.224152,38.6134148 260.908722,36.8244591 260.908722,34.617672 Z M144.058639,80.1203079 L144.058639,66.2741776 C144.058639,65.4486542 143.389404,64.7794266 142.563888,64.7794266 L142.563873,64.7794266 C141.738357,64.7794266 141.069122,65.4486542 141.069122,66.2741776 L141.069122,80.120308 C141.069122,80.945839 141.738357,81.615059 142.563873,81.615059 L142.563888,81.615059 C143.389404,81.6150589 144.058639,80.9458389 144.058639,80.1203079 Z M243.154755,85.8341599 C243.154755,82.6189423 240.548309,80.0124894 237.333084,80.0124894 C234.117874,80.0124894 231.511414,82.6189423 231.511414,85.8341599 C231.511414,89.0493775 234.117874,91.6558228 237.333084,91.6558228 C240.548309,91.6558228 243.154755,89.0493774 243.154755,85.8341599 Z M280.451904,85.8341599 C280.451904,82.6189423 277.845428,80.0124894 274.630218,80.0124894 C271.415008,80.0124894 268.808563,82.6189423 268.808563,85.8341599 C268.808563,89.0493775 271.415008,91.6558228 274.630218,91.6558228 C277.845428,91.6558228 280.451904,89.0493774 280.451904,85.8341599 Z M334.876282,137.480484 L334.876282,130.521637 C334.876282,128.190247 332.986328,126.300278 330.654938,126.300278 L302.921204,126.300278 C300.589813,126.300278 298.699829,128.190247 298.699829,130.521637 L298.699829,137.480484 C298.699829,139.811874 300.589813,141.701843 302.921204,141.701843 L330.654938,141.701843 C332.986328,141.701843 334.876282,139.811874 334.876282,137.480484 Z M362.335724,137.480484 L362.335724,130.521637 C362.335724,128.190247 360.44577,126.300278 358.11438,126.300278 L342.9086,126.300278 C340.577209,126.300278 338.687256,128.190247 338.687256,130.521637 L338.687256,137.480484 C338.687256,139.811874 340.577209,141.701843 342.9086,141.701843 L358.11438,141.701843 C360.44577,141.701843 362.335724,139.811874 362.335724,137.480484 Z M368.19043,66.0381699 L362.368774,66.0381699 L362.368774,74.6919938 L368.19043,74.6919938 L368.19043,66.0381699 Z M357.181244,80.0124893 L351.359558,80.0124893 L351.359558,88.6663208 L357.181244,88.6663208 L357.181244,80.0124893 Z M189.880447,114.049171 C189.880447,112.305969 188.4673,110.89283 186.724106,110.89283 L186.72409,110.89283 C184.980896,110.89283 183.567749,112.305969 183.567749,114.049171 L183.567749,132.747223 L189.880447,132.747223 L189.880447,114.049171 L189.880447,114.049171 Z M418.536438,105.077644 L415.745483,105.077644 L415.745483,131.226242 L418.536438,131.226242 L418.536438,105.077644 Z M425.345734,105.077644 L422.554779,105.077644 L422.554779,131.226242 L425.345734,131.226242 L425.345734,105.077644 Z M538.292236,60.9197693 L531.398132,60.9197693 L531.398132,67.8138733 L538.292236,67.8138733 L538.292236,60.9197693 Z M551.131165,60.9197693 L544.237061,60.9197693 L544.237061,67.8138733 L551.131165,67.8138733 L551.131165,60.9197693 Z M551.131165,74.6919937 L544.237061,74.6919937 L544.237061,81.5861053 L551.131165,81.5861053 L551.131165,74.6919937 Z M522.368103,41.9827538 C522.368103,37.9151307 519.070618,34.6176682 515.002991,34.6176682 C510.935364,34.6176682 507.637909,37.9151307 507.637909,41.9827538 C507.637909,46.0503769 510.935364,49.3478356 515.002991,49.3478356 C519.070618,49.3478356 522.368103,46.0503731 522.368103,41.9827538 Z M628.728088,119.396011 L583.706787,119.396011 L583.706787,129.694138 L628.728088,129.694138 L628.728088,119.396011 Z M650.30481,119.391365 L632.601257,119.391365 L632.601257,129.564758 L650.30481,129.564758 L650.30481,119.391365 Z M464.479584,92.7763519 L456.519195,92.7763519 L456.519195,105.077644 L464.479584,105.077644 L464.479584,92.7763519 Z M332.680756,165.567505 C332.680756,164.372925 331.712372,163.404526 330.517792,163.404526 C329.323212,163.404526 328.354828,164.372925 328.354828,165.567505 C328.354828,166.762085 329.323212,167.730469 330.517792,167.730469 C331.712372,167.730469 332.680756,166.762085 332.680756,165.567505 Z M243.094681,144.734116 L242.968704,144.249741 C242.803665,144.292709 226.209427,148.522201 203.227493,147.260483 C182.026321,146.091537 150.89595,139.867905 122.990677,116.854225 C102.489212,99.9469986 91.4657746,77.3669205 85.8280792,61.4020768 C79.7167511,44.0949479 78.4413604,30.6139909 78.4291534,30.4802018 L77.9311065,30.5251237 C77.9433135,30.6598893 79.2221221,44.1911393 85.3520049,61.5553971 C91.010208,77.5837174 102.078079,100.255592 122.672317,117.239967 C150.688431,140.344467 181.936966,146.589584 203.217728,147.760483 C206.209427,147.924545 209.089798,147.996811 211.844192,147.996811 C230.314896,147.996811 242.950638,144.771225 243.094681,144.734116 Z M1121.72656,147.760483 C1143.00684,146.590561 1174.25586,140.345444 1202.27148,117.239967 C1222.86621,100.256569 1233.93359,77.584694 1239.59277,61.5553971 C1245.72266,44.1921159 1247.00098,30.6603776 1247.01367,30.5256119 L1246.51562,30.48069 C1246.50391,30.6144791 1245.22754,44.0954361 1239.11621,61.4030533 C1233.47852,77.3678971 1222.45508,99.9469986 1201.95312,116.855202 C1174.04785,139.867905 1142.91797,146.091537 1121.7168,147.260483 C1098.73047,148.528061 1082.13965,144.292709 1081.97461,144.249741 L1081.84863,144.734116 C1081.99316,144.771225 1094.62598,147.996811 1113.10059,147.996811 C1115.85254,147.996811 1118.7373,147.925522 1121.72656,147.760483 Z"/>
    <path fill= "#ff7775" d="M16.9668541,74.8798828 C15.6578999,74.8798828 14.5967827,73.8187637 14.5967827,72.5098114 C14.5967827,71.2008514 15.6578999,70.13974 16.9668541,70.13974 C18.2758083,70.13974 19.3369255,71.2008515 19.3369255,72.5098114 C19.3369255,73.8187637 18.2758083,74.8798828 16.9668541,74.8798828 Z M14.5967827,78.7678223 C14.5967827,77.4588623 13.5356655,76.3977509 12.2267113,76.3977509 C10.9177571,76.3977509 9.8566399,77.4588624 9.8566399,78.7678223 C9.8566399,80.0767746 10.9177571,81.1378937 12.2267113,81.1378937 C13.5356655,81.1378937 14.5967827,80.0767746 14.5967827,78.7678223 Z M23.096468,84.3720093 C23.096468,83.063057 22.0353508,82.0019379 20.7263966,82.0019379 C19.4174424,82.0019379 18.3563252,83.063057 18.3563252,84.3720093 C18.3563252,85.6809616 19.4174424,86.7420807 20.7263966,86.7420807 C22.0353508,86.7420807 23.096468,85.6809616 23.096468,84.3720093 Z M49.9031715,97.4484482 C49.9031715,96.1394959 48.8420562,95.0783768 47.5331001,95.0783768 C46.2241478,95.0783768 45.1630287,96.1394959 45.1630287,97.4484482 C45.1630287,98.7574005 46.2241478,99.8185196 47.5331001,99.8185196 C48.8420563,99.8185196 49.9031715,98.7574005 49.9031715,97.4484482 Z M43.8319664,102.188591 C43.8319664,100.879639 42.7708511,99.8185196 41.461895,99.8185196 C40.1529427,99.8185196 39.0918274,100.879639 39.0918274,102.188591 C39.0918274,103.497543 40.1529427,104.558662 41.461895,104.558662 C42.7708511,104.558662 43.8319664,103.497543 43.8319664,102.188591 Z M50.2767868,130.488754 C50.2767868,129.179794 49.2156677,128.118683 47.9067154,128.118683 C46.5977593,128.118683 45.536644,129.179794 45.536644,130.488754 C45.536644,131.797714 46.5977593,132.858826 47.9067154,132.858826 C49.2156677,132.858826 50.2767868,131.797714 50.2767868,130.488754 Z M56.1106987,126.439712 C56.1106987,125.130752 55.0495834,124.069641 53.7406273,124.069641 C52.431675,124.069641 51.3705559,125.130753 51.3705559,126.439712 C51.3705559,127.748657 52.431675,128.809784 53.7406273,128.809784 C55.0495834,128.809784 56.1106987,127.748657 56.1106987,126.439712 Z M458.226349,153.011185 C458.226349,151.702225 457.165222,150.641113 455.856262,150.641113 C454.547302,150.641113 453.486206,151.702225 453.486206,153.011185 C453.486206,154.320129 454.547302,155.381256 455.856262,155.381256 C457.165222,155.381256 458.226349,154.320129 458.226349,153.011185 Z M451.968323,158.191376 C451.968323,156.882431 450.907196,155.821304 449.598267,155.821304 C448.289307,155.821304 447.22818,156.882431 447.22818,158.191376 C447.22818,159.500336 448.289307,160.561447 449.598267,160.561447 C450.907196,160.561447 451.968323,159.500336 451.968323,158.191376 Z M461.259338,161.460495 C461.259338,160.151535 460.198242,159.090424 458.889282,159.090424 C457.580322,159.090424 456.519196,160.151535 456.519196,161.460495 C456.519196,162.76944 457.580322,163.830566 458.889282,163.830566 C460.198242,163.830566 461.259338,162.76944 461.259338,161.460495 Z M508.614746,107.447716 C508.614746,106.138763 507.553619,105.077644 506.244659,105.077644 C504.93573,105.077644 503.874603,106.138763 503.874603,107.447716 C503.874603,108.756668 504.93573,109.817787 506.244659,109.817787 C507.553619,109.817787 508.614746,108.756668 508.614746,107.447716 Z M514.312317,102.707573 C514.312317,101.398621 513.251221,100.337501 511.942261,100.337501 C510.633301,100.337501 509.572205,101.398621 509.572205,102.707573 C509.572205,104.016525 510.633301,105.077644 511.942261,105.077644 C513.251221,105.077644 514.312317,104.016525 514.312317,102.707573 Z M527.855774,119.396011 C527.855774,118.087059 526.794678,117.02594 525.485718,117.02594 C524.176758,117.02594 523.115661,118.087059 523.115661,119.396011 C523.115661,120.704971 524.176758,121.766083 525.485718,121.766083 C526.794678,121.766083 527.855774,120.704971 527.855774,119.396011 Z M191.909561,161.717239 C191.909561,159.664749 190.245697,158.000885 188.193207,158.000885 C186.140732,158.000885 184.476868,159.664749 184.476868,161.717239 C184.476868,163.769714 186.140732,165.433594 188.193207,165.433594 C190.245697,165.433594 191.909561,163.769714 191.909561,161.717239 Z M1305.60754,72.5101776 C1305.60754,71.2012253 1306.66858,70.1401062 1307.97754,70.1401062 C1309.2865,70.1401062 1310.34766,71.2012253 1310.34766,72.5101776 C1310.34766,73.8191299 1309.2865,74.880249 1307.97754,74.880249 C1306.66858,74.880249 1305.60754,73.8191299 1305.60754,72.5101776 Z M1312.71765,81.1382599 C1314.02661,81.1382599 1315.08777,80.0771408 1315.08777,78.7681885 C1315.08777,77.4592362 1314.02661,76.3981171 1312.71765,76.3981171 C1311.40869,76.3981171 1310.34766,77.4592362 1310.34766,78.7681885 C1310.34766,80.0771408 1311.40869,81.1382599 1312.71765,81.1382599 Z M1304.21802,86.7424469 C1305.52698,86.7424469 1306.58813,85.6813354 1306.58813,84.3723755 C1306.58813,83.0634232 1305.52698,82.0023041 1304.21802,82.0023041 C1302.90906,82.0023041 1301.8479,83.0634232 1301.8479,84.3723755 C1301.8479,85.6813354 1302.90906,86.7424469 1304.21802,86.7424469 Z M1277.41125,99.8188934 C1278.72021,99.8188934 1279.78137,98.7577743 1279.78137,97.448822 C1279.78137,96.139862 1278.72021,95.0787506 1277.41125,95.0787506 C1276.10242,95.0787506 1275.04126,96.1398621 1275.04126,97.448822 C1275.04126,98.7577744 1276.10242,99.8188934 1277.41125,99.8188934 Z M1283.48254,104.559029 C1284.7915,104.559029 1285.85254,103.497917 1285.85254,102.188957 C1285.85254,100.880005 1284.7915,99.8188858 1283.48254,99.8188858 C1282.17358,99.8188858 1281.11243,100.880005 1281.11243,102.188957 C1281.11243,103.497917 1282.17358,104.559029 1283.48254,104.559029 Z M1277.03772,132.859192 C1278.34668,132.859192 1279.40771,131.79808 1279.40771,130.48912 C1279.40771,129.180161 1278.34668,128.119049 1277.03772,128.119049 C1275.72876,128.119049 1274.6676,129.180161 1274.6676,130.48912 C1274.6676,131.79808 1275.72876,132.859192 1277.03772,132.859192 Z M1271.20374,128.81015 C1272.5127,128.81015 1273.57385,127.749039 1273.57385,126.440079 C1273.57385,125.131126 1272.5127,124.070007 1271.20374,124.070007 C1269.89478,124.070007 1268.83374,125.131126 1268.83374,126.440079 C1268.83374,127.749039 1269.89478,128.81015 1271.20374,128.81015 Z M869.088135,155.381622 C870.397095,155.381622 871.458191,154.320496 871.458191,153.011551 C871.458191,151.702591 870.397095,150.641479 869.088135,150.641479 C867.779175,150.641479 866.718079,151.702591 866.718079,153.011551 C866.718079,154.320496 867.779175,155.381622 869.088135,155.381622 Z M875.34613,160.561813 C876.65509,160.561813 877.716248,159.500702 877.716248,158.191742 C877.716248,156.882797 876.65509,155.821671 875.34613,155.821671 C874.037232,155.821671 872.976074,156.882797 872.976074,158.191742 C872.976074,159.500702 874.037231,160.561813 875.34613,160.561813 Z M866.055115,163.830933 C867.364075,163.830933 868.425232,162.769806 868.425232,161.460861 C868.425232,160.151901 867.364075,159.09079 866.055115,159.09079 C864.746155,159.09079 863.685058,160.151901 863.685058,161.460861 C863.685059,162.769806 864.746155,163.830933 866.055115,163.830933 Z M818.699768,109.818153 C820.008667,109.818153 821.069824,108.757034 821.069824,107.448082 C821.069824,106.13913 820.008667,105.078011 818.699768,105.078011 C817.390808,105.078011 816.329651,106.13913 816.329651,107.448082 C816.329651,108.757034 817.390808,109.818153 818.699768,109.818153 Z M813.002136,105.078011 C814.311096,105.078011 815.372192,104.016899 815.372192,102.707939 C815.372192,101.398987 814.311096,100.337868 813.002136,100.337868 C811.693176,100.337868 810.63208,101.398987 810.63208,102.707939 C810.63208,104.016899 811.693176,105.078011 813.002136,105.078011 Z M799.458679,121.766457 C800.767639,121.766457 801.828735,120.705337 801.828735,119.396385 C801.828735,118.087433 800.767639,117.026314 799.458679,117.026314 C798.149719,117.026314 797.088623,118.087433 797.088623,119.396385 C797.088623,120.705337 798.149719,121.766457 799.458679,121.766457 Z M1136.75122,165.43396 C1138.80371,165.43396 1140.46753,163.770096 1140.46753,161.717606 C1140.46753,159.665115 1138.80371,158.001251 1136.75122,158.001251 C1134.69873,158.001251 1133.03479,159.665115 1133.03479,161.717606 C1133.03479,163.770096 1134.69873,165.43396 1136.75122,165.43396 Z M673.518738,156.212082 C673.518738,154.903122 674.579895,153.84201 675.888794,153.84201 C677.197754,153.84201 678.258911,154.903122 678.258911,156.212082 C678.258911,157.521027 677.197754,158.582153 675.888794,158.582153 C674.579895,158.582153 673.518738,157.521027 673.518738,156.212082 Z M712.602905,168.564575 C713.911865,168.564575 714.972962,167.503464 714.972962,166.194504 C714.972962,164.885559 713.911865,163.824432 712.602905,163.824432 C711.293945,163.824432 710.232849,164.885559 710.232849,166.194504 C710.232849,167.503464 711.293945,168.564575 712.602905,168.564575 Z M682.463928,153.255417 C683.772888,153.255417 684.833984,152.194305 684.833984,150.885345 C684.833984,149.576401 683.772888,148.515274 682.463928,148.515274 C681.154968,148.515274 680.093872,149.576401 680.093872,150.885345 C680.093872,152.194305 681.154968,153.255417 682.463928,153.255417 Z M649.055603,158.581787 C647.746643,158.581787 646.685547,157.52066 646.685547,156.211716 C646.685547,154.902756 647.746643,153.841644 649.055603,153.841644 C650.364563,153.841644 651.425659,154.902756 651.425659,156.211716 C651.425659,157.52066 650.364563,158.581787 649.055603,158.581787 Z M614.711548,166.194138 C614.711548,164.885178 613.650452,163.824066 612.341492,163.824066 C611.032532,163.824066 609.971436,164.885178 609.971436,166.194138 C609.971436,167.503097 611.032532,168.564209 612.341492,168.564209 C613.650452,168.564209 614.711548,167.503097 614.711548,166.194138 Z M644.850525,150.884979 C644.850525,149.576034 643.789429,148.514908 642.480469,148.514908 C641.171509,148.514908 640.110412,149.576034 640.110412,150.884979 C640.110412,152.193939 641.171509,153.255051 642.480469,153.255051 C643.789429,153.255051 644.850525,152.193939 644.850525,150.884979 Z"/>
    <path fill= "#ffffff" d="M1146.41272,161.717606 C1146.41272,160.574509 1147.33936,159.647842 1148.48242,159.647842 C1149.62561,159.647842 1150.55225,160.574509 1150.55225,161.717606 C1150.55225,162.860703 1149.62561,163.787369 1148.48242,163.787369 C1147.33936,163.787369 1146.41272,162.860703 1146.41272,161.717606 Z M1136.75122,163.787369 C1137.89429,163.787369 1138.82092,162.860703 1138.82092,161.717606 C1138.82092,160.574509 1137.89429,159.647842 1136.75122,159.647842 C1135.60815,159.647842 1134.6814,160.574509 1134.6814,161.717606 C1134.6814,162.860703 1135.60815,163.787369 1136.75122,163.787369 Z M1125.0199,163.787369 C1126.16309,163.787369 1127.08972,162.860703 1127.08972,161.717606 C1127.08972,160.574509 1126.16309,159.647842 1125.0199,159.647842 C1123.87683,159.647842 1122.9502,160.574509 1122.9502,161.717606 C1122.9502,162.860703 1123.87683,163.787369 1125.0199,163.787369 Z M176.461945,163.787003 C175.318848,163.787003 174.392181,162.860336 174.392181,161.717239 C174.392181,160.574142 175.318848,159.647461 176.461945,159.647461 C177.605057,159.647461 178.531723,160.574143 178.531723,161.717239 C178.531723,162.860336 177.605057,163.787003 176.461945,163.787003 Z M190.262985,161.717239 C190.262985,160.574143 189.336319,159.647461 188.193207,159.647461 C187.05011,159.647461 186.123444,160.574143 186.123444,161.717239 C186.123444,162.860336 187.05011,163.787003 188.193207,163.787003 C189.336319,163.787003 190.262985,162.860336 190.262985,161.717239 Z M201.994247,161.717239 C201.994247,160.574143 201.067566,159.647461 199.924469,159.647461 C198.781372,159.647461 197.854706,160.574143 197.854706,161.717239 C197.854706,162.860336 198.781372,163.787003 199.924469,163.787003 C201.067566,163.787003 201.994247,162.860336 201.994247,161.717239 Z"/>
    <path fill= "#faad1d" d="M1069.99963,144.796783 C1069.99963,144.796783 1068.77454,144.846664 1068.12085,143.81575 C1067.46729,142.784851 1069.29529,142.404663 1069.29529,142.404663 L1070.73853,143.190384 L1069.99963,144.796783 Z M254.944763,144.796417 C254.944763,144.796417 256.169891,144.846298 256.823517,143.815384 C257.477142,142.784485 255.649109,142.404282 255.649109,142.404282 L254.205933,143.190018 L254.944763,144.796417 Z"/>
    <path fill= "#1d4752" d="M1071.8938,170.750473 L1074.52258,170.750473 L1074.52258,172.935349 L1068.30786,172.935349 C1068.30786,172.935349 1068.95142,171.331223 1071.8938,170.750473 Z M1096.02466,162.18779 L1096.02466,164.816635 C1096.60522,167.759018 1098.20947,168.402512 1098.20947,168.402512 L1098.20947,162.18779 L1096.02466,162.18779 Z M1077.91187,142.57579 L1085.15491,138.567184 C1084.11572,137.01915 1082.34888,136.079575 1080.43188,136.268051 C1077.57227,136.549301 1075.4696,139.227341 1075.73572,142.249619 L1075.74194,142.319809 L1077.91187,142.57579 Z M1078.23706,145.73967 L1077.09119,145.470932 L1077.36353,143.740524 L1070.32471,143.124252 L1069.99976,144.796799 L1076.1438,146.885117 L1076.71216,153.341965 L1086.12915,150.845261 L1086.09839,142.952683 L1078.23706,145.73967 Z M254.944763,144.796433 L254.619751,143.123886 L247.581009,143.740158 L247.853287,145.470566 L246.707474,145.739304 L238.845962,142.952316 L238.815262,150.844894 L248.232254,153.341599 L248.800674,146.88475 L254.944763,144.796433 Z M247.032547,142.575424 L239.789505,138.566818 C240.828751,137.018784 242.595596,136.079208 244.512527,136.267685 C247.372208,136.548935 249.474808,139.226975 249.208755,142.249252 L249.202591,142.319443 L247.032547,142.575424 Z M256.636597,172.934982 L250.42189,172.934982 L250.42189,170.750107 L253.050735,170.750107 C255.993103,171.330856 256.636597,172.934982 256.636597,172.934982 Z M226.735062,162.187424 L228.919876,162.187424 L228.919876,164.816269 C228.339188,167.758652 226.735062,168.402145 226.735062,168.402145 L226.735062,162.187424 Z"/>
    <path fill= "#bbede9" d="M1065.37,141.166016 C1065.37,139.646698 1066.60156,138.41507 1068.12085,138.41507 C1069.64026,138.41507 1070.87183,139.646698 1070.87183,141.166016 C1070.87183,142.685318 1069.64026,143.916946 1068.12085,143.916946 C1066.60156,143.916946 1065.37,142.685318 1065.37,141.166016 Z M259.574463,141.165634 C259.574463,139.646332 258.342804,138.414703 256.823517,138.414703 C255.304199,138.414703 254.072571,139.646332 254.072571,141.165634 C254.072571,142.684937 255.304199,143.91658 256.823517,143.91658 C258.342804,143.91658 259.574463,142.684936 259.574463,141.165634 Z"/>
    <path fill= "#68dad4" d="M1070.86047,141.743851 L1077.91187,142.575836 L1085.15491,138.567215 C1085.66602,139.328674 1086.00403,140.234909 1086.09167,141.231323 L1086.09839,142.952683 L1078.23694,145.7397 L1070.49402,143.923721 L1070.86047,141.743851 Z M254.083984,141.743485 L247.032532,142.575455 L239.789536,138.566849 C239.278381,139.328308 238.940415,140.234543 238.852692,141.230957 L238.845993,142.952316 L246.707474,145.739334 L254.450348,143.923355 L254.083984,141.743485 Z"/>
    <path fill= "#faad1d" d="M1071.27502,142.328506 C1071.76807,145.355774 1068.83472,143.246323 1068.34778,142.546585 C1067.86084,141.846847 1066.48743,141.729309 1066.48743,141.729309 L1066.51196,141.402832 C1067.47437,141.395691 1068.26782,141.638382 1068.26782,141.638382 C1067.72974,141.159775 1066.28528,140.979248 1066.28528,140.979248 L1066.32812,140.659271 C1067.41296,140.703705 1068.49768,141.093582 1068.49768,141.093582 C1067.76379,140.407852 1066.25684,140.17067 1066.25684,140.17067 L1066.31616,139.831161 C1067.77576,139.962616 1068.99084,140.76947 1068.99084,140.76947 C1068.44373,139.988449 1067.17969,139.62616 1067.17969,139.62616 L1067.28418,139.307312 C1070.1521,140.001068 1071.09595,142.153458 1071.09595,142.153458 L1071.27502,142.328506 Z M1076.71216,153.341965 L1071.26318,161.312195 L1071.87915,170.750503 L1074.52246,170.750503 L1074.37842,163.19783 L1080.04504,157.51474 C1080.46643,157.182144 1081.07214,157.415771 1081.19177,157.956985 L1082.68567,163.622223 L1096.02454,164.81665 L1096.02454,162.191055 L1086.93811,160.510254 L1086.12915,150.845261 L1076.71216,153.341965 Z M1080.32458,135.330246 L1080.32458,135.330246 C1082.31641,135.199432 1083.82495,133.478729 1083.69421,131.486938 L1083.60889,130.188446 C1083.47803,128.196671 1081.75732,126.688065 1079.76563,126.818878 L1079.76563,126.818878 C1077.7738,126.949692 1076.26526,128.67041 1076.396,130.662186 L1076.48132,131.960678 C1076.61218,133.952454 1078.33289,135.46106 1080.32458,135.330246 Z M248.232239,153.341583 L253.681213,161.311829 L253.065201,170.750137 L250.421906,170.750137 L250.565979,163.197464 L244.899307,157.514374 C244.478027,157.181763 243.872238,157.415405 243.752686,157.956619 L242.258713,163.621842 L228.919891,164.816284 L228.919891,162.190689 L238.006332,160.509888 L238.815292,150.844894 L248.232239,153.341583 Z M253.669342,142.32814 C253.1763,145.355408 256.109741,143.245941 256.596619,142.546219 C257.083527,141.846481 258.45694,141.728943 258.45694,141.728943 L258.432465,141.402451 C257.470062,141.395325 256.676575,141.638 256.676575,141.638 C257.214661,141.159409 258.659149,140.978882 258.659149,140.978882 L258.616302,140.658905 C257.531494,140.703339 256.446777,141.093201 256.446777,141.093201 C257.180664,140.407486 258.687592,140.170303 258.687592,140.170303 L258.628204,139.830795 C257.168671,139.96225 255.953583,140.769104 255.953583,140.769104 C256.500671,139.988083 257.76477,139.625793 257.76477,139.625793 L257.660248,139.306946 C254.792267,140.000702 253.848465,142.153091 253.848465,142.153091 L253.669342,142.32814 Z M248.463104,131.960312 L248.548386,130.661819 C248.679215,128.670029 247.170609,126.949326 245.178818,126.818512 L245.178818,126.818512 C243.187042,126.687698 241.466339,128.196304 241.33551,130.18808 L241.250229,131.486572 C241.119415,133.478363 242.628021,135.199066 244.619797,135.32988 L244.619812,135.32988 C246.611588,135.460693 248.332291,133.952087 248.463104,131.960312 Z"/>
    <path fill= "#bbede9" d="M1076.74902,133.064682 C1076.60986,132.718613 1076.50708,132.353073 1076.48132,131.960678 L1076.396,130.662155 C1076.31592,129.441147 1076.85571,128.326157 1077.74146,127.612717 L1078.89844,127.612717 L1078.89844,129.758347 C1078.89844,131.233993 1078.01392,132.498154 1076.74902,133.064682 Z M246.046036,129.75798 C246.046036,131.233566 246.930618,132.497787 248.19545,133.064316 C248.334549,132.718307 248.437332,132.352707 248.463089,131.960312 L248.548416,130.661789 C248.628616,129.440781 248.08876,128.32579 247.203079,127.61235 L246.046036,127.61235 L246.046036,129.75798 Z"/>
    <path fill= "#1d4752" d="M1076.23035,129.214569 C1076.02832,127.167816 1077.52368,125.344696 1079.57056,125.142593 C1081.61731,124.940491 1083.44043,126.435928 1083.64246,128.482697 L1083.70203,129.08635 L1073.42419,130.101196 L1073.36462,129.497543 L1076.23035,129.214569 Z M1082.95703,131.679428 L1082.11328,130.219467 L1081.67969,130.469467 L1082.52344,131.929428 L1082.95703,131.679428 Z M1081.99902,133.694077 C1082.20703,133.610092 1082.38672,133.481186 1082.53223,133.312241 L1082.15332,132.986069 C1082.06055,133.094467 1081.94531,133.176498 1081.81152,133.230209 C1081.35645,133.41478 1080.83887,133.1931 1080.65527,132.738998 L1080.19238,132.926498 C1080.33105,133.270248 1080.5957,133.53978 1080.93652,133.684311 C1081.11133,133.75853 1081.29492,133.795639 1081.47852,133.795639 C1081.6543,133.795639 1081.83105,133.761459 1081.99902,133.694077 Z M251.579834,129.497177 L251.520203,130.10083 L241.242355,129.085968 L241.301926,128.48233 C241.504028,126.435562 243.327103,124.940117 245.373917,125.14222 C247.420731,125.344322 248.916123,127.16745 248.71402,129.214203 L251.579834,129.497177 Z M243.264603,130.469467 L242.831986,130.219467 L241.988236,131.679428 L242.420853,131.929428 L243.264603,130.469467 Z M244.752884,132.925522 L244.289017,132.738022 C244.105423,133.192124 243.584915,133.412827 243.132767,133.229233 C243.001419,133.176498 242.883743,133.092514 242.791946,132.985092 L242.412064,133.311264 C242.556107,133.478256 242.740677,133.611069 242.945755,133.6931 C243.115677,133.762436 243.29097,133.794663 243.463333,133.794663 C244.013138,133.794663 244.534622,133.465561 244.752884,132.925522 Z"/>
    <path fill= "#1d4752" d="M1227.57581,125.179871 L1232.06091,136.482498 L1227.55994,142.250336 L1227.57581,125.179871 Z M1213.14062,125.179871 L1208.65552,136.482498 L1213.15662,142.250336 L1213.14062,125.179871 Z M1212.67249,142.847702 L1215.15698,169.967926 L1219.02332,169.967926 L1220.03687,150.485992 C1220.0564,150.109009 1220.61255,150.10791 1220.63367,150.484802 L1221.72522,169.967926 L1225.49133,169.967926 L1227.97595,142.847702 L1212.67249,142.847702 L1212.67249,142.847702 Z M97.3845367,142.249969 L92.8835067,136.482132 L97.3685607,125.179497 L97.3845367,142.249969 Z M111.787834,142.249969 L116.288864,136.482132 L111.803803,125.179497 L111.787834,142.249969 Z M96.9684219,142.847321 L99.4530258,169.967545 L103.219215,169.967545 L104.310791,150.484436 C104.331902,150.107529 104.887962,150.108643 104.907577,150.485626 L105.921112,169.967545 L109.787376,169.967545 L112.27198,142.847321 L96.9684219,142.847321 L96.9684219,142.847321 Z"/>

    <path fill= "#68dad4" d="M1220.35828,121.076698 C1224.99854,121.076698 1228.76013,124.838371 1228.76013,129.478622 L1227.97595,142.847702 L1212.74048,142.847702 L1211.9563,129.478622 C1211.9563,124.838371 1215.71802,121.076698 1220.35828,121.076698 Z M104.586182,121.076324 C99.9459304,121.076324 96.1842575,124.838005 96.1842575,129.478256 L96.9684143,142.847321 L112.203957,142.847321 L112.988106,129.478256 C112.988106,124.838005 109.226433,121.076324 104.586182,121.076324 Z"/>
    <path fill= "#ffffff" d="M1215.90735,113.92247 L1215.90735,112.03257 C1215.90735,111.371765 1216.44312,110.836082 1217.10388,110.836082 L1217.10388,110.836082 C1217.76465,110.836082 1218.30041,111.371765 1218.30041,112.03257 L1218.30041,113.92247 C1218.30041,114.583275 1217.76465,115.118965 1217.10388,115.118965 L1217.10388,115.118965 C1216.44312,115.118965 1215.90735,114.583275 1215.90735,113.92247 Z M107.84053,115.118591 L107.84053,115.118591 C107.179726,115.118591 106.644035,114.582909 106.644035,113.922104 L106.644035,112.032204 C106.644035,111.371399 107.179726,110.835716 107.84053,110.835716 L107.84053,110.835716 C108.501335,110.835716 109.037018,111.371399 109.037018,112.032204 L109.037018,113.922104 C109.037018,114.582909 108.501335,115.118591 107.84053,115.118591 Z"/>
    <path fill= "#faad1d" d="M1215.15698,169.959915 L1219.02332,169.959915 L1219.02332,172.934799 L1210.36938,172.934799 C1210.36938,172.934799 1211.15076,170.75061 1215.15698,169.959915 Z M1225.49133,169.967926 L1221.7384,169.959915 L1221.7384,172.934799 L1230.39221,172.934799 C1230.39221,172.934799 1229.49768,170.758606 1225.49133,169.967926 Z M1220.35413,119.985428 L1220.35413,119.985428 C1222.43701,119.985428 1224.12549,118.296951 1224.12549,116.214104 L1224.12549,113.170502 C1224.12549,111.087654 1222.43701,109.39917 1220.35413,109.39917 L1220.35413,109.39917 C1218.27124,109.39917 1216.58276,111.087654 1216.58276,113.170502 L1216.58276,116.214104 C1216.58276,118.296951 1218.27124,119.985428 1220.35413,119.985428 Z M114.574966,172.934433 L105.921112,172.934433 L105.921112,169.959549 L109.787376,169.959549 C113.793709,170.750244 114.574966,172.934433 114.574966,172.934433 Z M94.5521698,172.934433 L103.206024,172.934433 L103.206024,169.959549 L99.4530258,169.967545 C95.4466934,170.75824 94.5521698,172.934433 94.5521698,172.934433 Z M108.361618,116.213738 L108.361618,113.170128 C108.361618,111.08728 106.673141,109.398804 104.590294,109.398804 L104.590286,109.398804 C102.507439,109.398804 100.818954,111.08728 100.818954,113.170128 L100.818954,116.213738 C100.818954,118.296585 102.507439,119.985062 104.590286,119.985062 L104.590294,119.985062 C106.673141,119.985062 108.361618,118.296585 108.361618,116.213738 Z"/>
    <path fill= "#1d4752" d="M1218.53613,116.473366 L1218.06543,116.303444 L1218.82227,114.217506 L1219.29297,114.387428 L1218.53613,116.473366 Z M1220.08105,118.203834 C1220.45117,118.176491 1220.78809,118.007545 1221.03027,117.728249 C1221.1748,117.562233 1221.27832,117.361061 1221.33203,117.145241 L1220.8457,117.0261 C1220.81152,117.166725 1220.74609,117.292702 1220.65332,117.400124 C1220.49805,117.579811 1220.28223,117.688209 1220.04492,117.704811 C1219.82031,117.725319 1219.5791,117.646217 1219.40039,117.490944 L1219.07227,117.867897 C1219.32715,118.0886 1219.64551,118.207741 1219.97949,118.207741 C1220.0127,118.207741 1220.04688,118.205788 1220.08105,118.203834 Z M106.409134,116.473366 L105.652298,114.386452 L106.122025,114.21653 L106.87886,116.303444 L106.409134,116.473366 Z M105.871536,117.868874 L105.544388,117.489967 C105.174759,117.812233 104.611771,117.769264 104.291458,117.400124 C104.196732,117.290749 104.13179,117.164772 104.099075,117.027077 L103.612747,117.142311 C103.663528,117.356178 103.767533,117.558327 103.91304,117.727272 C104.186966,118.043678 104.574661,118.205788 104.96431,118.205788 C105.286087,118.205788 105.609329,118.095436 105.871536,117.868874 Z"/>
    <path fill= "#ffffff" d="M1223.104,113.92247 L1223.104,112.03257 C1223.104,111.371765 1223.63965,110.836083 1224.30042,110.836083 L1224.30042,110.836083 C1224.9613,110.836083 1225.49695,111.371765 1225.49695,112.03257 L1225.49695,113.92247 C1225.49695,114.583275 1224.9613,115.118965 1224.30042,115.118965 L1224.30042,115.118965 C1223.63965,115.118965 1223.104,114.583275 1223.104,113.92247 Z M101.840431,113.922104 L101.840431,112.032204 C101.840431,111.371399 101.304741,110.835716 100.643944,110.835716 L100.643936,110.835716 C99.9831391,110.835716 99.4474488,111.371399 99.4474488,112.032204 L99.4474488,113.922104 C99.4474488,114.582909 99.9831391,115.118591 100.643936,115.118591 L100.643944,115.118591 C101.304741,115.118591 101.840431,114.582909 101.840431,113.922104 Z"/>
    <path fill= "#bbede9" d="M1219.35205,125.467911 C1219.35205,124.930992 1219.78735,124.495743 1220.32422,124.495743 C1220.86108,124.495743 1221.29639,124.930992 1221.29639,125.467911 C1221.29639,126.004822 1220.86108,126.440079 1220.32422,126.440079 C1219.78735,126.440079 1219.35205,126.004822 1219.35205,125.467911 Z M1220.32422,136.482498 C1220.86108,136.482498 1221.29639,136.047241 1221.29639,135.51033 C1221.29639,134.973419 1220.86108,134.538162 1220.32422,134.538162 C1219.78735,134.538162 1219.35205,134.973419 1219.35205,135.51033 C1219.35205,136.047241 1219.78735,136.482498 1220.32422,136.482498 Z M1220.32422,131.461288 C1220.86108,131.461288 1221.29639,131.026031 1221.29639,130.48912 C1221.29639,129.952209 1220.86108,129.516952 1220.32422,129.516952 C1219.78735,129.516952 1219.35205,129.952209 1219.35205,130.48912 C1219.35205,131.026031 1219.78735,131.461288 1220.32422,131.461288 Z M104.620201,126.439713 C104.08329,126.439713 103.648033,126.004456 103.648033,125.467545 C103.648033,124.930626 104.08329,124.495369 104.620201,124.495369 C105.157112,124.495369 105.592369,124.930626 105.592369,125.467545 C105.592369,126.004456 105.157112,126.439713 104.620201,126.439713 Z M105.592369,135.509964 C105.592369,134.973053 105.157112,134.537796 104.620201,134.537796 C104.08329,134.537796 103.648033,134.973053 103.648033,135.509964 C103.648033,136.046875 104.08329,136.482132 104.620201,136.482132 C105.157112,136.482132 105.592369,136.046875 105.592369,135.509964 Z M105.592369,130.488754 C105.592369,129.951843 105.157112,129.516586 104.620201,129.516586 C104.08329,129.516586 103.648033,129.951843 103.648033,130.488754 C103.648033,131.025665 104.08329,131.460922 104.620201,131.460922 C105.157112,131.460922 105.592369,131.025665 105.592369,130.488754 Z"/>
    <path fill= "#ffffff" d="M145.31897,170.190292 L142.876007,170.190292 L142.876007,160.326965 L145.31897,160.326965 L145.31897,170.190292 Z M141.743149,160.326965 L139.300201,160.326965 L139.300201,170.190292 L141.743149,170.190292 L141.743149,160.326965 Z M1179.62549,160.327347 L1182.06836,160.327347 L1182.06836,170.190659 L1179.62549,170.190659 L1179.62549,160.327347 Z M1183.20129,170.190659 L1185.64417,170.190659 L1185.64417,160.327347 L1183.20129,160.327347 L1183.20129,170.190659 Z"/>
    <path fill= "#faad1d" d="M1208.20374,126.460815 C1208.20374,126.460815 1206.81592,127.388168 1205.047,127.192642 C1204.20288,127.099335 1203.27246,126.751587 1202.36377,125.923096 C1202.35437,122.571411 1205.49304,123.183891 1205.49304,123.183891 L1205.45142,123.585449 C1205.45142,123.585449 1204.1908,123.522392 1204.23511,124.185486 C1205.74451,124.953659 1207.85486,123.741074 1207.85486,123.741074 L1208.01404,124.081314 C1208.01404,124.081314 1207.02368,124.8125 1205.5199,125.080894 C1205.5199,125.080894 1207.05872,125.068939 1208.6333,124.260414 L1208.80664,124.603683 C1208.80664,124.603683 1207.23401,125.652954 1205.76831,125.704765 C1205.76831,125.704765 1207.00757,125.883011 1208.49817,125.131599 L1208.66504,125.467552 C1208.66504,125.467552 1207.14734,126.456711 1205.78394,126.453567 C1205.78394,126.453567 1206.53857,126.66597 1208.0426,126.178696 L1208.20374,126.460815 Z M1182.81409,115.935509 L1182.81409,115.935509 C1184.58179,115.935509 1186.01477,114.502487 1186.01477,112.734772 L1186.01477,109.534035 C1186.01477,107.766319 1184.58179,106.333305 1182.81409,106.333305 L1182.81409,106.333305 C1181.04639,106.333305 1179.6134,107.766319 1179.6134,109.534035 L1179.6134,112.734772 C1179.6134,114.502487 1181.04639,115.935509 1182.81409,115.935509 Z M116.901756,126.178314 C118.405876,126.665604 119.160446,126.453201 119.160446,126.453201 C117.797028,126.456329 116.279388,125.467186 116.279388,125.467186 L116.446198,125.131226 C117.936905,125.882645 119.176155,125.704399 119.176155,125.704399 C117.710373,125.65258 116.137787,124.60331 116.137787,124.60331 L116.311142,124.26004 C117.885758,125.068565 119.424538,125.080528 119.424538,125.080528 C117.920769,124.812126 116.930313,124.080948 116.930313,124.080948 L117.089539,123.740707 C117.089539,123.740707 119.199959,124.953293 120.709313,124.18512 C120.753632,123.522026 119.493042,123.585083 119.493042,123.585083 L119.451386,123.183525 C119.451386,123.183525 122.590012,122.571045 122.580597,125.922729 C121.671944,126.751221 120.741509,127.098968 119.897423,127.192261 C118.128502,127.387802 116.740731,126.460449 116.740731,126.460449 L116.901756,126.178314 Z M145.331055,112.734405 L145.331055,109.533668 C145.331055,107.765953 143.898041,106.332939 142.130325,106.332939 L142.13031,106.332939 C140.362595,106.332939 138.929581,107.765953 138.929581,109.533668 L138.929581,112.734405 C138.929581,114.502121 140.362595,115.935135 142.13031,115.935135 L142.130325,115.935135 C143.898041,115.935135 145.331055,114.502121 145.331055,112.734405 Z"/>
    <path fill= "#bbede9" d="M1194.57495,131.962204 L1189.08057,130.238754 L1188.72559,136.5728 L1177.07495,136.5728 L1176.18042,123.681374 C1176.18042,120.017677 1179.15039,117.047646 1182.81421,117.047646 C1184.77124,117.047646 1186.5249,117.900307 1187.73901,119.24839 L1187.74036,119.241066 L1187.80688,119.322914 C1187.90503,119.435341 1187.99841,119.551369 1188.08899,119.670326 L1194.67725,127.782211 L1202.60864,124.663246 L1203.16516,126.528732 L1194.57495,131.962204 Z M142.130325,117.047279 C140.173233,117.047279 138.419632,117.89994 137.205399,119.248024 L137.204117,119.2407 L137.13765,119.322548 C137.039383,119.434975 136.94606,119.551002 136.855484,119.66996 L130.267227,127.781845 L122.335892,124.66288 L121.779312,126.528366 L130.369461,131.961838 L135.863968,130.238388 L136.218826,136.572433 L147.869522,136.572433 L148.763992,123.681007 C148.763992,120.017311 145.794022,117.047279 142.130325,117.047279 Z"/>
    <path fill= "#faad1d" d="M1177.0271,135.884598 L1188.76416,135.884598 L1188.8197,137.315201 L1176.97607,137.315201 L1177.0271,135.884598 Z M147.968384,137.314835 L136.12471,137.314835 L136.173553,135.804596 L147.922424,135.804596 L147.968384,137.314835 Z"/>
    <path fill= "#1d4752" d="M1176.97607 137.315201L1188.8197 137.315201 1192.12097 163.357391 1173.5072 163.357391 1176.97607 137.315201zM1181.76013 105.203529C1179.62585 105.203529 1177.89575 106.829269 1177.89575 108.834724L1177.89575 111.134377 1177.89575 131.430237C1177.89575 133.165726 1179.44128 134.562012 1181.30957 134.470093 1183.0614 134.383896 1184.375 132.906387 1184.375 131.258011L1184.375 111.134377 1184.45886 111.134377C1186.54907 111.134377 1188.16467 109.224892 1187.43774 107.160988 1187.01965 105.973656 1185.78979 105.203522 1184.45886 105.20353L1184.375 105.20353 1181.76013 105.20353 1181.76013 105.203529zM1192.03613 172.943955C1192.0332 171.240952 1190.61792 170.543564 1188.17603 170.525742 1185.71057 170.507736 1185.65588 168.879013 1185.65588 168.879013L1183.19336 168.879013 1183.19336 170.269089C1182.11499 169.806687 1182.08008 168.879013 1182.08008 168.879013L1179.61743 168.879013 1179.61743 172.931748 1188.46045 172.943955C1188.46045 172.942184 1188.45984 172.940781 1188.45984 172.939011L1192.03613 172.943955zM151.43721 163.357025L132.823425 163.357025 136.12471 137.314834 147.968384 137.314834 151.43721 163.357025zM140.569397 105.203163L140.485565 105.203163C139.154587 105.203155 137.924805 105.973282 137.506607 107.160614 136.779694 109.224525 138.395355 111.13401 140.485565 111.13401L140.569397 111.13401 140.569397 131.257629C140.569397 132.906021 141.882996 134.38353 143.634827 134.469727 145.503143 134.561645 147.048676 133.165359 147.048676 131.429871L147.048676 111.13401 147.048676 108.834358C147.048676 106.828903 145.318542 105.203163 143.184296 105.203163L140.569397 105.203163 140.569397 105.203163zM142.864395 168.878647C142.864395 168.878647 142.829422 169.80632 141.751175 170.268723L141.751175 168.878647 139.288589 168.878647C139.288589 168.878647 139.233841 170.50737 136.768387 170.525375 134.326492 170.543198 132.91127 171.240585 132.908279 172.943588L136.484634 172.938645C136.484634 172.940414 136.484085 172.941818 136.484085 172.943588L145.326981 172.931381 145.326981 168.878647 142.864395 168.878647zM772.716675 142.223511L763.993774 150.02095 763.993774 146.122223 771.366089 140.585586 772.716675 142.223511zM772.456055 140.089127L775.388245 141.382675 775.388245 135.679535 772.456055 133.34848 772.456055 140.089127zM770.59845 142.917084L775.388245 142.917084 775.388245 135.784164 770.59845 135.784164 770.59845 142.917084zM552.227722 142.223144L560.950623 150.020569 560.950623 146.121857 553.578308 140.58522 552.227722 142.223144zM552.488342 133.348114L549.556152 135.679169 549.556152 141.382294 552.488342 140.08876 552.488342 133.348114zM554.345947 135.783798L549.556152 135.783798 549.556152 142.916718 554.345947 142.916718 554.345947 135.783798z"/>
    <path fill= "#faad1d" d="M774.105774,139.70372 C774.104248,139.712219 774.102173,139.722748 774.099731,139.73523 L774.099487,139.736404 C774.063843,139.917145 773.930237,140.487076 773.57251,141.12558 C773.571411,141.127502 773.570312,141.129456 773.569214,141.131393 C773.471374,141.305466 773.356628,141.484009 773.222839,141.661285 C773.215759,141.670609 773.209106,141.679916 773.201965,141.689224 C773.175537,141.723633 773.147888,141.757843 773.119995,141.792068 C773.106873,141.808197 773.093811,141.82428 773.080322,141.840332 C773.053528,141.872238 773.026001,141.903915 772.997864,141.935531 C772.981934,141.953476 772.965576,141.971329 772.949158,141.989166 C772.92102,142.019714 772.892578,142.050125 772.863098,142.080307 C772.84552,142.098312 772.827209,142.116012 772.809204,142.13385 C772.778748,142.16391 772.748474,142.19397 772.716675,142.223511 C772.701782,142.23735 772.685852,142.250793 772.670593,142.264511 C772.606506,142.322311 772.539429,142.378769 772.469727,142.433945 C772.448486,142.450699 772.42804,142.467758 772.406311,142.484253 C772.373474,142.50917 772.339111,142.533249 772.305054,142.557495 C772.278809,142.576172 772.252808,142.594925 772.22583,142.613144 C772.191223,142.63652 772.15564,142.659241 772.119873,142.681869 C772.091492,142.699783 772.062927,142.717468 772.033814,142.734878 C771.99707,142.75682 771.9599,142.778381 771.921936,142.799499 C771.891541,142.816421 771.860291,142.832763 771.82898,142.849106 C771.790222,142.869369 771.751526,142.889694 771.711426,142.909042 C771.678528,142.924896 771.644348,142.939773 771.610596,142.955002 C771.569885,142.973343 771.529968,142.992172 771.487976,143.009521 L771.487854,143.009552 L771.487854,143.009552 C771.07782,143.179001 770.605835,143.300155 770.061768,143.348831 L769.5094,142.312256 C769.5094,142.312256 768.607666,140.613128 769.736267,139.34703 L770.071289,139.484421 C770.071289,139.484421 769.557678,140.532257 769.8125,140.830475 C769.822449,140.842132 769.833557,140.852631 769.845886,140.861908 L769.847168,140.862716 C769.859192,140.871612 769.872376,140.879364 769.886841,140.885818 C769.888123,140.886413 769.889588,140.88681 769.89093,140.887359 C769.904724,140.893234 769.919556,140.898132 769.935669,140.901657 C769.93866,140.902298 769.942078,140.902511 769.945191,140.903076 C769.960327,140.905853 769.976013,140.908035 769.993164,140.908706 C769.998657,140.90892 770.004883,140.90831 770.010559,140.908279 C770.026428,140.908279 770.04242,140.90805 770.059998,140.906204 C770.069031,140.905227 770.079224,140.903061 770.088684,140.901596 C770.104431,140.8992 770.119873,140.897125 770.136963,140.89328 C770.151123,140.890091 770.16687,140.885177 770.181946,140.880966 C770.196106,140.877029 770.209534,140.873916 770.22461,140.869049 C770.253479,140.85965 770.28418,140.848266 770.316223,140.835342 C770.318787,140.83435 770.320923,140.83374 770.323425,140.832687 C770.977112,140.56546 771.566895,139.282776 771.8302,138.631714 C771.923035,138.402161 771.975647,138.250488 771.975647,138.250488 L772.316956,138.320984 C772.161987,139.430725 771.366089,140.585586 771.366089,140.585586 C772.410034,139.672104 772.687439,137.957077 772.687439,137.957077 L773.04596,138.012543 C773.056214,139.271652 772.065918,140.872574 772.065918,140.872574 C772.065918,140.872574 773.019104,140.108841 773.22229,138.697708 L773.589905,138.751404 C773.464295,140.272995 772.765869,141.207153 772.765869,141.207153 C773.405762,140.672333 773.751465,139.727798 773.796753,139.598083 C773.798523,139.592468 773.800537,139.587677 773.802307,139.582031 L774.110596,139.6763 C774.110596,139.6763 774.108887,139.686615 774.106079,139.702148 L774.105774,139.70372 Z M759.723511,136.592514 L759.723511,136.592514 C761.479431,136.592514 762.902893,135.169052 762.902893,133.413116 L762.902893,130.899155 C762.902893,129.143204 761.479431,127.719742 759.723511,127.719742 L759.723511,127.719742 C757.96759,127.719742 756.544067,129.143204 756.544067,130.899155 L756.544067,133.413116 C756.544067,135.169052 757.96759,136.592514 759.723511,136.592514 Z M778.877258,170.844437 L776.07489,170.844391 L776.07489,172.944031 L783.867798,172.944031 C783.867798,172.944031 782.566894,171.402496 778.877258,170.844437 Z M768.479492,170.844391 L765.878235,170.844437 L765.878235,172.944031 L773.671143,172.944031 C773.671143,172.944031 772.169067,171.402435 768.479492,170.844391 Z M550.838318,139.701782 C550.83551,139.686249 550.833862,139.675919 550.833862,139.675919 L551.14209,139.581665 C551.143921,139.587311 551.145874,139.592102 551.147644,139.597717 C551.192932,139.727432 551.538696,140.671951 552.178528,141.206772 C552.178528,141.206772 551.480102,140.272629 551.354492,138.751038 L551.722107,138.697327 C551.925293,140.108475 552.878479,140.872208 552.878479,140.872208 C552.878479,140.872208 551.888245,139.271286 551.898498,138.012161 L552.256958,137.956711 C552.256958,137.956711 552.534363,139.671738 553.578308,140.58522 C553.578308,140.58522 552.78241,139.430359 552.627441,138.320618 L552.96875,138.250122 C552.96875,138.250122 553.021362,138.401779 553.114197,138.631348 C553.377502,139.28241 553.967285,140.565079 554.620972,140.832306 C554.623474,140.833374 554.62561,140.833985 554.628174,140.834976 C554.660217,140.847901 554.690918,140.859284 554.719788,140.868683 C554.734863,140.873551 554.748291,140.876663 554.762512,140.8806 C554.777588,140.884812 554.793274,140.889725 554.807434,140.892914 C554.824524,140.896744 554.839966,140.898819 554.855713,140.90123 C554.865234,140.902695 554.875366,140.904862 554.884399,140.905838 C554.901978,140.907669 554.917969,140.907913 554.933838,140.907913 C554.939514,140.907944 554.94574,140.908554 554.951233,140.908341 C554.968384,140.907669 554.984131,140.905487 554.999268,140.90271 C555.002319,140.90213 555.005737,140.901932 555.008789,140.901291 C555.024841,140.897751 555.039673,140.892868 555.053528,140.886993 C555.05481,140.886429 555.056274,140.886047 555.057617,140.885452 C555.072022,140.878998 555.085205,140.871246 555.09729,140.862351 L555.098511,140.861527 C555.11084,140.852264 555.122009,140.841751 555.131958,140.830109 C555.386719,140.531891 554.873108,139.484039 554.873108,139.484039 L555.20813,139.346665 C556.336792,140.612763 555.434998,142.31189 555.434998,142.31189 L554.88263,143.348465 C554.338623,143.29979 553.866638,143.178619 553.456543,143.009186 L553.456543,143.009186 L553.456421,143.009155 C553.41449,142.991806 553.374512,142.972977 553.333801,142.954636 C553.300049,142.939407 553.265869,142.92453 553.232971,142.908676 C553.192932,142.889313 553.154236,142.869003 553.115418,142.84874 C553.084168,142.832397 553.052918,142.816055 553.022461,142.799133 C552.984497,142.778015 552.947327,142.756455 552.910645,142.734512 C552.88147,142.717102 552.852905,142.699417 552.824585,142.681503 C552.788758,142.658875 552.753174,142.636154 552.718567,142.612778 C552.691651,142.594559 552.665589,142.575806 552.639343,142.557129 C552.605286,142.532867 552.570923,142.508804 552.538086,142.483887 C552.516419,142.467392 552.495911,142.450333 552.474732,142.433579 C552.404968,142.378403 552.337952,142.32193 552.273804,142.264145 C552.258606,142.250427 552.242676,142.236984 552.227722,142.223145 C552.195923,142.193604 552.16565,142.163544 552.135193,142.133484 C552.117188,142.115646 552.098877,142.097946 552.081299,142.079941 C552.051819,142.049759 552.023377,142.019348 551.99524,141.9888 C551.978821,141.970947 551.962525,141.95311 551.946533,141.93515 C551.918396,141.903549 551.890869,141.871872 551.864075,141.839951 C551.850586,141.823898 551.837525,141.807831 551.824402,141.791702 C551.796509,141.757477 551.76886,141.723267 551.742493,141.688858 C551.735352,141.67955 551.728638,141.670242 551.721619,141.660919 C551.587769,141.483643 551.473084,141.3051 551.375183,141.131027 C551.374146,141.129089 551.372986,141.127136 551.371887,141.125214 C551.014221,140.48671 550.880554,139.916779 550.84491,139.736023 L550.844666,139.734863 C550.842224,139.722382 550.840149,139.711853 550.838623,139.703354 L550.838318,139.701782 Z M568.40033,133.412735 L568.40033,130.898773 C568.40033,129.142838 566.976868,127.719376 565.220886,127.719376 L565.220886,127.719376 C563.464966,127.719376 562.041504,129.142838 562.041504,130.898773 L562.041504,133.412735 C562.041504,135.168686 563.464966,136.592148 565.220886,136.592148 L565.220886,136.592148 C566.976868,136.592148 568.40033,135.168686 568.40033,133.412735 Z M541.076599,172.943665 L548.869507,172.943665 L548.869507,170.844009 L546.067139,170.84407 C542.377563,171.40213 541.076599,172.943665 541.076599,172.943665 Z M551.273315,172.943665 L559.066223,172.943665 L559.066223,170.844071 L556.464966,170.84401 C552.77533,171.402069 551.273315,172.943665 551.273315,172.943665 Z"/>
    <path fill= "#bbede9" d="M754.645081,139.620193 L754.645081,139.620193 C755.684448,138.196762 757.361084,137.268158 759.258606,137.268158 C762.414795,137.268158 764.97345,139.826797 764.97345,142.983032 L764.97345,147.384232 L764.97345,147.949417 L764.97345,151.921646 L754.8703,153.842011 L753.583008,145.288055 L754.645081,139.620193 Z M570.299316,139.619827 L570.299316,139.619827 C569.259949,138.196396 567.583313,137.267792 565.685791,137.267792 C562.529602,137.267792 559.970947,139.826416 559.970947,142.982666 L559.970947,147.383865 L559.970947,147.949036 L559.970947,151.92128 L570.074097,153.841644 L571.361389,145.287674 L570.299316,139.619827 Z"/>
    <path fill= "#1d4752" d="M759.009277,125.54039 C759.009277,126.638931 758.118774,127.52948 757.020203,127.52948 C755.921692,127.52948 755.031128,126.638931 755.031128,125.54039 C755.031128,124.441849 755.921692,123.551308 757.020203,123.551308 C758.118774,123.551308 759.009277,124.441849 759.009277,125.54039 Z M565.93512,125.540024 C565.93512,126.638565 566.825684,127.529114 567.924194,127.529114 C569.022766,127.529114 569.913269,126.638565 569.913269,125.540024 C569.913269,124.441483 569.022766,123.550942 567.924194,123.550942 C566.825684,123.550942 565.93512,124.441483 565.93512,125.540024 Z M753.543762,142.983032 L753.583008,145.288055 L762.532105,149.233398 L764.97345,147.384232 L770.19574,143.31604 L769.341675,141.836853 L762.302185,145.555115 L754.645081,139.620193 C753.955566,140.564468 753.543762,141.724304 753.543762,142.983032 Z M756.03894,130.317581 C756.03894,128.282654 757.688599,126.633026 759.723511,126.633026 C761.758423,126.633026 763.408081,128.282654 763.408081,130.317581 L756.03894,130.317581 Z M764.97345,151.921646 L776.347839,157.418076 L778.877258,170.844437 L776.07489,170.844391 L772.456055,161.288971 L764.97345,157.04097 L770.957825,161.957581 L768.479492,170.844391 L765.878235,170.844437 L766.621948,163.824432 L759.495728,160.700912 C757.67511,159.902924 756.288452,158.356674 755.692749,156.460205 L754.8703,153.84201 L764.97345,151.921646 Z M761.080017,134.006577 L760.511658,131.861069 L760.99408,131.732163 L761.562439,133.87767 L761.080017,134.006577 Z M760.711853,135.554428 C760.208923,135.554428 759.722595,135.280991 759.476501,134.804428 L759.919861,134.573959 C760.145447,135.011459 760.685486,135.181381 761.117126,134.955795 C761.24408,134.890366 761.350525,134.797592 761.435486,134.679428 L761.841736,134.970444 C761.71283,135.151108 761.541931,135.299545 761.346619,135.400131 C761.143494,135.504623 760.926697,135.554428 760.711853,135.554428 Z M570.299316,139.619827 L562.642212,145.554733 L555.602722,141.836487 L554.748657,143.315674 L559.970947,147.383865 L562.412354,149.233032 L571.361389,145.287674 L571.400696,142.982666 C571.400696,141.723938 570.988831,140.564102 570.299316,139.619827 Z M561.536377,130.317215 C561.536377,128.282288 563.185974,126.63266 565.220886,126.63266 C567.255798,126.63266 568.905457,128.282288 568.905457,130.317215 L561.536377,130.317215 Z M570.074097,153.841644 L569.251648,156.459824 C568.655945,158.356293 567.269348,159.902542 565.448731,160.700546 L558.322449,163.824066 L559.066223,170.844071 L556.464966,170.84401 L553.986572,161.957215 L559.970947,157.040589 L552.488342,161.28859 L548.869507,170.84401 L546.067139,170.844071 L548.596558,157.417694 L559.970947,151.92128 L570.074097,153.841644 Z M563.864197,134.0056 L563.381775,133.876694 L563.950134,131.731186 L564.432556,131.860092 L563.864197,134.0056 Z M564.233337,135.554428 C564.014587,135.554428 563.797791,135.50267 563.597595,135.399155 C563.398376,135.295639 563.231384,135.151108 563.102478,134.969467 L563.510681,134.680405 C563.592712,134.796616 563.699158,134.889389 563.828064,134.955795 C564.038025,135.064194 564.280212,135.084702 564.504822,135.012436 C564.730408,134.94017 564.914978,134.78392 565.023376,134.573959 L565.468689,134.802475 C565.298767,135.132553 565.009705,135.375717 564.656189,135.488998 C564.517517,135.532944 564.374939,135.554428 564.233337,135.554428 Z"/>
  </g>
</svg>
