<svg xmlns="http://www.w3.org/2000/svg" viewBox="0 0 1329 175">
  <g>
    <path fill= "#1fcfcb" d="M1315.21436,61.4118652 L1315.21436,79.3265381 L1308.32153,79.3265381 L1308.32153,72.5895996 L1290.34399,72.5895996 L1290.34399,48.8323975 L1274.18237,48.8323975 L1274.18237,37.8259277 L1265.15088,37.8259277 L1265.15088,48.8323974 L1248.98926,48.8323974 L1248.98926,70.9277953 C1241.93018,62.6274413 1231.41211,57.3600463 1219.66235,57.3600463 L1218.88489,57.3600463 C1198.61108,57.3600463 1181.99927,73.0372314 1180.50977,92.9301147 L1169.04199,92.9301147 L1169.04199,57.3600464 L1169.04199,46.6459961 L1146.04724,46.6459961 L1146.04724,57.3600464 L1141.57715,57.3600464 C1129.17773,57.3600464 1118.5647,64.9844971 1114.15454,75.7982788 L1114.15454,35.1459351 L1114.15503,35.1459351 C1110.32935,35.1459351 1110.32935,31.4092408 1106.50366,31.4092408 C1102.677,31.4092408 1102.677,35.1459351 1098.85034,35.1459351 C1095.02405,35.1459351 1095.02405,31.4092408 1091.19775,31.4092408 C1087.37085,31.4092408 1087.37085,35.1459351 1083.54382,35.1459351 C1079.71753,35.1459351 1079.71753,31.4092408 1075.89111,31.4092408 C1072.06519,31.4092408 1072.06519,35.1459351 1068.23926,35.1459351 C1064.41345,35.1459351 1064.41345,31.4092408 1060.58765,31.4092408 C1056.76123,31.4092408 1056.76123,35.1459351 1052.93469,35.1459351 C1049.10889,35.1459351 1049.10889,31.4092408 1045.28308,31.4092408 C1041.45825,31.4092408 1041.45825,35.1459351 1037.63354,35.1459351 L1037.63428,35.1459351 L1037.63428,73.6879883 L1002.27783,57.3600464 L1002.27783,83.1355591 L987.185608,83.1355591 L987.185608,68.6409912 L977.390564,68.6409912 L977.390564,61.4118652 L970.05188,61.4118652 L970.05188,68.6409912 L960.256836,68.6409912 L960.256836,83.1355591 L945.164673,83.1355591 L945.164673,63.8879395 L915.061218,44.9854126 L885.786133,63.3677979 L885.786133,61.3912354 L872.000549,61.3912354 L872.000549,79.3059083 L865.107727,79.3059083 L865.107727,72.5689088 L847.130127,72.5689088 L847.130127,48.8117676 L830.968445,48.8117676 L830.968445,37.8052368 L821.936951,37.8052368 L821.936951,48.8117676 L805.775269,48.8117676 L805.775269,70.9071045 C798.716248,62.6068115 788.198242,57.3394165 776.448425,57.3394165 L775.67096,57.3394165 C755.397095,57.3394165 738.785401,73.0165405 737.295899,92.9094849 L725.828186,92.9094849 L725.828186,57.3394165 L725.828186,46.6253052 L702.833374,46.6253052 L702.833374,57.3394165 L698.363281,57.3394165 C685.963928,57.3394165 675.35083,64.9638672 670.940613,75.7775879 L670.940613,35.1252441 L670.941223,35.1252441 C667.115539,35.1252441 667.115539,31.3886108 663.289856,31.3886108 C659.463135,31.3886108 659.463135,35.1252441 655.636475,35.1252441 C651.81012,35.1252441 651.81012,31.3886108 647.983826,31.3886108 C644.15686,31.3886108 644.15686,35.1252441 640.329956,35.1252441 C636.50354,35.1252441 636.50354,31.3886108 632.677185,31.3886108 C628.851257,31.3886108 628.851257,35.1252441 625.025391,35.1252441 C621.199524,35.1252441 621.199524,31.3886108 617.373657,31.3886108 C613.547241,31.3886108 613.547241,35.1252441 609.720825,35.1252441 C605.89502,35.1252441 605.89502,31.3886108 602.069153,31.3886108 C598.244385,31.3886108 598.244385,35.1252441 594.419678,35.1252441 L594.420288,35.1252441 L594.420288,73.6673584 L559.064026,57.3394165 L559.064026,83.1149292 L543.971802,83.1149292 L543.971802,68.6203613 L534.176758,68.6203613 L534.176758,61.3912353 L526.838074,61.3912353 L526.838074,68.6203613 L517.04303,68.6203613 L517.04303,83.1149292 L501.950806,83.1149292 L501.950806,63.8672485 L471.847351,44.9647827 L442.748169,63.2366333 L413.450561,44.84021 L383.347107,63.7426758 L383.347107,82.9903565 L368.254883,82.9903565 L368.254883,68.4957886 L358.459839,68.4957886 L358.459839,61.2666626 L351.121216,61.2666626 L351.121216,68.4957886 L341.326111,68.4957886 L341.326111,82.9903565 L326.233887,82.9903565 L326.233887,57.2148438 L290.877625,73.5427857 L290.877625,35.0006714 L290.878235,35.0006714 C287.053528,35.0006714 287.053528,31.2640381 283.22876,31.2640381 C279.402893,31.2640381 279.402893,35.0006714 275.577087,35.0006714 C271.750671,35.0006714 271.750671,31.2640381 267.924255,31.2640381 C264.098389,31.2640381 264.098389,35.0006714 260.272583,35.0006714 C256.446655,35.0006714 256.446655,31.2640381 252.620743,31.2640381 C248.794388,31.2640381 248.794388,35.0006714 244.968033,35.0006714 C241.141068,35.0006714 241.141068,31.2640381 237.314102,31.2640381 C233.487808,31.2640381 233.487808,35.0006714 229.661453,35.0006714 C225.834793,35.0006714 225.834793,31.2640381 222.008072,31.2640381 C218.182388,31.2640381 218.182388,35.0006714 214.356705,35.0006714 L214.357376,35.0006714 L214.357376,75.6530152 C209.947098,64.8392945 199.334,57.2148438 186.934647,57.2148438 L182.464554,57.2148438 L182.464554,46.5007324 L159.469742,46.5007324 L159.469742,57.2148437 L159.469742,92.7849121 L148.002029,92.7849121 C146.512527,72.8919678 129.900833,57.2148437 109.626968,57.2148437 L108.849503,57.2148437 C97.0996858,57.2148437 86.5816804,62.4822387 79.5226594,70.7825317 L79.5226594,48.6871948 L63.3609772,48.6871948 L63.3609772,37.6806641 L54.329483,37.6806641 L54.329483,48.6871949 L38.1678009,48.6871949 L38.1678009,72.444397 L20.1901989,72.444397 L20.1901989,79.1813355 L13.2973776,79.1813355 L13.2973776,61.2666626 L-0.4882062,61.2666626 L-0.4882062,79.1813355 L-0.4882062,150.376343 L-0.4882062,154.817078 L20.1901996,154.817078 L20.1901996,161.554077 L38.1678016,161.554077 L38.1678016,166.733276 L79.52266,166.733276 L79.52266,158.249939 L138.662247,158.249939 L148.111283,158.249939 L159.469742,158.249939 L159.469742,161.657288 L214.357377,161.657288 L214.357377,162.120972 L290.877625,162.120972 L290.877625,147.199097 L326.233887,147.199097 L326.233887,164.870911 L383.347108,164.870911 L383.347108,174.924744 L441.743897,174.924744 L441.743897,175.049316 L501.950806,175.049316 L501.950806,164.995483 L559.064027,164.995483 L559.064027,147.323669 L594.420289,147.323669 L594.420289,162.245544 L670.940614,162.245544 L670.940614,161.78186 L725.828187,161.78186 L725.828187,158.374512 L737.186646,158.374512 L746.635682,158.374512 L805.775269,158.374512 L805.775269,166.857849 L847.130128,166.857849 L847.130128,161.67865 L865.107728,161.67865 L865.107728,154.94165 L884.957764,154.94165 L884.957764,175.069946 L945.164673,175.069946 L945.164673,165.016113 L1002.27783,165.016113 L1002.27783,147.34436 L1037.63428,147.34436 L1037.63428,162.266175 L1114.15454,162.266175 L1114.15454,161.802551 L1169.04199,161.802551 L1169.04199,158.395203 L1180.40064,158.395203 L1189.84961,158.395203 L1248.98926,158.395203 L1248.98926,166.878479 L1290.34399,166.878479 L1290.34399,161.69928 L1308.32153,161.69928 L1308.32153,154.962342 L1329,154.962342 L1329,150.521607 L1329,79.3265381 L1329,61.4118652 L1315.21436,61.4118652 Z"/>
    <path fill= "#36979f" d="M1329,121.975403 L1329,175.069946 L1313.19971,175.069946 L1305.29932,175.069946 L1298.6532,175.069946 L1296.27051,175.069946 L1279.34155,175.069946 L1278.21289,175.069946 L1261.53467,175.069946 L1258.14893,175.069946 L1224.93298,175.069946 L1204.72522,175.069946 L1201.15454,175.069946 L1199.10095,175.069946 L1191.8092,175.069946 L1178.89319,175.069946 L1158.33032,175.069946 L1137.51392,175.069946 L1131.31982,175.069946 L1130.11475,175.069946 L1118.91138,175.069946 L1113.59485,175.069946 L1107.70447,175.069946 L1102.11719,175.069946 L1096.70093,175.069946 L1091.11365,175.069946 L1079.90674,175.069946 L1066.65308,175.069946 L1055.5022,175.069946 L1046.71948,175.069946 L1042.24841,175.069946 L1031.42065,175.069946 L1011.36121,175.069946 L983.266907,175.069946 L976.249146,175.069946 L970.726868,175.069946 L956.748291,175.069946 L953.047729,175.069946 L947.908691,175.069946 L939.663025,175.069946 L922.57782,175.069946 L916.369385,175.069946 L905.492615,175.069946 L884.957764,175.069946 L884.957764,175.049316 L869.985718,175.049316 L862.08551,175.049316 L855.43927,175.049316 L853.056702,175.049316 L836.127685,175.049316 L834.999084,175.049316 L818.320862,175.049316 L814.934997,175.049316 L781.719055,175.049316 L761.511291,175.049316 L757.940613,175.049316 L755.887085,175.049316 L748.595337,175.049316 L735.679321,175.049316 L715.116455,175.049316 L694.299988,175.049316 L688.105896,175.049316 L686.900757,175.049316 L675.697571,175.049316 L670.380981,175.049316 L664.4906,175.049316 L658.90332,175.049316 L653.486999,175.049316 L647.89978,175.049316 L636.69281,175.049316 L623.439087,175.049316 L612.288269,175.049316 L603.505554,175.049316 L599.034546,175.049316 L588.206726,175.049316 L568.147339,175.049316 L540.053101,175.049316 L533.035278,175.049316 L527.513061,175.049316 L513.534424,175.049316 L509.833923,175.049316 L504.694885,175.049316 L496.449219,175.049316 L479.363953,175.049316 L473.155517,175.049316 L462.278808,175.049316 L441.743896,175.049316 L441.743896,174.924744 L423.019104,174.924744 L412.142395,174.924744 L405.93396,174.924744 L388.848694,174.924744 L380.603027,174.924744 L375.463989,174.924744 L371.763489,174.924744 L357.784851,174.924744 L352.262634,174.924744 L345.244812,174.924744 L317.150574,174.924744 L297.091186,174.924744 L286.263367,174.924744 L281.792358,174.924744 L273.009644,174.924744 L261.858826,174.924744 L248.605118,174.924744 L237.398148,174.924744 L231.810928,174.924744 L226.394608,174.924744 L220.807327,174.924744 L214.916946,174.924744 L209.600357,174.924744 L198.397171,174.924744 L197.192032,174.924744 L190.99794,174.924744 L170.181473,174.924744 L149.618606,174.924744 L136.702591,174.924744 L129.410843,174.924744 L127.357315,174.924744 L123.786636,174.924744 L103.578873,174.924744 L70.3629303,174.924744 L66.977066,174.924744 L50.2988434,174.924744 L49.1702423,174.924744 L32.2412262,174.924744 L29.8586559,174.924744 L23.2124157,174.924744 L15.3122082,174.924744 L-0.4882062,174.924744 L-0.4882062,121.8302 L23.2124164,121.8302 L23.2124164,143.282043 L29.8586566,143.282043 L29.8586566,125.673157 C29.8586566,117.139282 36.7766883,110.221252 45.3105628,110.221252 L50.298844,110.221252 L50.298844,129.81134 L66.977066,129.81134 L66.977066,115.783874 L103.578873,115.783874 L103.578873,82.9903564 L129.410843,95.6404418 L129.410843,124.006836 L136.702591,124.006836 L136.702591,106.534546 L170.181473,106.534546 L170.181473,131.504333 L180.589737,124.006836 L190.99794,131.504333 L190.99794,120.137207 L198.397171,120.137207 L198.397171,128.541626 L209.600357,128.541626 L209.600357,89.6611938 L220.807327,89.6611938 L220.807327,74.9107056 L226.394607,74.9107056 L226.394607,89.6611939 L231.810928,89.6611939 L231.810928,74.9107056 L237.398147,74.9107056 L237.398147,89.6611939 L248.605118,89.6611939 L248.605118,106.534546 L262.348327,106.534546 L267.434265,65.720276 L272.520141,106.534546 L286.263366,106.534546 L286.263366,134.20105 L297.091186,134.20105 L297.091186,128.541626 C297.091186,113.996826 309.318237,102.205994 324.401001,102.205994 L324.952759,102.205994 C340.035583,102.205994 352.262634,113.996826 352.262634,128.541626 L352.262634,134.20105 L357.784851,134.20105 L357.784851,113.607178 L364.790222,113.607178 L364.790222,107.906616 L368.458618,107.906616 L368.458618,113.607178 L375.463989,113.607178 L375.463989,122.313904 L384.120422,122.313904 C396.167663,122.313904 405.93396,132.080139 405.93396,144.127381 L405.93396,149.615967 L412.142395,149.615967 L412.142395,104.391602 L418.914001,104.391602 L418.914001,98.4002687 L436.782409,98.4002687 L436.782409,104.391602 L443.554016,104.391602 L443.554016,104.516175 L448.515503,104.516175 L448.515503,98.5248415 L466.383911,98.5248415 L466.383911,104.516175 L473.155517,104.516175 L473.155517,149.74054 L479.363952,149.74054 L479.363952,144.251953 C479.363952,132.204712 489.130249,122.438477 501.17749,122.438477 L509.833923,122.438477 L509.833923,113.731751 L516.839294,113.731751 L516.839294,108.031189 L520.50769,108.031189 L520.50769,113.731751 L527.513061,113.731751 L527.513061,134.325623 L533.035278,134.325623 L533.035278,128.666199 C533.035278,114.121399 545.262329,102.330567 560.345154,102.330567 L560.896911,102.330567 C575.979675,102.330567 588.206726,114.121399 588.206726,128.666199 L588.206726,134.325623 L599.034546,134.325623 L599.034546,106.659119 L612.777771,106.659119 L617.863647,65.8448488 L622.949585,106.659119 L636.69281,106.659119 L636.69281,89.7857666 L647.89978,89.7857666 L647.89978,75.0352783 L653.486999,75.0352783 L653.486999,89.7857666 L658.90332,89.7857666 L658.90332,75.0352783 L664.4906,75.0352783 L664.4906,89.7857666 L675.697571,89.7857666 L675.697571,128.666199 L686.900757,128.666199 L686.900757,120.26178 L694.299988,120.26178 L694.299988,131.628906 L704.708191,124.131409 L715.116455,131.628906 L715.116455,106.659119 L748.595337,106.659119 L748.595337,124.131409 L755.887085,124.131409 L755.887085,95.7650147 L781.719055,83.1149293 L781.719055,115.908447 L818.320861,115.908447 L818.320861,129.935913 L834.999084,129.935913 L834.999084,110.345825 L839.987365,110.345825 C848.52124,110.345825 855.43927,117.263855 855.43927,125.79773 L855.43927,143.406616 L862.08551,143.406616 L862.08551,121.954773 L884.957763,121.954773 L884.957763,104.536865 L891.72937,104.536865 L891.72937,98.5454713 L909.597717,98.5454713 L909.597717,104.536865 L916.369384,104.536865 L916.369384,149.761231 L922.577819,149.761231 L922.577819,144.272583 C922.577819,132.225342 932.344055,122.459106 944.391296,122.459106 L953.047729,122.459106 L953.047729,113.75238 L960.053161,113.75238 L960.053161,108.051819 L963.721496,108.051819 L963.721496,113.75238 L970.726867,113.75238 L970.726867,134.346252 L976.249145,134.346252 L976.249145,128.686829 C976.249145,114.14209 988.476196,102.351257 1003.55902,102.351257 L1004.11072,102.351257 C1019.19354,102.351257 1031.42065,114.14209 1031.42065,128.686829 L1031.42065,134.346252 L1042.24841,134.346252 L1042.24841,106.679748 L1055.9917,106.679748 L1061.07764,65.8654785 L1066.16345,106.679748 L1079.90674,106.679748 L1079.90674,89.8063965 L1091.11365,89.8063965 L1091.11365,75.0559082 L1096.70093,75.0559082 L1096.70093,89.8063965 L1102.11719,89.8063965 L1102.11719,75.0559082 L1107.70447,75.0559082 L1107.70447,89.8063965 L1118.91138,89.8063965 L1118.91138,128.686829 L1130.11475,128.686829 L1130.11475,120.28241 L1137.51392,120.28241 L1137.51392,131.649536 L1147.92212,124.1521 L1158.33032,131.649536 L1158.33032,106.679749 L1191.8092,106.679749 L1191.8092,124.1521 L1199.10095,124.1521 L1199.10095,95.7856445 L1224.93298,83.1355591 L1224.93298,115.929077 L1261.53467,115.929077 L1261.53467,129.956543 L1278.21289,129.956543 L1278.21289,110.366455 L1283.20129,110.366455 C1291.73511,110.366455 1298.6532,117.284546 1298.6532,125.818359 L1298.6532,143.427307 L1305.29932,143.427307 L1305.29932,121.975403 L1329,121.975403 L1329,121.975403 Z"/>
    <path fill= "#851b55" d="M232.498825,102.43261 L225.70668,102.43261 L225.70668,95.6404572 L232.498825,102.43261 Z M236.685348,95.6404572 L236.685348,102.43261 L243.477493,102.43261 L236.685348,95.6404572 Z M214.727997,106.281998 L214.727997,113.074143 L221.520157,113.074143 L214.727997,106.281998 Z M214.727997,116.923531 L214.727997,123.715675 L221.520157,123.715675 L214.727997,116.923531 Z M225.70668,138.206604 L225.70668,144.998749 L232.498825,144.998749 L225.70668,138.206604 Z M236.685348,138.206604 L236.685348,144.998749 L243.477493,144.998749 L236.685348,138.206604 Z M225.70668,116.923531 L225.70668,123.715675 L232.498825,123.715675 L225.70668,116.923531 Z M278.854523,114.236015 L256.013977,114.236015 L256.013977,117.715385 L278.854523,117.715385 L278.854523,114.236015 Z M278.854523,121.249847 L256.013977,121.249847 L256.013977,124.729225 L278.854523,124.729225 L278.854523,121.249847 Z M278.854523,128.263687 L256.013977,128.263687 L256.013977,131.743057 L278.854523,131.743057 L278.854523,128.263687 Z M421.059509,108.898567 L416.331421,108.898567 L416.331421,113.768562 L421.059509,113.768562 L421.059509,108.898567 Z M439.36499,108.898567 L434.636871,108.898567 L434.636871,113.768562 L439.36499,113.768562 L439.36499,108.898567 Z M421.059509,117.88752 L416.331421,117.88752 L416.331421,122.757507 L421.059509,122.757507 L421.059509,117.88752 Z M430.21225,117.88752 L425.484131,117.88752 L425.484131,122.757507 L430.21225,122.757507 L430.21225,117.88752 Z M439.36499,126.876465 L434.636871,126.876465 L434.636871,131.74646 L439.36499,131.74646 L439.36499,126.876465 Z M421.059509,135.865402 L416.331421,135.865402 L416.331421,140.735397 L421.059509,140.735397 L421.059509,135.865402 Z M439.36499,135.865402 L434.636871,135.865402 L434.636871,140.735397 L439.36499,140.735397 L439.36499,135.865402 Z M324.67691,127.323853 C322.719269,127.323853 321.132263,128.910843 321.132263,130.868485 C321.132263,132.826141 322.719269,134.413132 324.67691,134.413132 C326.634552,134.413132 328.221558,132.826141 328.221558,130.868485 C328.221558,128.910843 326.634552,127.323853 324.67691,127.323853 Z M341.122925,127.323853 C339.165253,127.323853 337.578278,128.910843 337.578278,130.868485 C337.578278,132.826141 339.165253,134.413132 341.122925,134.413132 C343.080566,134.413132 344.667542,132.826141 344.667542,130.868485 C344.667542,128.910843 343.080566,127.323853 341.122925,127.323853 Z M94.5237427,122.630989 L90.3284073,122.630989 L90.3284073,135.560135 L94.5237427,135.560135 L94.5237427,122.630989 Z M103.266746,122.630989 L99.0714187,122.630989 L99.0714187,135.560135 L103.266746,135.560135 L103.266746,122.630989 Z M13.6415882,130.544708 L19.4646587,130.544708 L19.4646587,126.546333 L13.6415882,126.546333 L13.6415882,130.544708 L13.6415882,130.544708 Z M13.6415882,138.163086 L19.4646587,138.163086 L19.4646587,134.164703 L13.6415882,134.164703 L13.6415882,138.163086 L13.6415882,138.163086 Z M3.2595434,138.163086 L9.082613,138.163086 L9.082613,134.164703 L3.2595434,134.164703 L3.2595434,138.163086 Z M13.6415882,153.399826 L19.4646587,153.399826 L19.4646587,149.401443 L13.6415882,149.401443 L13.6415882,153.399826 L13.6415882,153.399826 Z M3.2595434,161.018189 L9.082613,161.018189 L9.082613,157.019821 L3.2595434,157.019821 L3.2595434,161.018189 Z M155.929672,114.015122 C155.929672,112.654984 154.827072,111.552368 153.466919,111.552368 L153.417175,111.552368 C152.057037,111.552368 150.954422,112.654984 150.954422,114.015122 L150.954422,129.550751 L155.929672,129.550751 L155.929672,114.015122 L155.929672,114.015122 Z M652.799133,102.557175 L659.591248,102.557175 L659.591248,95.7650299 L652.799133,102.557175 Z M641.820435,102.557175 L648.61261,102.557175 L648.61261,95.7650299 L641.820435,102.557175 Z M663.777771,113.198715 L670.569946,113.198715 L670.569946,106.406563 L663.777771,113.198715 Z M663.777771,123.840248 L670.569946,123.840248 L670.569946,117.048103 L663.777771,123.840248 Z M652.799133,145.123322 L659.591248,145.123322 L659.591248,138.331177 L652.799133,145.123322 Z M641.820435,145.123322 L648.61261,145.123322 L648.61261,138.331177 L641.820435,145.123322 Z M652.799133,123.840248 L659.591248,123.840248 L659.591248,117.048103 L652.799133,123.840248 Z M606.44342,117.839958 L629.283997,117.839958 L629.283997,114.360581 L606.44342,114.360581 L606.44342,117.839958 Z M606.44342,124.853798 L629.283997,124.853798 L629.283997,121.37442 L606.44342,121.37442 L606.44342,124.853798 Z M606.44342,131.86763 L629.283997,131.86763 L629.283997,128.38826 L606.44342,128.38826 L606.44342,131.86763 Z M464.238434,113.893135 L468.966522,113.893135 L468.966522,109.02314 L464.238434,109.02314 L464.238434,113.893135 Z M445.932953,113.893135 L450.661072,113.893135 L450.661072,109.02314 L445.932953,109.02314 L445.932953,113.893135 Z M464.238434,122.88208 L468.966522,122.88208 L468.966522,118.012085 L464.238434,118.012085 L464.238434,122.88208 Z M455.085693,122.88208 L459.813812,122.88208 L459.813812,118.012085 L455.085693,118.012085 L455.085693,122.88208 Z M445.932953,131.871033 L450.661072,131.871033 L450.661072,127.00103 L445.932953,127.00103 L445.932953,131.871033 Z M464.238434,140.85997 L468.966522,140.85997 L468.966522,135.989975 L464.238434,135.989975 L464.238434,140.85997 Z M445.932953,140.85997 L450.661072,140.85997 L450.661072,135.989975 L445.932953,135.989975 L445.932953,140.85997 Z M557.076416,130.993057 C557.076416,132.950714 558.663391,134.537705 560.621033,134.537705 C562.578674,134.537705 564.165649,132.950714 564.165649,130.993057 C564.165649,129.035416 562.578674,127.448425 560.621033,127.448425 C558.663391,127.448425 557.076416,129.035416 557.076416,130.993057 Z M540.630371,130.993057 C540.630371,132.950714 542.217407,134.537705 544.175049,134.537705 C546.13269,134.537705 547.719666,132.950714 547.719666,130.993057 C547.719666,129.035416 546.13269,127.448425 544.175049,127.448425 C542.217407,127.448425 540.630371,129.035416 540.630371,130.993057 Z M790.774231,135.684708 L794.969543,135.684708 L794.969543,122.755562 L790.774231,122.755562 L790.774231,135.684708 Z M782.031189,135.684708 L786.226502,135.684708 L786.226502,122.755562 L782.031189,122.755562 L782.031189,135.684708 Z M871.656372,126.670906 L865.833313,126.670906 L865.833313,130.669281 L871.656372,130.669281 L871.656372,126.670906 Z M871.656372,134.289276 L865.833313,134.289276 L865.833313,138.287659 L871.656372,138.287659 L871.656372,134.289276 Z M882.038391,134.289276 L876.215332,134.289276 L876.215332,138.287659 L882.038391,138.287659 L882.038391,134.289276 Z M871.656372,149.526016 L865.833313,149.526016 L865.833313,153.524399 L871.656372,153.524399 L871.656372,149.526016 Z M882.038391,157.144394 L876.215332,157.144394 L876.215332,161.142761 L882.038391,161.142761 L882.038391,157.144394 Z M729.368286,129.675323 L734.343506,129.675323 L734.343506,114.139694 C734.343506,112.779556 733.240906,111.676941 731.880798,111.676941 L731.830994,111.676941 C730.470886,111.676941 729.368286,112.779556 729.368286,114.139694 L729.368286,129.675323 L729.368286,129.675323 Z M1096.01294,102.577835 L1102.80505,102.577835 L1102.80505,95.7856903 L1096.01294,102.577835 Z M1085.0343,102.577835 L1091.82642,102.577835 L1091.82642,95.7856903 L1085.0343,102.577835 Z M1106.99158,113.219368 L1113.78381,113.219368 L1113.78381,106.427223 L1106.99158,113.219368 Z M1106.99158,123.860909 L1113.78381,123.860909 L1113.78381,117.068756 L1106.99158,123.860909 Z M1096.01294,145.143982 L1102.80505,145.143982 L1102.80505,138.351822 L1096.01294,145.143982 Z M1085.0343,145.143982 L1091.82642,145.143982 L1091.82642,138.351822 L1085.0343,145.143982 Z M1096.01294,123.860909 L1102.80505,123.860909 L1102.80505,117.068756 L1096.01294,123.860909 Z M1049.65723,117.860619 L1072.4978,117.860619 L1072.4978,114.381241 L1049.65723,114.381241 L1049.65723,117.860619 Z M1049.65723,124.874451 L1072.4978,124.874451 L1072.4978,121.395081 L1049.65723,121.395081 L1049.65723,124.874451 Z M1049.65723,131.88829 L1072.4978,131.88829 L1072.4978,128.40892 L1049.65723,128.40892 L1049.65723,131.88829 Z M907.45227,113.913796 L912.180359,113.913796 L912.180359,109.0438 L907.45227,109.0438 L907.45227,113.913796 Z M889.14679,113.913796 L893.874878,113.913796 L893.874878,109.0438 L889.14679,109.0438 L889.14679,113.913796 Z M907.45227,122.902741 L912.180359,122.902741 L912.180359,118.032745 L907.45227,118.032745 L907.45227,122.902741 Z M898.2995,122.902741 L903.027649,122.902741 L903.027649,118.032745 L898.2995,118.032745 L898.2995,122.902741 Z M889.14679,131.891693 L893.874878,131.891693 L893.874878,127.02169 L889.14679,127.02169 L889.14679,131.891693 Z M907.45227,140.88063 L912.180359,140.88063 L912.180359,136.010635 L907.45227,136.010635 L907.45227,140.88063 Z M889.14679,140.88063 L893.874878,140.88063 L893.874878,136.010635 L889.14679,136.010635 L889.14679,140.88063 Z M1000.29022,131.013718 C1000.29022,132.971375 1001.8772,134.558365 1003.8349,134.558365 C1005.79254,134.558365 1007.37952,132.971375 1007.37952,131.013718 C1007.37952,129.056076 1005.79254,127.469078 1003.8349,127.469078 C1001.8772,127.469078 1000.29022,129.056076 1000.29022,131.013718 Z M983.844238,131.013718 C983.844238,132.971375 985.431213,134.558365 987.388855,134.558365 C989.346497,134.558365 990.933533,132.971375 990.933533,131.013718 C990.933533,129.056076 989.346497,127.469078 987.388855,127.469078 C985.431213,127.469078 983.844238,129.056076 983.844238,131.013718 Z M1233.98804,135.705368 L1238.18335,135.705368 L1238.18335,122.776222 L1233.98804,122.776222 L1233.98804,135.705368 Z M1225.245,135.705368 L1229.44031,135.705368 L1229.44031,122.776222 L1225.245,122.776222 L1225.245,135.705368 Z M1314.87024,126.691559 L1309.04712,126.691559 L1309.04712,130.689941 L1314.87024,130.689941 L1314.87024,126.691559 Z M1314.87024,134.309936 L1309.04712,134.309936 L1309.04712,138.308304 L1314.87024,138.308304 L1314.87024,134.309936 Z M1325.2522,134.309936 L1319.4292,134.309936 L1319.4292,138.308304 L1325.2522,138.308304 L1325.2522,134.309936 Z M1314.87024,149.546677 L1309.04712,149.546677 L1309.04712,153.545059 L1314.87024,153.545059 L1314.87024,149.546677 Z M1325.2522,157.165054 L1319.4292,157.165054 L1319.4292,161.163422 L1325.2522,161.163422 L1325.2522,157.165054 Z M1172.58215,129.695984 L1177.55737,129.695984 L1177.55737,114.160355 C1177.55737,112.800217 1176.45471,111.697601 1175.0946,111.697601 L1175.0448,111.697601 C1173.68469,111.697601 1172.58215,112.800217 1172.58215,114.160355 L1172.58215,129.695984 L1172.58215,129.695984 Z"/>
    <path fill= "#f26664" d="M42.7810402,53.5494652 L49.8743744,53.5494652 L49.8743744,57.0819588 L42.7810402,57.0819588 L42.7810402,53.5494652 Z M55.2985306,57.0819588 L62.3918648,57.0819588 L62.3918648,53.5494652 L55.2985306,53.5494652 L55.2985306,57.0819588 Z M55.2985306,65.7886734 L62.3918648,65.7886734 L62.3918648,62.256176 L55.2985306,62.256176 L55.2985306,65.7886734 Z M42.7810402,74.4953842 L49.8743744,74.4953842 L49.8743744,70.962883 L42.7810402,70.962883 L42.7810402,74.4953842 Z M169.570404,52.9986649 C167.612747,52.9986649 166.025772,54.5856514 166.025772,56.5433007 C166.025772,58.5009537 167.612747,60.0879403 169.570404,60.0879403 C171.528061,60.0879403 173.115036,58.5009538 173.115036,56.5433007 C173.115036,54.5856514 171.528061,52.9986649 169.570404,52.9986649 Z M169.570404,79.8443527 C167.612747,79.8443527 166.025772,81.4313431 166.025772,83.3889923 C166.025772,85.3466415 167.612747,86.9336319 169.570404,86.9336319 C171.528061,86.9336319 173.115036,85.3466415 173.115036,83.3889923 C173.115036,81.4313431 171.528061,79.8443527 169.570404,79.8443527 Z M432.216003,71.7446899 C432.216003,70.1655807 430.935883,68.8854599 429.356781,68.8854599 L429.299011,68.8854599 C427.71991,68.8854599 426.439789,70.1655807 426.439789,71.7446899 L426.439789,82.9903411 L432.216003,82.9903411 L432.216003,71.7446899 L432.216003,71.7446899 Z M353.351593,72.3651505 L350.550171,72.3651505 L350.550171,78.7878647 L353.351593,78.7878647 L353.351593,72.3651505 Z M359.189667,72.3651505 L356.388275,72.3651505 L356.388275,78.7878647 L359.189667,78.7878647 L359.189667,72.3651505 Z M5.2255592,77.3060608 L9.8024854,77.3060608 L9.8024854,72.7291336 L5.2255592,77.3060608 Z M5.2255592,85.2813339 L9.8024854,85.2813339 L9.8024854,80.7044067 L5.2255592,85.2813339 Z M842.516907,53.6740379 L835.423584,53.6740379 L835.423584,57.2065315 L842.516907,57.2065315 L842.516907,53.6740379 Z M829.99939,53.6740379 L822.906067,53.6740379 L822.906067,57.2065315 L829.99939,57.2065315 L829.99939,53.6740379 Z M829.99939,62.3807449 L822.906067,62.3807449 L822.906067,65.9132385 L829.99939,65.9132385 L829.99939,62.3807449 Z M842.516907,71.0874557 L835.423584,71.0874557 L835.423584,74.6199493 L842.516907,74.6199493 L842.516907,71.0874557 Z M712.182922,56.6678734 C712.182922,58.6255226 713.769898,60.212513 715.727539,60.212513 C717.685181,60.212513 719.272156,58.6255226 719.272156,56.6678734 C719.272156,54.7102242 717.685181,53.1232338 715.727539,53.1232338 C713.769898,53.1232338 712.182922,54.7102242 712.182922,56.6678734 Z M712.182922,83.5135651 C712.182922,85.4712143 713.769898,87.0582047 715.727539,87.0582047 C717.685181,87.0582047 719.272156,85.4712143 719.272156,83.5135651 C719.272156,81.5559159 717.685181,79.9689255 715.727539,79.9689255 C713.769898,79.9689255 712.182922,81.5559158 712.182922,83.5135651 Z M453.08194,83.1149139 L458.858154,83.1149139 L458.858154,71.8692551 C458.858154,70.2901535 457.578033,69.0100327 455.998932,69.0100327 L455.941162,69.0100327 C454.36206,69.0100327 453.08194,70.2901535 453.08194,71.8692551 L453.08194,83.1149139 L453.08194,83.1149139 Z M531.94635,78.9124374 L534.747742,78.9124374 L534.747742,72.4897232 L531.94635,72.4897232 L531.94635,78.9124374 Z M526.108276,78.9124374 L528.909668,78.9124374 L528.909668,72.4897232 L526.108276,72.4897232 L526.108276,78.9124374 Z M875.495483,72.8537064 L875.495483,77.4306336 L880.072388,77.4306336 L875.495483,72.8537064 Z M875.495483,80.8289795 L875.495483,85.4058991 L880.072388,85.4058991 L875.495483,80.8289795 Z M1285.73071,53.6946945 L1278.63745,53.6946945 L1278.63745,57.2271881 L1285.73071,57.2271881 L1285.73071,53.6946945 Z M1273.21326,53.6946945 L1266.11987,53.6946945 L1266.11987,57.2271881 L1273.21326,57.2271881 L1273.21326,53.6946945 Z M1273.21326,62.4014053 L1266.11987,62.4014053 L1266.11987,65.9338989 L1273.21326,65.9338989 L1273.21326,62.4014053 Z M1285.73071,71.1081161 L1278.63745,71.1081161 L1278.63745,74.6406097 L1285.73071,74.6406097 L1285.73071,71.1081161 Z M1155.39673,56.68853 C1155.39673,58.646183 1156.98376,60.2331696 1158.94141,60.2331696 C1160.89905,60.2331696 1162.48596,58.6461831 1162.48596,56.68853 C1162.48596,54.7308808 1160.89905,53.1438942 1158.94141,53.1438942 C1156.98376,53.1438942 1155.39673,54.7308807 1155.39673,56.68853 Z M1155.39673,83.5342178 C1155.39673,85.4918747 1156.98376,87.0788574 1158.94141,87.0788574 C1160.89905,87.0788574 1162.48596,85.4918747 1162.48596,83.5342178 C1162.48596,81.5765686 1160.89905,79.9895858 1158.94141,79.9895858 C1156.98376,79.9895858 1155.39673,81.5765686 1155.39673,83.5342178 Z M896.295776,83.1355743 L902.072022,83.1355743 L902.072022,71.8899155 C902.072022,70.3108063 900.79187,69.0306931 899.212769,69.0306931 L899.155029,69.0306931 C897.575928,69.0306931 896.295776,70.3108063 896.295776,71.8899155 L896.295776,83.1355743 Z M975.160217,78.9330902 L977.961609,78.9330902 L977.961609,72.510376 L975.160217,72.510376 L975.160217,78.9330902 Z M969.322144,78.9330902 L972.123535,78.9330902 L972.123535,72.510376 L969.322144,72.510376 L969.322144,78.9330902 Z M1318.70935,72.8743591 L1318.70935,77.4512863 L1323.28625,77.4512863 L1318.70935,72.8743591 Z M1318.70935,80.8496323 L1318.70935,85.4265595 L1323.28625,85.4265595 L1318.70935,80.8496323 Z"/>
    <path fill= "#fff7e8" d="M74.9095306,57.0819588 L67.8160247,57.0819588 L67.8160247,53.5494652 L74.9095306,53.5494652 L74.9095306,57.0819588 Z M42.7810402,65.7886734 L49.8743744,65.7886734 L49.8743744,62.256176 L42.7810402,62.256176 L42.7810402,65.7886734 Z M169.570404,66.4215088 C167.612747,66.4215088 166.025772,68.0084992 166.025772,69.9661484 C166.025772,71.9237976 167.612747,73.510788 169.570404,73.510788 C171.528061,73.510788 173.115036,71.9237976 173.115036,69.9661484 C173.115036,68.0084992 171.528061,66.4215088 169.570404,66.4215088 Z M214.727997,127.565063 L214.727997,134.357208 L221.520157,134.357208 L214.727997,127.565063 Z M225.70668,127.565063 L225.70668,134.357208 L232.498825,134.357208 L225.70668,127.565063 Z M236.685348,148.848129 L236.685348,155.640274 L243.477493,155.640274 L236.685348,148.848129 Z M225.70668,106.281998 L225.70668,113.074142 L232.498825,113.074142 L225.70668,106.281998 Z M236.685348,106.281998 L236.685348,113.074142 L243.477493,113.074142 L236.685348,106.281998 Z M236.685348,116.923531 L236.685348,123.715675 L243.477493,123.715675 L236.685348,116.923531 Z M400.446808,71.7446899 C400.446808,70.1655807 399.166687,68.8854599 397.587586,68.8854599 L397.529816,68.8854599 C395.950714,68.8854599 394.670593,70.1655807 394.670593,71.7446899 L394.670593,82.9903411 L400.446808,82.9903411 L400.446808,71.7446899 L400.446808,71.7446899 Z M416.331421,71.7446899 C416.331421,70.1655807 415.0513,68.8854599 413.472168,68.8854599 L413.414429,68.8854599 C411.835297,68.8854599 410.555176,70.1655807 410.555176,71.7446899 L410.555176,82.9903411 L416.331421,82.9903411 L416.331421,71.7446899 Z M430.21225,108.898567 L425.484131,108.898567 L425.484131,113.768562 L430.21225,113.768562 L430.21225,108.898567 Z M439.36499,117.88752 L434.636871,117.88752 L434.636871,122.757507 L439.36499,122.757507 L439.36499,117.88752 Z M421.059509,126.876465 L416.331421,126.876465 L416.331421,131.74646 L421.059509,131.74646 L421.059509,126.876465 Z M430.21225,126.876465 L425.484131,126.876465 L425.484131,131.74646 L430.21225,131.74646 L430.21225,126.876465 Z M430.21225,135.865402 L425.484131,135.865402 L425.484131,140.735397 L430.21225,140.735397 L430.21225,135.865402 Z M308.230896,127.323852 C306.273254,127.323852 304.686249,128.910843 304.686249,130.868484 C304.686249,132.826141 306.273254,134.413132 308.230896,134.413132 C310.188538,134.413132 311.775543,132.826141 311.775543,130.868484 C311.775543,128.910843 310.188538,127.323852 308.230896,127.323852 Z M347.513489,72.3651505 L344.712097,72.3651505 L344.712097,78.7878647 L347.513489,78.7878647 L347.513489,72.3651505 Z M365.02774,72.3651505 L362.226349,72.3651505 L362.226349,78.7878647 L365.02774,78.7878647 L365.02774,72.3651505 Z M77.0377274,122.630989 L72.8423996,122.630989 L72.8423996,135.560135 L77.0377274,135.560135 L77.0377274,122.630989 Z M85.7807312,122.630989 L81.5854034,122.630989 L81.5854034,135.560135 L85.7807312,135.560135 L85.7807312,122.630989 Z M3.2595434,130.544708 L9.082613,130.544708 L9.082613,126.546333 L3.2595434,126.546333 L3.2595434,130.544708 Z M13.6415882,145.781448 L19.4646587,145.781448 L19.4646587,141.783081 L13.6415882,141.783081 L13.6415882,145.781448 L13.6415882,145.781448 Z M3.2595434,145.781448 L9.082613,145.781448 L9.082613,141.783081 L3.2595434,141.783081 L3.2595434,145.781448 Z M3.2595434,153.399826 L9.082613,153.399826 L9.082613,149.401443 L3.2595434,149.401443 L3.2595434,153.399826 Z M13.6415882,161.018188 L19.4646587,161.018188 L19.4646587,157.019821 L13.6415882,157.019821 L13.6415882,161.018188 L13.6415882,161.018188 Z M146.143204,114.015121 C146.143204,112.654984 145.040588,111.552368 143.68045,111.552368 L143.630691,111.552368 C142.270554,111.552368 141.167938,112.654984 141.167938,114.015121 L141.167938,129.550751 L146.143204,129.550751 L146.143204,114.015121 Z M165.716156,114.015121 C165.716156,112.654984 164.613541,111.552368 163.253403,111.552368 L163.203644,111.552368 C161.843506,111.552368 160.74089,112.654984 160.74089,114.015121 L160.74089,129.550751 L165.716156,129.550751 L165.716156,114.015121 Z M5.2255592,69.3307877 L9.8024854,69.3307877 L9.8024854,64.7538605 L5.2255592,69.3307877 Z M259.624207,56.3999786 C259.461853,57.5331573 258.702392,58.5042839 257.642212,58.9343834 C257.248535,59.0941429 256.830566,59.1751442 256.399902,59.1751442 C256.267425,59.1751442 256.132751,59.1673279 255.999573,59.1518288 C255.489563,59.0926285 254.975525,58.9188881 254.471802,58.6353951 C253.855545,58.2885476 253.246918,57.7802315 252.582031,57.0538292 C251.917129,57.7802315 251.308502,58.2885475 250.692261,58.6353951 C250.188614,58.9188386 249.674576,59.0925789 249.164459,59.1518288 C249.031311,59.1673279 248.896637,59.1751442 248.764175,59.1751442 C248.333496,59.1751938 247.915466,59.0941429 247.521759,58.9343834 C246.461517,58.5041847 245.702118,57.533062 245.539917,56.3999786 C245.462402,55.8584671 245.521591,55.322628 245.72084,54.7618065 C245.788971,54.5699806 245.868393,54.3849449 245.944061,54.2135506 C246.058578,53.954113 246.178436,53.6941338 246.294373,53.4427605 L246.309708,53.4095192 C247.361908,51.1269074 248.491241,48.8129044 249.666367,46.5318298 L249.712692,46.4418602 C249.833633,46.2067909 249.95871,45.963726 250.08699,45.724968 C250.23558,45.4486123 250.400009,45.156128 250.632385,44.8836594 C251.133759,44.2961235 251.826126,43.9725953 252.582031,43.9725953 C253.337784,43.9725953 254.029968,44.2959786 254.531143,44.8831712 C254.763901,45.1557122 254.92839,45.4482957 255.076874,45.7246248 C255.20401,45.9612581 255.327942,46.2020952 255.447815,46.435013 L255.497681,46.5318567 C256.67276,48.8127596 257.802124,51.1267587 258.85434,53.4095689 L258.863678,53.4298555 C258.981628,53.6854364 259.103607,53.9498102 259.220062,54.2136461 C259.295746,54.3851892 259.375214,54.5703699 259.443268,54.7617113 C259.642487,55.3228722 259.70163,55.8587112 259.624207,56.3999786 Z M254.118454,52.7246742 C254.196381,52.3832054 254.214218,52.0692329 254.171539,51.791439 C254.134628,51.5514106 254.052261,51.33675 253.92662,51.1535034 C253.642441,50.7390442 253.139847,50.4916076 252.582153,50.4916076 C252.024216,50.4916076 251.521698,50.7389716 251.237564,51.1533279 C251.111954,51.3365783 251.029526,51.5511627 250.99263,51.7911415 C250.94989,52.0686455 250.967697,52.3824692 251.045471,52.724041 C251.230789,53.5377503 251.758942,54.5083809 252.582031,55.5536156 C253.404907,54.508625 253.932922,53.5382843 254.118454,52.7246742 Z M258.528168,55.0868034 C258.473999,54.9344711 258.4104,54.7843437 258.331543,54.605812 C258.218384,54.3492584 258.098175,54.0887412 257.981873,53.8367347 L257.972443,53.8162994 C256.926025,51.5461044 255.802979,49.2449646 254.634354,46.9765968 L254.584335,46.8794136 C254.46637,46.6502571 254.344406,46.4132843 254.221405,46.1842728 C254.092789,45.9449311 253.963135,45.7134819 253.792572,45.513752 C253.474274,45.1408272 253.055695,44.9437676 252.582031,44.9437676 C252.108231,44.9437676 251.689514,45.1409264 251.371201,45.5139504 C251.200897,45.7136269 251.071213,45.9451752 250.942413,46.1847153 C250.818268,46.4157791 250.695221,46.6549034 250.576233,46.8861809 L250.529755,46.9764977 C249.361023,49.2451325 248.237946,51.5462723 247.191635,53.8161049 L247.176285,53.8493996 C247.061981,54.0972481 246.943832,54.3535576 246.832489,54.6057625 C246.753784,54.7840042 246.690262,54.9340286 246.635971,55.0869026 C246.488632,55.5015983 246.445831,55.8750915 246.501267,56.2623672 C246.614685,57.0547103 247.14563,57.7337417 247.886917,58.0344886 C248.250656,58.1820716 248.648483,58.2340392 249.052383,58.18721 C249.439163,58.1422805 249.819778,58.0120505 250.215942,57.7890777 C250.764496,57.4803161 251.319794,57.0063133 251.944656,56.311058 C250.9496,55.0818672 250.328415,53.9489288 250.098541,52.9396743 C249.993515,52.4783897 249.971375,52.0422973 250.032776,51.6434592 C250.091995,51.2583121 250.227875,50.9086264 250.4366,50.604164 C250.901917,49.9255561 251.703842,49.5204352 252.581818,49.5204352 C253.460251,49.5204352 254.262268,49.9256514 254.72757,50.6043624 C254.93631,50.9088019 255.072235,51.258583 255.131409,51.6439246 C255.19278,52.043228 255.170532,52.4794577 255.065277,52.9406508 C254.835266,53.9495162 254.214127,55.082157 253.219406,56.3110083 C253.844254,57.0063132 254.399552,57.480316 254.948105,57.7890776 C255.34433,58.0120505 255.724945,58.1422804 256.111694,58.1872099 C256.515778,58.2340391 256.913361,58.1820715 257.277069,58.0344885 C258.018341,57.7337416 258.549347,57.0547102 258.662842,56.2623671 C258.718231,55.8752365 258.675476,55.5016975 258.528168,55.0868034 Z M810.388428,57.2065315 L817.481934,57.2065315 L817.481934,53.6740379 L810.388428,53.6740379 L810.388428,57.2065315 Z M842.516907,62.3807449 L835.423584,62.3807449 L835.423584,65.9132385 L842.516907,65.9132385 L842.516907,62.3807449 Z M712.182922,70.0907211 C712.182922,72.0483703 713.769898,73.6353607 715.727539,73.6353607 C717.685181,73.6353607 719.272156,72.0483703 719.272156,70.0907211 C719.272156,68.1330719 717.685181,66.5460815 715.727539,66.5460815 C713.769898,66.5460815 712.182922,68.1330719 712.182922,70.0907211 Z M663.777771,134.481781 L670.569946,134.481781 L670.569946,127.689636 L663.777771,134.481781 Z M652.799133,134.481781 L659.591248,134.481781 L659.591248,127.689636 L652.799133,134.481781 Z M641.820435,155.764847 L648.61261,155.764847 L648.61261,148.972702 L641.820435,155.764847 Z M652.799133,113.198715 L659.591248,113.198715 L659.591248,106.406563 L652.799133,113.198715 Z M641.820435,113.198715 L648.61261,113.198715 L648.61261,106.406563 L641.820435,113.198715 Z M641.820435,123.840248 L648.61261,123.840248 L648.61261,117.048103 L641.820435,123.840248 Z M484.851135,83.1149139 L490.62735,83.1149139 L490.62735,71.8692551 C490.62735,70.2901535 489.347229,69.0100327 487.768128,69.0100327 L487.710358,69.0100327 C486.131256,69.0100327 484.851135,70.2901535 484.851135,71.8692551 L484.851135,83.1149139 L484.851135,83.1149139 Z M468.966522,83.1149139 L474.742737,83.1149139 L474.742737,71.8692551 C474.742737,70.2901535 473.462646,69.0100327 471.883514,69.0100327 L471.825775,69.0100327 C470.246643,69.0100327 468.966522,70.2901535 468.966522,71.8692551 L468.966522,83.1149139 Z M455.085693,113.893135 L459.813812,113.893135 L459.813812,109.02314 L455.085693,109.02314 L455.085693,113.893135 Z M445.932953,122.88208 L450.661072,122.88208 L450.661072,118.012085 L445.932953,118.012085 L445.932953,122.88208 Z M464.238434,131.871033 L468.966522,131.871033 L468.966522,127.00103 L464.238434,127.00103 L464.238434,131.871033 Z M455.085693,131.871033 L459.813812,131.871033 L459.813812,127.00103 L455.085693,127.00103 L455.085693,131.871033 Z M455.085693,140.85997 L459.813812,140.85997 L459.813812,135.989975 L455.085693,135.989975 L455.085693,140.85997 Z M573.5224,130.993057 C573.5224,132.950714 575.109375,134.537705 577.067017,134.537705 C579.024719,134.537705 580.611694,132.950714 580.611694,130.993057 C580.611694,129.035416 579.024719,127.448425 577.067017,127.448425 C575.109375,127.448425 573.5224,129.035416 573.5224,130.993057 Z M537.784424,78.9124374 L540.585876,78.9124374 L540.585876,72.4897232 L537.784424,72.4897232 L537.784424,78.9124374 Z M520.270203,78.9124374 L523.071594,78.9124374 L523.071594,72.4897232 L520.270203,72.4897232 L520.270203,78.9124374 Z M808.260193,135.684708 L812.455566,135.684708 L812.455566,122.755562 L808.260193,122.755562 L808.260193,135.684708 Z M799.517212,135.684708 L803.712524,135.684708 L803.712524,122.755562 L799.517212,122.755562 L799.517212,135.684708 Z M882.038391,126.670906 L876.215332,126.670906 L876.215332,130.669281 L882.038391,130.669281 L882.038391,126.670906 Z M871.656372,141.907654 L865.833313,141.907654 L865.833313,145.906021 L871.656372,145.906021 L871.656372,141.907654 Z M882.038391,141.907654 L876.215332,141.907654 L876.215332,145.906021 L882.038391,145.906021 L882.038391,141.907654 Z M882.038391,149.526016 L876.215332,149.526016 L876.215332,153.524399 L882.038391,153.524399 L882.038391,149.526016 Z M871.656372,157.144394 L865.833313,157.144394 L865.833313,161.142761 L871.656372,161.142761 L871.656372,157.144394 Z M739.154724,129.675323 L744.130005,129.675323 L744.130005,114.139694 C744.130005,112.779556 743.027405,111.676941 741.667236,111.676941 L741.617493,111.676941 C740.257324,111.676941 739.154724,112.779556 739.154724,114.139694 L739.154724,129.675323 L739.154724,129.675323 Z M719.581787,129.675323 L724.557068,129.675323 L724.557068,114.139694 C724.557068,112.779556 723.454468,111.676941 722.094299,111.676941 L722.044556,111.676941 C720.684387,111.676941 719.581787,112.779556 719.581787,114.139694 L719.581787,129.675323 L719.581787,129.675323 Z M875.495483,64.8784332 L875.495483,69.4553604 L880.072388,69.4553604 L875.495483,64.8784332 Z M625.854675,54.8862839 C625.92273,54.6949425 626.002197,54.5097618 626.077881,54.3382187 C626.194336,54.074379 626.316284,53.8100052 626.434265,53.5544281 L626.443604,53.5341377 C627.49585,51.2513313 628.625183,48.9373321 629.800293,46.6564255 L629.850159,46.5595818 C629.969971,46.3266678 630.093933,46.0858307 630.221069,45.8491936 C630.369568,45.5728684 630.534058,45.2802849 630.766785,45.00774 C631.268005,44.4205513 631.960144,44.0971679 632.715881,44.0971679 C633.471802,44.0971679 634.164185,44.4206962 634.665588,45.008232 C634.897949,45.2807006 635.062378,45.573181 635.210938,45.8495406 C635.339233,46.0882987 635.464294,46.3313598 635.585266,46.566429 L635.631592,46.6564024 C636.806702,48.9374769 637.936035,51.2514761 638.98822,53.5340879 L639.00354,53.567333 C639.119507,53.8187063 639.23938,54.0786855 639.353882,54.3381231 C639.429565,54.5095136 639.508972,54.6945493 639.577087,54.886379 C639.776367,55.4471967 639.83551,55.9830396 639.757996,56.5245511 C639.595825,57.6576344 638.836426,58.6287572 637.776184,59.0589559 C637.382507,59.2187154 636.964478,59.2997663 636.533753,59.2997167 C636.401306,59.2997167 636.266602,59.2918966 636.133484,59.2763975 C635.623352,59.2171476 635.109314,59.0434072 634.605652,58.7599676 C633.989441,58.4131201 633.380798,57.904804 632.715881,57.1784017 C632.051025,57.904804 631.442383,58.41312 630.826172,58.7599676 C630.322449,59.0434568 629.808411,59.2171972 629.29834,59.2763975 C629.165161,59.2918966 629.030518,59.2997167 628.89801,59.2997167 C628.467407,59.2997167 628.049439,59.2187154 627.655762,59.0589559 C626.59552,58.6288564 625.836121,57.6577299 625.673767,56.5245511 C625.596313,55.983284 625.655457,55.4474449 625.854675,54.8862839 Z M632.715881,55.6781845 C633.539001,54.6329536 634.067139,53.6623192 634.252441,52.8486099 C634.330261,52.5070419 634.348022,52.1932182 634.305298,51.9157142 C634.268433,51.6757354 634.185974,51.4611511 634.060364,51.2778968 C633.776245,50.8635406 633.273743,50.6161765 632.715759,50.6161765 C632.158081,50.6161765 631.655517,50.8636168 631.371338,51.2780723 C631.245666,51.4613189 631.16333,51.6759796 631.126404,51.9160079 C631.08374,52.1938018 631.101562,52.5077743 631.179504,52.8492469 C631.36499,53.6628571 631.893005,54.6331978 632.715881,55.6781845 Z M626.635071,56.3869362 C626.748596,57.1792832 627.279602,57.8583107 628.020874,58.1590576 C628.384583,58.3066444 628.782166,58.358612 629.186279,58.311779 C629.572998,58.2668533 629.953613,58.1366234 630.349853,57.9136467 C630.898376,57.6048851 631.453674,57.1308861 632.078552,56.4355812 C631.083801,55.2067261 630.462646,54.074089 630.232666,53.0652237 C630.127441,52.6040306 630.105164,52.1677971 630.166504,51.7684937 C630.225708,51.3831521 630.361633,51.0333748 630.570373,50.7289315 C631.035644,50.0502206 631.837707,49.6450082 632.716125,49.6450082 C633.594116,49.6450082 634.395996,50.0501252 634.861328,50.728737 C635.070068,51.0331994 635.205933,51.3828813 635.265198,51.7680284 C635.326599,52.1668664 635.304443,52.6029588 635.199402,53.0642473 C634.969543,54.0734979 634.348328,55.2064363 633.353271,56.435631 C633.978149,57.1308863 634.533447,57.6048853 635.08197,57.9136469 C635.478149,58.1366236 635.858764,58.2668535 636.245544,58.3117792 C636.649475,58.3586122 637.047302,58.3066446 637.411011,58.1590578 C638.152283,57.8583109 638.683288,57.1792833 638.796692,56.3869364 C638.852112,55.9996645 638.809326,55.6261713 638.661987,55.2114718 C638.607666,55.0586016 638.544128,54.9085734 638.465454,54.7303317 C638.354126,54.4781306 638.235962,54.2218211 638.121643,53.9739726 L638.106323,53.9406741 C637.059998,51.6708453 635.93689,49.3697055 634.768188,47.1010707 L634.72168,47.0107539 C634.602722,46.7794726 634.479675,46.5403483 634.35553,46.3092845 C634.226745,46.0697482 634.097046,45.8381961 633.926758,45.6385196 C633.608398,45.2654994 633.189697,45.0683406 632.715881,45.0683406 C632.242248,45.0683406 631.823669,45.2653964 631.505371,45.638325 C631.334778,45.8380511 631.205139,46.0695002 631.076538,46.3088458 C630.953552,46.5378573 630.831543,46.7748263 630.713623,47.0039828 L630.663574,47.1011698 C629.494995,49.3695338 628.371887,51.6706736 627.3255,53.9408724 L627.31604,53.9613039 C627.199768,54.2133142 627.079529,54.4738276 626.96637,54.7303812 C626.887512,54.9089128 626.823913,55.0590441 626.769775,55.2113726 C626.622498,55.6262703 626.579712,55.9998093 626.635071,56.3869362 Z M1253.60229,57.2271881 L1260.6958,57.2271881 L1260.6958,53.6946945 L1253.60229,53.6946945 L1253.60229,57.2271881 Z M1285.73071,62.4014053 L1278.63745,62.4014053 L1278.63745,65.9338989 L1285.73071,65.9338989 L1285.73071,62.4014053 Z M1155.39673,70.1113739 C1155.39673,72.0690231 1156.98376,73.6560135 1158.94141,73.6560135 C1160.89905,73.6560135 1162.48596,72.0690231 1162.48596,70.1113739 C1162.48596,68.1537247 1160.89905,66.5667343 1158.94141,66.5667343 C1156.98376,66.5667343 1155.39673,68.1537247 1155.39673,70.1113739 Z M1106.99158,134.502441 L1113.78381,134.502441 L1113.78381,127.710297 L1106.99158,134.502441 Z M1096.01294,134.502441 L1102.80505,134.502441 L1102.80505,127.710297 L1096.01294,134.502441 Z M1085.0343,155.785507 L1091.82642,155.785507 L1091.82642,148.993362 L1085.0343,155.785507 Z M1096.01294,113.219368 L1102.80505,113.219368 L1102.80505,106.427223 L1096.01294,113.219368 Z M1085.0343,113.219368 L1091.82642,113.219368 L1091.82642,106.427223 L1085.0343,113.219368 Z M1085.0343,123.860908 L1091.82642,123.860908 L1091.82642,117.068756 L1085.0343,123.860908 Z M928.064941,83.1355743 L933.841186,83.1355743 L933.841186,71.8899155 C933.841186,70.3108063 932.561035,69.0306931 930.981934,69.0306931 L930.924194,69.0306931 C929.345093,69.0306931 928.064941,70.3108063 928.064941,71.8899155 L928.064941,83.1355743 Z M912.180359,83.1355743 L917.956604,83.1355743 L917.956604,71.8899155 C917.956604,70.3108063 916.676453,69.0306931 915.097351,69.0306931 L915.039612,69.0306931 C913.46051,69.0306931 912.180359,70.3108063 912.180359,71.8899155 L912.180359,83.1355743 Z M898.2995,113.913795 L903.027649,113.913795 L903.027649,109.0438 L898.2995,109.0438 L898.2995,113.913795 Z M889.14679,122.90274 L893.874878,122.90274 L893.874878,118.032745 L889.14679,118.032745 L889.14679,122.90274 Z M907.45227,131.891693 L912.180359,131.891693 L912.180359,127.02169 L907.45227,127.02169 L907.45227,131.891693 Z M898.2995,131.891693 L903.027649,131.891693 L903.027649,127.02169 L898.2995,127.02169 L898.2995,131.891693 Z M898.2995,140.88063 L903.027649,140.88063 L903.027649,136.010635 L898.2995,136.010635 L898.2995,140.88063 Z M1016.73627,131.013718 C1016.73627,132.971375 1018.32324,134.558365 1020.28088,134.558365 C1022.23853,134.558365 1023.82556,132.971374 1023.82556,131.013718 C1023.82556,129.056076 1022.23853,127.469078 1020.28088,127.469078 C1018.32324,127.469078 1016.73627,129.056076 1016.73627,131.013718 Z M980.998291,78.9330902 L983.799683,78.9330902 L983.799683,72.510376 L980.998291,72.510376 L980.998291,78.9330902 Z M963.484009,78.9330902 L966.285461,78.9330902 L966.285461,72.510376 L963.484009,72.510376 L963.484009,78.9330902 Z M1251.474,135.705368 L1255.66943,135.705368 L1255.66943,122.776222 L1251.474,122.776222 L1251.474,135.705368 Z M1242.73108,135.705368 L1246.92639,135.705368 L1246.92639,122.776222 L1242.73108,122.776222 L1242.73108,135.705368 Z M1325.2522,126.691559 L1319.4292,126.691559 L1319.4292,130.689941 L1325.2522,130.689941 L1325.2522,126.691559 Z M1314.87024,141.928299 L1309.04712,141.928299 L1309.04712,145.926682 L1314.87024,145.926682 L1314.87024,141.928299 Z M1325.2522,141.928299 L1319.4292,141.928299 L1319.4292,145.926682 L1325.2522,145.926682 L1325.2522,141.928299 Z M1325.2522,149.546677 L1319.4292,149.546677 L1319.4292,153.545059 L1325.2522,153.545059 L1325.2522,149.546677 Z M1314.87024,157.165054 L1309.04712,157.165054 L1309.04712,161.163422 L1314.87024,161.163422 L1314.87024,157.165054 Z M1182.36853,129.695984 L1187.34387,129.695984 L1187.34387,114.160355 C1187.34387,112.800217 1186.24121,111.697601 1184.8811,111.697601 L1184.8313,111.697601 C1183.47119,111.697601 1182.36853,112.800217 1182.36853,114.160355 L1182.36853,129.695984 L1182.36853,129.695984 Z M1162.79565,129.695984 L1167.77087,129.695984 L1167.77087,114.160355 C1167.77087,112.800217 1166.66833,111.697601 1165.30811,111.697601 L1165.25842,111.697601 C1163.89819,111.697601 1162.79565,112.800217 1162.79565,114.160355 L1162.79565,129.695984 L1162.79565,129.695984 Z M1318.70935,64.8990936 L1318.70935,69.4760132 L1323.28625,69.4760132 L1318.70935,64.8990936 Z M1069.06848,54.9069405 C1069.1366,54.7155991 1069.21606,54.5304184 1069.29175,54.3588753 C1069.4082,54.0950394 1069.53015,53.8306656 1069.64807,53.5750847 L1069.65747,53.5547981 C1070.70972,51.2719879 1071.83899,48.9579887 1073.01416,46.6770859 L1073.06396,46.5802384 C1073.18384,46.3473244 1073.30774,46.1064873 1073.43494,45.869854 C1073.58337,45.593525 1073.74792,45.3009415 1073.98059,45.0284004 C1074.48181,44.4412079 1075.17395,44.1178245 1075.92969,44.1178245 C1076.68567,44.1178245 1077.37805,44.4413528 1077.87939,45.0288886 C1078.11182,45.3013572 1078.27625,45.5938415 1078.4248,45.8701972 C1078.5531,46.1089553 1078.6781,46.3520202 1078.79907,46.5870856 L1078.84546,46.677059 C1080.02051,48.9581335 1081.1499,51.2721327 1082.20203,53.5547484 L1082.21741,53.5879897 C1082.33337,53.839363 1082.45325,54.0993422 1082.56775,54.3587798 C1082.64343,54.5301741 1082.72278,54.7152099 1082.79089,54.9070357 C1082.99023,55.4678572 1083.04932,56.0036963 1082.97192,56.5452078 C1082.80969,57.6782911 1082.05029,58.6494139 1080.98999,59.0796126 C1080.59631,59.2393721 1080.17834,59.320423 1079.74756,59.3203734 C1079.61511,59.3203734 1079.48047,59.3125571 1079.34729,59.297058 C1078.83716,59.2378081 1078.32312,59.0640639 1077.81946,58.7806243 C1077.20325,58.4337768 1076.5946,57.9254607 1075.92969,57.1990584 C1075.26489,57.9254607 1074.65625,58.4337767 1074.04004,58.7806243 C1073.53625,59.0641173 1073.02222,59.2378577 1072.51221,59.297058 C1072.37903,59.3125571 1072.24438,59.3203734 1072.11182,59.3203734 C1071.68127,59.3203734 1071.26331,59.2393721 1070.86963,59.0796126 C1069.80933,58.6495131 1069.04993,57.6783866 1068.88757,56.5452078 C1068.81018,56.0039406 1068.86926,55.4681015 1069.06848,54.9069405 Z M1075.92969,55.6988449 C1076.75281,54.6536102 1077.28101,53.6829796 1077.46631,52.8692703 C1077.54407,52.5276985 1077.56189,52.2138748 1077.51916,51.9363708 C1077.4823,51.696392 1077.39978,51.4818077 1077.27417,51.2985572 C1076.99011,50.884201 1076.48755,50.6368369 1075.92957,50.6368369 C1075.37195,50.6368369 1074.86938,50.8842734 1074.5852,51.2987327 C1074.45947,51.4819793 1074.3772,51.6966361 1074.34021,51.9366683 C1074.29761,52.2144622 1074.31543,52.5284347 1074.39331,52.8699035 C1074.57886,53.6835136 1075.10681,54.6538544 1075.92969,55.6988449 Z M1069.84888,56.4075966 C1069.9624,57.1999397 1070.49341,57.8789711 1071.23474,58.179718 C1071.59839,58.327301 1071.99597,58.3792686 1072.40015,58.3324394 C1072.78687,58.2875099 1073.16748,58.1572799 1073.56372,57.9343071 C1074.11218,57.6255455 1074.66748,57.1515427 1075.29236,56.4562378 C1074.29761,55.2273865 1073.67651,54.0947456 1073.44653,53.0858803 C1073.34131,52.6246872 1073.31897,52.1884575 1073.38037,51.7891541 C1073.43958,51.4038125 1073.57544,51.0540314 1073.78418,50.7495881 C1074.24951,50.070881 1075.05151,49.6656648 1075.92993,49.6656648 C1076.80798,49.6656648 1077.60986,50.0707856 1078.0752,50.7493936 C1078.28394,51.053856 1078.4198,51.4035417 1078.479,51.7886888 C1078.54041,52.1875268 1078.51831,52.6236192 1078.41321,53.0849039 C1078.18335,54.0941584 1077.56213,55.2270967 1076.56714,56.4562876 C1077.19202,57.1515429 1077.74731,57.6255457 1078.29578,57.9343073 C1078.69202,58.1572802 1079.07263,58.2875101 1079.45935,58.3324396 C1079.86328,58.3792688 1080.26111,58.3273012 1080.62488,58.1797182 C1081.36621,57.8789713 1081.89709,57.1999399 1082.0105,56.4075968 C1082.06592,56.0203211 1082.02319,55.6468279 1081.87585,55.2321322 C1081.82153,55.0792582 1081.75793,54.92923 1081.67932,54.7509921 C1081.56799,54.4987872 1081.44983,54.2424777 1081.33545,53.9946292 L1081.32019,53.9613345 C1080.2738,51.6915019 1079.15076,49.3903621 1077.98206,47.1217273 L1077.93555,47.0314105 C1077.81653,46.800133 1077.69348,46.5610087 1077.56934,46.3299449 C1077.44055,46.0904048 1077.31091,45.8588565 1077.14063,45.6591762 C1076.82227,45.286156 1076.40356,45.0889972 1075.92969,45.0889972 C1075.45605,45.0889972 1075.03748,45.2860568 1074.71924,45.6589816 C1074.54858,45.8587115 1074.41895,46.0901606 1074.29041,46.3295024 C1074.16736,46.5585139 1074.04541,46.7954867 1073.92749,47.0246432 L1073.87744,47.1218264 C1072.70886,49.3901942 1071.58569,51.6913302 1070.53931,53.961529 L1070.52991,53.9819643 C1070.41357,54.2339708 1070.29346,54.494488 1070.18018,54.7510416 C1070.10132,54.9295732 1070.03772,55.0797007 1069.98364,55.232033 C1069.8363,55.6469269 1069.79358,56.0204659 1069.84888,56.4075966 Z"/>
    <path fill= "#f4dad1" d="M93.2709503,110.170898 L92.0463409,109.303711 L93.9115753,106.667969 L95.1361847,107.535156 L93.2709503,110.170898 Z M88.3573761,105.172852 L86.8573761,105.172852 L86.8573761,108.509766 L88.3573761,108.509766 L88.3573761,105.172852 Z M83.167923,109.303711 L81.3026886,106.667969 L80.0780792,107.535156 L81.9433136,110.170898 L83.167923,109.303711 Z M332.205994,93.9052734 L330.981384,93.0380859 L329.11615,95.6738281 L330.340759,96.5410156 L332.205994,93.9052734 Z M325.426697,91.5429688 L323.926697,91.5429688 L323.926697,94.8798829 L325.426697,94.8798829 L325.426697,91.5429688 Z M320.237732,95.6738281 L318.372498,93.0380859 L317.147888,93.9052734 L319.013123,96.5410156 L320.237732,95.6738281 Z M793.251892,109.427734 L791.386658,106.792969 L790.162048,107.660156 L792.027283,110.294922 L793.251892,109.427734 Z M798.440369,105.297852 L796.940369,105.297852 L796.940369,108.634766 L798.440369,108.634766 L798.440369,105.297852 Z M805.219666,107.660156 L803.995056,106.792969 L802.129822,109.427734 L803.354431,110.294922 L805.219666,107.660156 Z M556.18158,95.7978516 L554.316345,93.163086 L553.091736,94.0302735 L554.95697,96.6650391 L556.18158,95.7978516 Z M561.371033,91.6679688 L559.871033,91.6679688 L559.871033,95.0048829 L561.371033,95.0048829 L561.371033,91.6679688 Z M568.15033,94.0302734 L566.92572,93.1630859 L565.060486,95.7978515 L566.285095,96.665039 L568.15033,94.0302734 Z M1236.46582,109.448242 L1234.60059,106.813477 L1233.37598,107.680664 L1235.24121,110.31543 L1236.46582,109.448242 Z M1241.6543,105.318359 L1240.1543,105.318359 L1240.1543,108.655273 L1241.6543,108.655273 L1241.6543,105.318359 Z M1248.43359,107.680664 L1247.20898,106.813477 L1245.34375,109.448242 L1246.56836,110.31543 L1248.43359,107.680664 Z M999.395447,95.8183594 L997.530212,93.1835938 L996.305603,94.0507813 L998.170837,96.6855469 L999.395447,95.8183594 Z M1004.5849,91.6884766 L1003.0849,91.6884766 L1003.0849,95.0253907 L1004.5849,95.0253907 L1004.5849,91.6884766 Z M1011.3642,94.0507812 L1010.13959,93.1835937 L1008.27435,95.8183593 L1009.49896,96.6855468 L1011.3642,94.0507812 Z"/>
    <path fill= "#fff7e8" d="M64.5092316,33.2539062 L63.2846222,32.3867187 L65.1493683,29.7509765 L66.3739777,30.618164 L64.5092316,33.2539062 Z M59.5951691,28.2558594 L58.0951691,28.2558594 L58.0951691,31.5927735 L59.5951691,31.5927735 L59.5951691,28.2558594 Z M54.4062042,32.3867188 L52.5409698,29.7509766 L51.3163604,30.6181641 L53.1815948,33.2539063 L54.4062042,32.3867188 Z M420.972595,38.0869141 L419.747986,37.2197266 L417.882751,39.8544922 L419.107361,40.7216797 L420.972595,38.0869141 Z M414.193298,35.7246094 L412.693298,35.7246094 L412.693298,39.0615235 L414.193298,39.0615235 L414.193298,35.7246094 Z M409.003845,39.8544922 L407.138611,37.2197266 L405.914001,38.0869141 L407.779236,40.7216797 L409.003845,39.8544922 Z M260.110779,23.7919922 L258.886169,22.9248047 L257.021423,25.5605469 L258.246033,26.4277344 L260.110779,23.7919922 Z M253.331986,21.4296875 L251.831986,21.4296875 L251.831986,24.7675781 L253.331986,24.7675781 L253.331986,21.4296875 Z M248.143021,25.5605469 L246.277786,22.9248047 L245.053177,23.7919922 L246.918411,26.4277344 L248.143021,25.5605469 Z M822.013611,32.5107422 L820.148376,29.8759766 L818.923767,30.7431641 L820.789001,33.3779297 L822.013611,32.5107422 Z M827.203064,28.3808594 L825.703064,28.3808594 L825.703064,31.7177735 L827.203064,31.7177735 L827.203064,28.3808594 Z M833.981384,30.7431641 L832.756775,29.8759766 L830.891541,32.5107422 L832.11615,33.3779297 L833.981384,30.7431641 Z M467.414978,39.9804688 L465.55072,37.3447266 L464.326111,38.209961 L466.190369,40.8457032 L467.414978,39.9804688 Z M472.604431,35.8486328 L471.104431,35.8486328 L471.104431,39.1865234 L472.604431,39.1865234 L472.604431,35.8486328 Z M479.383728,38.2109375 L478.159119,37.34375 L476.293884,39.9794922 L477.518494,40.8466797 L479.383728,38.2109375 Z M628.276306,25.6845703 L626.412048,23.0498047 L625.187439,23.9169922 L627.051697,26.5517578 L628.276306,25.6845703 Z M633.465759,21.5546875 L631.965759,21.5546875 L631.965759,24.8916016 L633.465759,24.8916016 L633.465759,21.5546875 Z M640.245056,23.9169922 L639.020447,23.0498047 L637.155212,25.6845703 L638.379822,26.5517578 L640.245056,23.9169922 Z M1265.22754,32.53125 L1263.3623,29.8964844 L1262.1377,30.7636719 L1264.00293,33.3984375 L1265.22754,32.53125 Z M1270.41699,28.4013672 L1268.91699,28.4013672 L1268.91699,31.7382813 L1270.41699,31.7382813 L1270.41699,28.4013672 Z M1277.19531,30.7636719 L1275.9707,29.8964844 L1274.10547,32.53125 L1275.33008,33.3984375 L1277.19531,30.7636719 Z M910.628845,40 L908.764587,37.3652344 L907.539978,38.2324219 L909.404236,40.8671875 L910.628845,40 Z M915.818298,35.8701172 L914.318298,35.8701172 L914.318298,39.2070313 L915.818298,39.2070313 L915.818298,35.8701172 Z M922.597595,38.2324219 L921.372986,37.3652344 L919.507752,40 L920.732361,40.8671875 L922.597595,38.2324219 Z M1071.49023,25.7060547 L1069.625,23.0703125 L1068.40039,23.9375 L1070.26562,26.5732422 L1071.49023,25.7060547 Z M1076.67969,21.5751953 L1075.17969,21.5751953 L1075.17969,24.9121094 L1076.67969,24.9121094 L1076.67969,21.5751953 Z M1083.45898,23.9375 L1082.23438,23.0703125 L1080.36914,25.7060547 L1081.59375,26.5732422 L1083.45898,23.9375 Z"/>
  </g>
</svg>
