<?xml version="1.0" encoding="utf-8"?>
<!-- Generator: Adobe Illustrator 18.1.1, SVG Export Plug-In . SVG Version: 6.00 Build 0)  -->
<svg version="1.1" id="Layer_1" xmlns="http://www.w3.org/2000/svg" xmlns:xlink="http://www.w3.org/1999/xlink" x="0px" y="0px"
	 viewBox="-680 680.6 56.7 56.7" enable-background="new -680 680.6 56.7 56.7" xml:space="preserve">
<path fill="#AAAAAA" d="M-636.6,685.5H-667c-5.3,0-9.6,4.3-9.6,9.6v10.1v20.3c0,5.3,4.3,9.6,9.6,9.6h30.4c5.3,0,9.6-4.3,9.6-9.6
	v-20.3V695C-627,689.8-631.3,685.5-636.6,685.5z M-633.8,691.2l1.1,0v1.1v7.3l-8.4,0l0-8.4L-633.8,691.2z M-658.9,705.2
	c1.6-2.2,4.2-3.6,7.1-3.6c2.9,0,5.5,1.4,7.1,3.6c1,1.4,1.7,3.2,1.7,5.1c0,4.8-3.9,8.7-8.7,8.7c-4.8,0-8.7-3.9-8.7-8.7
	C-660.5,708.3-659.9,706.6-658.9,705.2z M-631.8,725.5c0,2.6-2.1,4.8-4.8,4.8H-667c-2.6,0-4.8-2.1-4.8-4.8v-20.3h7.4
	c-0.6,1.6-1,3.3-1,5.1c0,7.5,6.1,13.6,13.6,13.6c7.5,0,13.6-6.1,13.6-13.6c0-1.8-0.4-3.5-1-5.1h7.4V725.5z"/>
</svg>
