<?xml version="1.0" encoding="UTF-8"?>
<svg width="30px" height="31px" viewBox="0 0 30 31" version="1.1" xmlns="http://www.w3.org/2000/svg" xmlns:xlink="http://www.w3.org/1999/xlink">
    <!-- Generator: Sketch 52.5 (67469) - http://www.bohemiancoding.com/sketch -->
    <title>Logo</title>
    <desc>Created with Sketch.</desc>
    <g id="Homepage" stroke="none" stroke-width="1" fill="none" fill-rule="evenodd">
        <g id="Airbnb-Homepage" transform="translate(-25.000000, -20.000000)" fill="#840229" fill-rule="nonzero">
            <path d="M54.5756567,41.4186906 C54.4142128,41.056755 54.2524461,40.6646833 54.0910022,40.3325825 C53.8320463,39.7898298 53.5734133,39.2766106 53.3477148,38.7941303 L53.315426,38.7639941 C51.0849178,34.2387446 48.6936115,29.6538254 46.1721815,25.1291786 L46.0753152,24.9477588 C45.8101181,24.4783787 45.5516771,24.0057004 45.3000619,23.5298513 C44.9765284,22.9864959 44.6536407,22.4139084 44.1363746,21.870553 C43.1021653,20.6639002 41.6152675,20 40.0318263,20 C38.4154505,20 36.9611643,20.6639002 35.8949891,21.8099793 C35.4100118,22.3527319 35.0541896,22.9259222 34.7313019,23.4692776 C34.4790495,23.9448279 34.2206127,24.4174987 33.9560485,24.8871851 L33.8588593,25.0686049 C31.370041,29.5932517 28.9461231,34.1784722 26.7159378,38.7034204 L26.6833261,38.7633914 C26.4573047,39.2467758 26.1983488,39.7593923 25.9397158,40.3018436 C25.7782719,40.6339443 25.6168281,40.9958799 25.4553842,41.3879517 C25.0349844,42.5038946 24.9055065,43.5598665 25.0675961,44.646276 C25.4230954,46.9089007 27.0388255,48.8086858 29.2693337,49.6540058 C30.1098103,49.9861066 30.9825758,50.1367875 31.8873071,50.1367875 C32.1459401,50.1367875 32.4688278,50.1066513 32.7277837,50.0762138 C33.7946047,49.955669 34.8933915,49.624171 35.9602124,49.0509808 C37.2853435,48.3569444 38.5458971,47.3618476 39.9678945,45.9138039 C41.3898919,47.3618476 42.6827342,48.3569444 43.9755766,49.0509808 C45.0427204,49.624171 46.1411843,49.955669 47.2076824,50.0762138 C47.4663154,50.1069527 47.7898489,50.1367875 48.0484819,50.1367875 C48.9535361,50.1367875 49.8582675,49.9861066 50.6661325,49.6540058 C52.9289294,48.8086858 54.5123707,46.8787646 54.8681929,44.646276 C55.1248886,43.5906054 54.9957336,42.5352362 54.5756567,41.4186906 Z M39.9992146,42.987279 C38.2536837,40.9359089 37.1222853,39.0053849 36.73482,37.3768255 C36.5733762,36.6827892 36.5407645,36.0794627 36.6379537,35.5364087 C36.7022084,35.053627 36.8965868,34.6311177 37.1552198,34.2691821 C37.7693522,33.4552038 38.8035615,32.9419845 39.9995375,32.9419845 C41.1958364,32.9419845 42.2623345,33.4247662 42.8441781,34.2691821 C43.1028111,34.6311177 43.2965437,35.0539284 43.3617671,35.5364087 C43.4583105,36.0797641 43.4260217,36.7129253 43.2645779,37.3768255 C42.8754982,38.9752487 41.7440997,40.9060741 39.9992146,42.987279 Z M52.8947033,44.4051865 C52.6686819,45.9737749 51.5372835,47.3317114 49.9538422,47.9350378 C49.178266,48.2363997 48.3374664,48.3271096 47.4976355,48.2363997 C46.6897705,48.1456898 45.8812597,47.9042989 45.0414288,47.4522561 C43.8777416,46.848327 42.7143772,45.9138039 41.3566345,44.5257312 C43.4896306,42.0825907 44.7824729,39.8498008 45.2674502,37.8593058 C45.4937945,36.9238786 45.5264062,36.0794627 45.4288941,35.2947165 C45.3000619,34.5407091 45.0088172,33.8466728 44.5564515,33.2433464 C43.5538852,31.8854099 41.8729319,31.1015677 39.9988917,31.1015677 C38.1248515,31.1015677 36.4438982,31.9161488 35.4419777,33.2433464 C34.989612,33.8466728 34.6983673,34.5407091 34.5692123,35.2947165 C34.4400572,36.0794627 34.4720231,36.9540148 34.7306561,37.8593058 C35.2153105,39.8498008 36.5404416,42.1124256 38.641149,44.5558674 C37.3160179,45.9436387 36.1200419,46.8790659 34.9563546,47.4823923 C34.1158779,47.9350378 33.3083358,48.1764287 32.5004708,48.2665359 C31.6280283,48.3572458 30.7872287,48.2363997 30.0439412,47.965174 C28.4605,47.3618476 27.3291015,46.0039111 27.1030801,44.4353227 C27.0062138,43.6813153 27.0704685,42.927308 27.3940019,42.0825907 C27.4905453,41.7806262 27.652635,41.4792643 27.8140788,41.1173288 C28.0404231,40.6345471 28.2984104,40.1213278 28.5573663,39.6087113 L28.5899779,39.5487403 C30.8198404,35.053627 33.2114695,30.4684065 35.7002879,26.0040321 L35.7971542,25.8226123 C36.0561101,25.3705695 36.3147431,24.8877878 36.5730533,24.4351423 C36.8316863,23.9523606 37.1222853,23.4997151 37.4781075,23.107342 C38.1568174,22.3840736 39.0615487,21.9913991 40.0637921,21.9913991 C41.0660356,21.9913991 41.9707669,22.3840736 42.6494768,23.107342 C43.005299,23.5006192 43.295898,23.9532647 43.554531,24.4351423 C43.8134869,24.8877878 44.07212,25.3705695 44.3301072,25.8226123 L44.4272964,26.0040321 C46.8781632,30.4869558 49.2380327,35.0127121 51.5056405,39.5788765 L51.5056405,39.6090127 C51.7645964,40.0923971 51.9906178,40.6348484 52.2492508,41.1182328 C52.4106947,41.4795657 52.5724614,41.7809275 52.6693277,42.0828921 C52.927315,42.8664329 53.0241813,43.621043 52.8947033,44.4051865 Z" id="Logo"></path>
        </g>
    </g>
</svg>