<?xml version="1.0" encoding="UTF-8"?>
<svg width="38px" height="41px" viewBox="0 0 38 41" version="1.1" xmlns="http://www.w3.org/2000/svg" xmlns:xlink="http://www.w3.org/1999/xlink">
    <!-- Generator: Sketch 52.5 (67469) - http://www.bohemiancoding.com/sketch -->
    <title>Fill 1</title>
    <desc>Created with Sketch.</desc>
    <g id="Page-1" stroke="none" stroke-width="1" fill="none" fill-rule="evenodd">
        <g id="LandingPage_AirBnb" transform="translate(-122.000000, -39.000000)" fill="#FFFFFF">
            <g id="Navigation" transform="translate(122.000000, 36.000000)">
                <g id="Logo" transform="translate(0.000000, 3.000000)">
                    <path d="M35.3235295,33.1089353 C35.0369821,35.237243 33.6042451,37.0790034 31.5984132,37.8982055 C30.6162951,38.3072288 29.5521412,38.4297047 28.4879873,38.3072288 C27.465429,38.1847529 26.4417153,37.8566099 25.3787169,37.2430749 C23.9043842,36.4238728 22.431207,35.1552073 20.7119226,33.2730068 C23.4133252,29.9569138 25.0505739,26.9285237 25.6652643,24.2282765 C25.9518117,22.959611 25.9922518,21.8134214 25.8686205,20.7492675 C25.7057044,19.7255538 25.3371213,18.7850312 24.7640265,17.9669846 C23.4953609,16.1240688 21.3670532,15.0599149 18.9937936,15.0599149 C16.620534,15.0599149 14.4922263,16.1656644 13.2235607,17.9669846 C12.6504659,18.7850312 12.2818828,19.7255538 12.1178113,20.7492675 C11.9537398,21.8134214 11.9953354,23.0000512 12.3223229,24.2282765 C12.9370133,26.9285237 14.6147022,29.9985094 17.2745092,33.3146024 C15.5968203,35.1968029 14.0820475,36.464313 12.6088703,37.283515 C11.5447164,37.8982055 10.5221582,38.225193 9.49844444,38.3476689 C8.3938504,38.4713003 7.32969652,38.3072288 6.38801855,37.9386456 C4.38334213,37.120599 2.9506051,35.2788386 2.66405769,33.1493754 C2.54042635,32.1268172 2.6224621,31.1042589 3.03264085,29.9569138 C3.15511676,29.5490459 3.35962841,29.1388672 3.56414007,28.6489635 C3.85068748,27.9926775 4.17767504,27.2982623 4.50581804,26.6015361 L4.5462582,26.5195004 C7.37013668,20.4222799 10.3996823,14.2014281 13.5505483,8.14464787 L13.6730242,7.89854062 C14.0000118,7.28385022 14.3281548,6.62987509 14.6551423,6.01634012 C14.9832853,5.36120955 15.3507131,4.74767458 15.801332,4.21501992 C16.6609742,3.23290179 17.8071638,2.70140257 19.0746739,2.70140257 C20.3444949,2.70140257 21.4906845,3.23290179 22.3491713,4.21501992 C22.7997902,4.74767458 23.1683734,5.36120955 23.4953609,6.01634012 C23.8223485,6.62987509 24.1504915,7.28385022 24.4774791,7.89854062 L24.6011104,8.14464787 C27.7115363,14.2418683 30.7399264,20.4627201 33.5638049,26.5610959 L33.5638049,26.6015361 C33.8907925,27.2566667 34.1773399,27.9926775 34.5054829,28.6489635 C34.7099945,29.1388672 34.9145062,29.5490459 35.0369821,29.9569138 C35.3639697,31.0210677 35.487601,32.0447814 35.3235295,33.1089353 L35.3235295,33.1089353 Z M18.9937936,31.1851392 C16.7834501,28.4028563 15.3507131,25.7834895 14.859654,23.573146 C14.6551423,22.6326234 14.6147022,21.8134214 14.7371781,21.0762551 C14.8192138,20.4222799 15.0641656,19.8491851 15.3923086,19.358126 C16.1699151,18.253532 17.4790208,17.5579613 18.9937936,17.5579613 C20.5074109,17.5579613 21.8581122,18.2119364 22.5952785,19.358126 C22.9222661,19.8491851 23.1683734,20.4222799 23.2504091,21.0762551 C23.372885,21.8134214 23.3324449,22.6730636 23.1267778,23.573146 C22.6368741,25.7418939 21.2041371,28.3624161 18.9937936,31.1851392 L18.9937936,31.1851392 Z M37.4518373,29.0568314 C37.2473256,28.5657724 37.0416585,28.0331177 36.8383023,27.5848097 C36.5101593,26.8476434 36.1831717,26.1520726 35.8966243,25.4969421 L35.8550287,25.4553465 C33.0311502,19.3165305 30.0027601,13.0956787 26.8102985,6.95686265 L26.6878226,6.71191084 C26.360835,6.09722043 26.032692,5.4432453 25.7057044,4.78811474 C25.2966811,4.05210386 24.8876578,3.27334195 24.2313718,2.53733107 C22.9222661,0.90008238 21.0400656,0 19.0342338,0 C16.9879617,0 15.1462014,0.90008238 13.7955001,2.45529532 C13.1819651,3.1913062 12.7313462,3.97006811 12.3223229,4.70607899 C11.9953354,5.36120955 11.6671924,6.01634012 11.3402048,6.62987509 L11.2177289,6.8748269 C8.0657074,13.0136429 4.99687711,19.2356501 2.17299863,25.3744662 L2.13140304,25.4553465 C1.84485563,26.110477 1.51786806,26.8060478 1.18972507,27.5432141 C0.986368841,27.9926775 0.78070175,28.484892 0.576190093,29.0163913 C0.04469087,30.5311641 -0.119380629,31.9627457 0.0851310282,33.4359228 C0.535749935,36.5059086 2.58202194,39.0848352 5.40590042,40.2298694 C6.4700543,40.6804883 7.57464834,40.885 8.72083797,40.885 C9.04782553,40.885 9.45800428,40.8434044 9.78499184,40.8029643 C11.1356931,40.6400482 12.5268346,40.1894293 13.8775359,39.4118228 C15.5552247,38.4713003 17.1520332,37.120599 18.9533534,35.1552073 C20.7535182,37.120599 22.3907669,38.4713003 24.0280156,39.4118228 C25.3787169,40.1894293 26.7698583,40.6400482 28.1205596,40.8029643 C28.4475472,40.8434044 28.8565705,40.885 29.1847135,40.885 C30.3297477,40.885 31.4759373,40.6804883 32.499651,40.2298694 C35.3639697,39.0848352 37.3698015,36.464313 37.8204204,33.4359228 C38.147408,32.0043412 37.9833365,30.5716042 37.4518373,29.0568314 L37.4518373,29.0568314 Z" id="Fill-1"></path>
                </g>
            </g>
        </g>
    </g>
</svg>