<?xml version="1.0" encoding="utf-8"?>
<!-- Generator: Adobe Illustrator 18.1.1, SVG Export Plug-In . SVG Version: 6.00 Build 0)  -->
<svg version="1.1" id="Calque_1" xmlns:sketch="http://www.bohemiancoding.com/sketch/ns"
	 xmlns="http://www.w3.org/2000/svg" xmlns:xlink="http://www.w3.org/1999/xlink" x="0px" y="0px" viewBox="-700 701.3 16 16"
	 enable-background="new -700 701.3 16 16" xml:space="preserve">
<title></title>
<g id="Icons_with_numbers">
	<g id="Group" transform="translate(-336.000000, 0.000000)">
		<path id="Shape" fill="#AAAAAA" d="M-354.3,709.8l4.9,4.2c-0.2,0.2-0.4,0.3-0.7,0.3h-12c-0.3,0-0.5-0.1-0.7-0.3l5-4.2l1.7,1.5
			L-354.3,709.8z M-356,710.3l-6.7-5.7c0.2-0.2,0.4-0.3,0.7-0.3h12c0.3,0,0.5,0.1,0.7,0.3L-356,710.3z M-349,713.5l-4.8-4.1l4.8-4.2
			V713.5L-349,713.5z M-363,713.5v-8.3l4.8,4.2L-363,713.5L-363,713.5z"/>
	</g>
</g>
</svg>
