<?xml version="1.0" encoding="utf-8"?>
<!-- Generator: Adobe Illustrator 18.1.1, SVG Export Plug-In . SVG Version: 6.00 Build 0)  -->
<svg version="1.1"
	 id="Calque_1" xmlns:rdf="http://www.w3.org/1999/02/22-rdf-syntax-ns#" xmlns:dc="http://purl.org/dc/elements/1.1/" xmlns:cc="http://creativecommons.org/ns#"
	 xmlns="http://www.w3.org/2000/svg" xmlns:xlink="http://www.w3.org/1999/xlink" x="0px" y="0px" viewBox="-696 697.3 24 24"
	 enable-background="new -696 697.3 24 24" xml:space="preserve">
<g transform="translate(0 -1028.4)">
	<path fill="#FF5A5F" d="M-684,1725.7c-4.4,0-8,3.6-8,8c0,1.4,0.4,2.8,1,3.9c0.1,0.2,0.2,0.4,0.3,0.6l6.6,11.5l6.6-11.5
		c0.1-0.2,0.2-0.3,0.3-0.5l0.1-0.1c0.6-1.2,1-2.5,1-3.9C-676,1729.3-679.6,1725.7-684,1725.7z M-684,1729.7c2.2,0,4,1.8,4,4
		c0,2.2-1.8,4-4,4c-2.2,0-4-1.8-4-4C-688,1731.5-686.2,1729.7-684,1729.7z"/>
	<path fill="#FF5A5F" d="M-684,1728.7c-2.8,0-5,2.2-5,5c0,2.8,2.2,5,5,5c2.8,0,5-2.2,5-5C-679,1731-681.2,1728.7-684,1728.7z
		 M-684,1730.7c1.7,0,3,1.3,3,3s-1.3,3-3,3s-3-1.3-3-3S-685.7,1730.7-684,1730.7z"/>
</g>
</svg>
