<?xml version="1.0" encoding="utf-8"?>
<!-- Generator: Adobe Illustrator 18.1.1, SVG Export Plug-In . SVG Version: 6.00 Build 0)  -->
<svg version="1.1" id="Layer_1" xmlns="http://www.w3.org/2000/svg" xmlns:xlink="http://www.w3.org/1999/xlink" x="0px" y="0px"
	 viewBox="-696 697.3 24 24" enable-background="new -696 697.3 24 24" xml:space="preserve">
<path fill="#AAAAAA" d="M-676,721.3h-16c-1.1,0-2-0.9-2-2v-10c0-1.1,0.9-2,2-2h1v-3c0-3.9,3.1-7,7-7s7,3.1,7,7v3h1c1.1,0,2,0.9,2,2
	v10C-674,720.4-674.9,721.3-676,721.3z M-680,704.3c0-2.2-1.8-4-4-4c-2.2,0-4,1.8-4,4v3h8V704.3z"/>
</svg>
