<?xml version="1.0" encoding="utf-8"?>
<!-- Generator: Adobe Illustrator 18.1.1, SVG Export Plug-In . SVG Version: 6.00 Build 0)  -->
<svg version="1.1" id="Layer_1" xmlns="http://www.w3.org/2000/svg" xmlns:xlink="http://www.w3.org/1999/xlink" x="0px" y="0px"
	 viewBox="0 0 1417.3 1417.3" enable-background="new 0 0 1417.3 1417.3" xml:space="preserve">
<path fill="#AAAAAA" d="M1228.3,236.2H189c-52.2,0-94.5,42.3-94.5,94.5v755.9c0,52.2,42.3,94.5,94.5,94.5h1039.4
	c52.2,0,94.5-42.3,94.5-94.5V330.7C1322.8,278.5,1280.5,236.2,1228.3,236.2z M1181.1,1039.4H236.2V708.7l108.1-108.1
	c44.6-44.6,117-44.6,161.7,0l202.6,202.6L816.8,695c44.6-44.6,117-44.6,161.7,0l202.6,202.6V1039.4z M1086.6,566.9
	c-52.2,0-94.5-42.3-94.5-94.5s42.3-94.5,94.5-94.5s94.5,42.3,94.5,94.5S1138.8,566.9,1086.6,566.9z"/>
<path fill="#AAAAAA" d="M835.3,857.6c-19.9,19.9-52.1,20.2-72,0.2L660.1,754.6l73.5-71l101.7,101.7
	C855.3,805.3,855.3,837.6,835.3,857.6L835.3,857.6z"/>
</svg>
