<?xml version="1.0" encoding="utf-8"?>
<!-- Generator: Adobe Illustrator 18.1.1, SVG Export Plug-In . SVG Version: 6.00 Build 0)  -->
<svg version="1.1" id="Layer_1" xmlns="http://www.w3.org/2000/svg" xmlns:xlink="http://www.w3.org/1999/xlink" x="0px" y="0px"
	 viewBox="-458 459.3 500 500" enable-background="new -458 459.3 500 500" xml:space="preserve">
<path fill="#840229" d="M-208,500.4c-8.1,0-14.8,5.4-16.9,12.9l-42.9,132.5h-140.8c-9.7,0-17.4,8.5-17.4,18.3c0,6,3,11.4,7.5,14.5
	c2.8,1.9,113.7,82.9,113.7,82.9s-42.6,130.8-43.4,132.9c-0.6,1.9-1.1,4-1.1,6.2c0,9.8,7.9,17.7,17.6,17.7c3.7,0,7.2-1.2,10.1-3.2
	l113.6-82.7c0,0,111,80.9,113.6,82.7c2.9,2,6.4,3.2,10.1,3.2c9.7,0,17.6-8,17.6-17.7c0-2.2-0.5-4.3-1.1-6.2
	c-0.8-2.1-43.4-132.9-43.4-132.9s110.9-81,113.7-82.9c4.5-3.2,7.5-8.5,7.5-14.6c0-9.7-7.5-18.2-17.3-18.2H-148l-43.1-132.5
	C-193.2,505.8-199.9,500.4-208,500.4z"/>
</svg>
